  0
SECTION
  2
BLOCKS
  0
ENDSEC
  0
SECTION
  2
ENTITIES
  0
LINE
  8
0
 10
25.4369
 20
-29.4114
 11
26.0451
 21
-29.2553
  0
LINE
  8
0
 10
26.0451
 20
-29.2553
 11
26.6289
 21
-29.0241
  0
LINE
  8
0
 10
26.6289
 20
-29.0241
 11
27.1791
 21
-28.7216
  0
LINE
  8
0
 10
27.1791
 20
-28.7216
 11
27.6871
 21
-28.3526
  0
LINE
  8
0
 10
27.6871
 20
-28.3526
 11
28.1448
 21
-27.9227
  0
LINE
  8
0
 10
28.1448
 20
-27.9227
 11
28.5451
 21
-27.4389
  0
LINE
  8
0
 10
28.5451
 20
-27.4389
 11
28.8815
 21
-26.9088
  0
LINE
  8
0
 10
28.8815
 20
-26.9088
 11
29.1489
 21
-26.3406
  0
LINE
  8
0
 10
29.1489
 20
-26.3406
 11
29.3429
 21
-25.7434
  0
LINE
  8
0
 10
29.3429
 20
-25.7434
 11
29.4606
 21
-25.1267
  0
LINE
  8
0
 10
29.4606
 20
-25.1267
 11
29.5
 21
-24.5
  0
LINE
  8
0
 10
29.5
 20
-24.5
 11
29.5
 21
24.5
  0
LINE
  8
0
 10
29.5
 20
24.5
 11
29.4606
 21
25.1267
  0
LINE
  8
0
 10
29.4606
 20
25.1267
 11
29.3429
 21
25.7434
  0
LINE
  8
0
 10
29.3429
 20
25.7434
 11
29.1489
 21
26.3406
  0
LINE
  8
0
 10
29.1489
 20
26.3406
 11
28.8815
 21
26.9088
  0
LINE
  8
0
 10
28.8815
 20
26.9088
 11
28.5451
 21
27.4389
  0
LINE
  8
0
 10
28.5451
 20
27.4389
 11
28.1448
 21
27.9227
  0
LINE
  8
0
 10
28.1448
 20
27.9227
 11
27.6871
 21
28.3526
  0
LINE
  8
0
 10
27.6871
 20
28.3526
 11
27.1791
 21
28.7216
  0
LINE
  8
0
 10
27.1791
 20
28.7216
 11
26.6289
 21
29.0241
  0
LINE
  8
0
 10
26.6289
 20
29.0241
 11
26.0451
 21
29.2553
  0
LINE
  8
0
 10
26.0451
 20
29.2553
 11
25.4369
 21
29.4114
  0
LINE
  8
0
 10
25.4369
 20
29.4114
 11
24.8139
 21
29.4901
  0
LINE
  8
0
 10
24.8139
 20
29.4901
 11
-24.8139
 21
29.4901
  0
LINE
  8
0
 10
-24.8139
 20
29.4901
 11
-25.4369
 21
29.4114
  0
LINE
  8
0
 10
-25.4369
 20
29.4114
 11
-26.0451
 21
29.2553
  0
LINE
  8
0
 10
-26.0451
 20
29.2553
 11
-26.6289
 21
29.0241
  0
LINE
  8
0
 10
-26.6289
 20
29.0241
 11
-27.1791
 21
28.7216
  0
LINE
  8
0
 10
-27.1791
 20
28.7216
 11
-27.6871
 21
28.3526
  0
LINE
  8
0
 10
-27.6871
 20
28.3526
 11
-28.1448
 21
27.9227
  0
LINE
  8
0
 10
-28.1448
 20
27.9227
 11
-28.5451
 21
27.4389
  0
LINE
  8
0
 10
-28.5451
 20
27.4389
 11
-28.8815
 21
26.9088
  0
LINE
  8
0
 10
-28.8815
 20
26.9088
 11
-29.1489
 21
26.3406
  0
LINE
  8
0
 10
-29.1489
 20
26.3406
 11
-29.3429
 21
25.7434
  0
LINE
  8
0
 10
-29.3429
 20
25.7434
 11
-29.4606
 21
25.1267
  0
LINE
  8
0
 10
-29.4606
 20
25.1267
 11
-29.5
 21
24.5
  0
LINE
  8
0
 10
-29.5
 20
24.5
 11
-29.5
 21
-24.5
  0
LINE
  8
0
 10
-29.5
 20
-24.5
 11
-29.4606
 21
-25.1267
  0
LINE
  8
0
 10
-29.4606
 20
-25.1267
 11
-29.3429
 21
-25.7434
  0
LINE
  8
0
 10
-29.3429
 20
-25.7434
 11
-29.1489
 21
-26.3406
  0
LINE
  8
0
 10
-29.1489
 20
-26.3406
 11
-28.8815
 21
-26.9088
  0
LINE
  8
0
 10
-28.8815
 20
-26.9088
 11
-28.5451
 21
-27.4389
  0
LINE
  8
0
 10
-28.5451
 20
-27.4389
 11
-28.1448
 21
-27.9227
  0
LINE
  8
0
 10
-28.1448
 20
-27.9227
 11
-27.6871
 21
-28.3526
  0
LINE
  8
0
 10
-27.6871
 20
-28.3526
 11
-27.1791
 21
-28.7216
  0
LINE
  8
0
 10
-27.1791
 20
-28.7216
 11
-26.6289
 21
-29.0241
  0
LINE
  8
0
 10
-26.6289
 20
-29.0241
 11
-26.0451
 21
-29.2553
  0
LINE
  8
0
 10
-26.0451
 20
-29.2553
 11
-25.4369
 21
-29.4114
  0
LINE
  8
0
 10
-25.4369
 20
-29.4114
 11
-24.8139
 21
-29.4901
  0
LINE
  8
0
 10
-24.8139
 20
-29.4901
 11
24.8139
 21
-29.4901
  0
LINE
  8
0
 10
24.8139
 20
-29.4901
 11
25.4369
 21
-29.4114
  0
LINE
  8
0
 10
-7.68837
 20
19.5059
 11
-8.06213
 21
19.5531
  0
LINE
  8
0
 10
-8.06213
 20
19.5531
 11
-8.42705
 21
19.6468
  0
LINE
  8
0
 10
-8.42705
 20
19.6468
 11
-8.77733
 21
19.7855
  0
LINE
  8
0
 10
-8.77733
 20
19.7855
 11
-9.10747
 21
19.967
  0
LINE
  8
0
 10
-9.10747
 20
19.967
 11
-9.41226
 21
20.1884
  0
LINE
  8
0
 10
-9.41226
 20
20.1884
 11
-9.6869
 21
20.4464
  0
LINE
  8
0
 10
-9.6869
 20
20.4464
 11
-9.92705
 21
20.7366
  0
LINE
  8
0
 10
-9.92705
 20
20.7366
 11
-10.1289
 21
21.0547
  0
LINE
  8
0
 10
-10.1289
 20
21.0547
 11
-10.2893
 21
21.3956
  0
LINE
  8
0
 10
-10.2893
 20
21.3956
 11
-10.4057
 21
21.7539
  0
LINE
  8
0
 10
-10.4057
 20
21.7539
 11
-10.4763
 21
22.124
  0
LINE
  8
0
 10
-10.4763
 20
22.124
 11
-10.5
 21
22.5
  0
LINE
  8
0
 10
-10.5
 20
22.5
 11
-10.4763
 21
22.876
  0
LINE
  8
0
 10
-10.4763
 20
22.876
 11
-10.4057
 21
23.2461
  0
LINE
  8
0
 10
-10.4057
 20
23.2461
 11
-10.2893
 21
23.6044
  0
LINE
  8
0
 10
-10.2893
 20
23.6044
 11
-10.1289
 21
23.9453
  0
LINE
  8
0
 10
-10.1289
 20
23.9453
 11
-9.92705
 21
24.2634
  0
LINE
  8
0
 10
-9.92705
 20
24.2634
 11
-9.6869
 21
24.5536
  0
LINE
  8
0
 10
-9.6869
 20
24.5536
 11
-9.41226
 21
24.8115
  0
LINE
  8
0
 10
-9.41226
 20
24.8115
 11
-9.10747
 21
25.033
  0
LINE
  8
0
 10
-9.10747
 20
25.033
 11
-8.77733
 21
25.2145
  0
LINE
  8
0
 10
-8.77733
 20
25.2145
 11
-8.42705
 21
25.3532
  0
LINE
  8
0
 10
-8.42705
 20
25.3532
 11
-8.06213
 21
25.4469
  0
LINE
  8
0
 10
-8.06213
 20
25.4469
 11
-7.68837
 21
25.4941
  0
LINE
  8
0
 10
-7.68837
 20
25.4941
 11
-7.31161
 21
25.4941
  0
LINE
  8
0
 10
-7.31161
 20
25.4941
 11
-6.93785
 21
25.4469
  0
LINE
  8
0
 10
-6.93785
 20
25.4469
 11
-6.57294
 21
25.3532
  0
LINE
  8
0
 10
-6.57294
 20
25.3532
 11
-6.22266
 21
25.2145
  0
LINE
  8
0
 10
-6.22266
 20
25.2145
 11
-5.89252
 21
25.033
  0
LINE
  8
0
 10
-5.89252
 20
25.033
 11
-5.58772
 21
24.8115
  0
LINE
  8
0
 10
-5.58772
 20
24.8115
 11
-5.31308
 21
24.5536
  0
LINE
  8
0
 10
-5.31308
 20
24.5536
 11
-5.07294
 21
24.2634
  0
LINE
  8
0
 10
-5.07294
 20
24.2634
 11
-4.87108
 21
23.9453
  0
LINE
  8
0
 10
-4.87108
 20
23.9453
 11
-4.71066
 21
23.6044
  0
LINE
  8
0
 10
-4.71066
 20
23.6044
 11
-4.59424
 21
23.2461
  0
LINE
  8
0
 10
-4.59424
 20
23.2461
 11
-4.52365
 21
22.876
  0
LINE
  8
0
 10
-4.52365
 20
22.876
 11
-4.5
 21
22.5
  0
LINE
  8
0
 10
-4.5
 20
22.5
 11
-4.52365
 21
22.124
  0
LINE
  8
0
 10
-4.52365
 20
22.124
 11
-4.59424
 21
21.7539
  0
LINE
  8
0
 10
-4.59424
 20
21.7539
 11
-4.71066
 21
21.3956
  0
LINE
  8
0
 10
-4.71066
 20
21.3956
 11
-4.87108
 21
21.0547
  0
LINE
  8
0
 10
-4.87108
 20
21.0547
 11
-5.07294
 21
20.7366
  0
LINE
  8
0
 10
-5.07294
 20
20.7366
 11
-5.31308
 21
20.4464
  0
LINE
  8
0
 10
-5.31308
 20
20.4464
 11
-5.58772
 21
20.1884
  0
LINE
  8
0
 10
-5.58772
 20
20.1884
 11
-5.89252
 21
19.967
  0
LINE
  8
0
 10
-5.89252
 20
19.967
 11
-6.22266
 21
19.7855
  0
LINE
  8
0
 10
-6.22266
 20
19.7855
 11
-6.57294
 21
19.6468
  0
LINE
  8
0
 10
-6.57294
 20
19.6468
 11
-6.93785
 21
19.5531
  0
LINE
  8
0
 10
-6.93785
 20
19.5531
 11
-7.31161
 21
19.5059
  0
LINE
  8
0
 10
-7.31161
 20
19.5059
 11
-7.68837
 21
19.5059
  0
LINE
  8
0
 10
7.31161
 20
19.5059
 11
6.93785
 21
19.5531
  0
LINE
  8
0
 10
6.93785
 20
19.5531
 11
6.57294
 21
19.6468
  0
LINE
  8
0
 10
6.57294
 20
19.6468
 11
6.22266
 21
19.7855
  0
LINE
  8
0
 10
6.22266
 20
19.7855
 11
5.89252
 21
19.967
  0
LINE
  8
0
 10
5.89252
 20
19.967
 11
5.58772
 21
20.1884
  0
LINE
  8
0
 10
5.58772
 20
20.1884
 11
5.31308
 21
20.4464
  0
LINE
  8
0
 10
5.31308
 20
20.4464
 11
5.07294
 21
20.7366
  0
LINE
  8
0
 10
5.07294
 20
20.7366
 11
4.87108
 21
21.0547
  0
LINE
  8
0
 10
4.87108
 20
21.0547
 11
4.71066
 21
21.3956
  0
LINE
  8
0
 10
4.71066
 20
21.3956
 11
4.59424
 21
21.7539
  0
LINE
  8
0
 10
4.59424
 20
21.7539
 11
4.52365
 21
22.124
  0
LINE
  8
0
 10
4.52365
 20
22.124
 11
4.5
 21
22.5
  0
LINE
  8
0
 10
4.5
 20
22.5
 11
4.52365
 21
22.876
  0
LINE
  8
0
 10
4.52365
 20
22.876
 11
4.59424
 21
23.2461
  0
LINE
  8
0
 10
4.59424
 20
23.2461
 11
4.71066
 21
23.6044
  0
LINE
  8
0
 10
4.71066
 20
23.6044
 11
4.87108
 21
23.9453
  0
LINE
  8
0
 10
4.87108
 20
23.9453
 11
5.07294
 21
24.2634
  0
LINE
  8
0
 10
5.07294
 20
24.2634
 11
5.31308
 21
24.5536
  0
LINE
  8
0
 10
5.31308
 20
24.5536
 11
5.58772
 21
24.8115
  0
LINE
  8
0
 10
5.58772
 20
24.8115
 11
5.89252
 21
25.033
  0
LINE
  8
0
 10
5.89252
 20
25.033
 11
6.22266
 21
25.2145
  0
LINE
  8
0
 10
6.22266
 20
25.2145
 11
6.57294
 21
25.3532
  0
LINE
  8
0
 10
6.57294
 20
25.3532
 11
6.93785
 21
25.4469
  0
LINE
  8
0
 10
6.93785
 20
25.4469
 11
7.31161
 21
25.4941
  0
LINE
  8
0
 10
7.31161
 20
25.4941
 11
7.68837
 21
25.4941
  0
LINE
  8
0
 10
7.68837
 20
25.4941
 11
8.06213
 21
25.4469
  0
LINE
  8
0
 10
8.06213
 20
25.4469
 11
8.42705
 21
25.3532
  0
LINE
  8
0
 10
8.42705
 20
25.3532
 11
8.77733
 21
25.2145
  0
LINE
  8
0
 10
8.77733
 20
25.2145
 11
9.10747
 21
25.033
  0
LINE
  8
0
 10
9.10747
 20
25.033
 11
9.41226
 21
24.8115
  0
LINE
  8
0
 10
9.41226
 20
24.8115
 11
9.6869
 21
24.5536
  0
LINE
  8
0
 10
9.6869
 20
24.5536
 11
9.92705
 21
24.2634
  0
LINE
  8
0
 10
9.92705
 20
24.2634
 11
10.1289
 21
23.9453
  0
LINE
  8
0
 10
10.1289
 20
23.9453
 11
10.2893
 21
23.6044
  0
LINE
  8
0
 10
10.2893
 20
23.6044
 11
10.4057
 21
23.2461
  0
LINE
  8
0
 10
10.4057
 20
23.2461
 11
10.4763
 21
22.876
  0
LINE
  8
0
 10
10.4763
 20
22.876
 11
10.5
 21
22.5
  0
LINE
  8
0
 10
10.5
 20
22.5
 11
10.4763
 21
22.124
  0
LINE
  8
0
 10
10.4763
 20
22.124
 11
10.4057
 21
21.7539
  0
LINE
  8
0
 10
10.4057
 20
21.7539
 11
10.2893
 21
21.3956
  0
LINE
  8
0
 10
10.2893
 20
21.3956
 11
10.1289
 21
21.0547
  0
LINE
  8
0
 10
10.1289
 20
21.0547
 11
9.92705
 21
20.7366
  0
LINE
  8
0
 10
9.92705
 20
20.7366
 11
9.6869
 21
20.4464
  0
LINE
  8
0
 10
9.6869
 20
20.4464
 11
9.41226
 21
20.1884
  0
LINE
  8
0
 10
9.41226
 20
20.1884
 11
9.10747
 21
19.967
  0
LINE
  8
0
 10
9.10747
 20
19.967
 11
8.77733
 21
19.7855
  0
LINE
  8
0
 10
8.77733
 20
19.7855
 11
8.42705
 21
19.6468
  0
LINE
  8
0
 10
8.42705
 20
19.6468
 11
8.06213
 21
19.5531
  0
LINE
  8
0
 10
8.06213
 20
19.5531
 11
7.68837
 21
19.5059
  0
LINE
  8
0
 10
7.68837
 20
19.5059
 11
7.31161
 21
19.5059
  0
LINE
  8
0
 10
-22.6884
 20
19.5059
 11
-23.0621
 21
19.5531
  0
LINE
  8
0
 10
-23.0621
 20
19.5531
 11
-23.427
 21
19.6468
  0
LINE
  8
0
 10
-23.427
 20
19.6468
 11
-23.7773
 21
19.7855
  0
LINE
  8
0
 10
-23.7773
 20
19.7855
 11
-24.1075
 21
19.967
  0
LINE
  8
0
 10
-24.1075
 20
19.967
 11
-24.4123
 21
20.1884
  0
LINE
  8
0
 10
-24.4123
 20
20.1884
 11
-24.6869
 21
20.4464
  0
LINE
  8
0
 10
-24.6869
 20
20.4464
 11
-24.927
 21
20.7366
  0
LINE
  8
0
 10
-24.927
 20
20.7366
 11
-25.1289
 21
21.0547
  0
LINE
  8
0
 10
-25.1289
 20
21.0547
 11
-25.2893
 21
21.3956
  0
LINE
  8
0
 10
-25.2893
 20
21.3956
 11
-25.4057
 21
21.7539
  0
LINE
  8
0
 10
-25.4057
 20
21.7539
 11
-25.4763
 21
22.124
  0
LINE
  8
0
 10
-25.4763
 20
22.124
 11
-25.5
 21
22.5
  0
LINE
  8
0
 10
-25.5
 20
22.5
 11
-25.4763
 21
22.876
  0
LINE
  8
0
 10
-25.4763
 20
22.876
 11
-25.4057
 21
23.2461
  0
LINE
  8
0
 10
-25.4057
 20
23.2461
 11
-25.2893
 21
23.6044
  0
LINE
  8
0
 10
-25.2893
 20
23.6044
 11
-25.1289
 21
23.9453
  0
LINE
  8
0
 10
-25.1289
 20
23.9453
 11
-24.927
 21
24.2634
  0
LINE
  8
0
 10
-24.927
 20
24.2634
 11
-24.6869
 21
24.5536
  0
LINE
  8
0
 10
-24.6869
 20
24.5536
 11
-24.4123
 21
24.8115
  0
LINE
  8
0
 10
-24.4123
 20
24.8115
 11
-24.1075
 21
25.033
  0
LINE
  8
0
 10
-24.1075
 20
25.033
 11
-23.7773
 21
25.2145
  0
LINE
  8
0
 10
-23.7773
 20
25.2145
 11
-23.427
 21
25.3532
  0
LINE
  8
0
 10
-23.427
 20
25.3532
 11
-23.0621
 21
25.4469
  0
LINE
  8
0
 10
-23.0621
 20
25.4469
 11
-22.6884
 21
25.4941
  0
LINE
  8
0
 10
-22.6884
 20
25.4941
 11
-22.3116
 21
25.4941
  0
LINE
  8
0
 10
-22.3116
 20
25.4941
 11
-21.9379
 21
25.4469
  0
LINE
  8
0
 10
-21.9379
 20
25.4469
 11
-21.5729
 21
25.3532
  0
LINE
  8
0
 10
-21.5729
 20
25.3532
 11
-21.2227
 21
25.2145
  0
LINE
  8
0
 10
-21.2227
 20
25.2145
 11
-20.8925
 21
25.033
  0
LINE
  8
0
 10
-20.8925
 20
25.033
 11
-20.5877
 21
24.8115
  0
LINE
  8
0
 10
-20.5877
 20
24.8115
 11
-20.3131
 21
24.5536
  0
LINE
  8
0
 10
-20.3131
 20
24.5536
 11
-20.0729
 21
24.2634
  0
LINE
  8
0
 10
-20.0729
 20
24.2634
 11
-19.8711
 21
23.9453
  0
LINE
  8
0
 10
-19.8711
 20
23.9453
 11
-19.7107
 21
23.6044
  0
LINE
  8
0
 10
-19.7107
 20
23.6044
 11
-19.5942
 21
23.2461
  0
LINE
  8
0
 10
-19.5942
 20
23.2461
 11
-19.5237
 21
22.876
  0
LINE
  8
0
 10
-19.5237
 20
22.876
 11
-19.5
 21
22.5
  0
LINE
  8
0
 10
-19.5
 20
22.5
 11
-19.5237
 21
22.124
  0
LINE
  8
0
 10
-19.5237
 20
22.124
 11
-19.5942
 21
21.7539
  0
LINE
  8
0
 10
-19.5942
 20
21.7539
 11
-19.7107
 21
21.3956
  0
LINE
  8
0
 10
-19.7107
 20
21.3956
 11
-19.8711
 21
21.0547
  0
LINE
  8
0
 10
-19.8711
 20
21.0547
 11
-20.0729
 21
20.7366
  0
LINE
  8
0
 10
-20.0729
 20
20.7366
 11
-20.3131
 21
20.4464
  0
LINE
  8
0
 10
-20.3131
 20
20.4464
 11
-20.5877
 21
20.1884
  0
LINE
  8
0
 10
-20.5877
 20
20.1884
 11
-20.8925
 21
19.967
  0
LINE
  8
0
 10
-20.8925
 20
19.967
 11
-21.2227
 21
19.7855
  0
LINE
  8
0
 10
-21.2227
 20
19.7855
 11
-21.5729
 21
19.6468
  0
LINE
  8
0
 10
-21.5729
 20
19.6468
 11
-21.9379
 21
19.5531
  0
LINE
  8
0
 10
-21.9379
 20
19.5531
 11
-22.3116
 21
19.5059
  0
LINE
  8
0
 10
-22.3116
 20
19.5059
 11
-22.6884
 21
19.5059
  0
LINE
  8
0
 10
22.3116
 20
19.5059
 11
21.9379
 21
19.5531
  0
LINE
  8
0
 10
21.9379
 20
19.5531
 11
21.5729
 21
19.6468
  0
LINE
  8
0
 10
21.5729
 20
19.6468
 11
21.2227
 21
19.7855
  0
LINE
  8
0
 10
21.2227
 20
19.7855
 11
20.8925
 21
19.967
  0
LINE
  8
0
 10
20.8925
 20
19.967
 11
20.5877
 21
20.1884
  0
LINE
  8
0
 10
20.5877
 20
20.1884
 11
20.3131
 21
20.4464
  0
LINE
  8
0
 10
20.3131
 20
20.4464
 11
20.0729
 21
20.7366
  0
LINE
  8
0
 10
20.0729
 20
20.7366
 11
19.8711
 21
21.0547
  0
LINE
  8
0
 10
19.8711
 20
21.0547
 11
19.7107
 21
21.3956
  0
LINE
  8
0
 10
19.7107
 20
21.3956
 11
19.5942
 21
21.7539
  0
LINE
  8
0
 10
19.5942
 20
21.7539
 11
19.5237
 21
22.124
  0
LINE
  8
0
 10
19.5237
 20
22.124
 11
19.5
 21
22.5
  0
LINE
  8
0
 10
19.5
 20
22.5
 11
19.5237
 21
22.876
  0
LINE
  8
0
 10
19.5237
 20
22.876
 11
19.5942
 21
23.2461
  0
LINE
  8
0
 10
19.5942
 20
23.2461
 11
19.7107
 21
23.6044
  0
LINE
  8
0
 10
19.7107
 20
23.6044
 11
19.8711
 21
23.9453
  0
LINE
  8
0
 10
19.8711
 20
23.9453
 11
20.0729
 21
24.2634
  0
LINE
  8
0
 10
20.0729
 20
24.2634
 11
20.3131
 21
24.5536
  0
LINE
  8
0
 10
20.3131
 20
24.5536
 11
20.5877
 21
24.8115
  0
LINE
  8
0
 10
20.5877
 20
24.8115
 11
20.8925
 21
25.033
  0
LINE
  8
0
 10
20.8925
 20
25.033
 11
21.2227
 21
25.2145
  0
LINE
  8
0
 10
21.2227
 20
25.2145
 11
21.5729
 21
25.3532
  0
LINE
  8
0
 10
21.5729
 20
25.3532
 11
21.9379
 21
25.4469
  0
LINE
  8
0
 10
21.9379
 20
25.4469
 11
22.3116
 21
25.4941
  0
LINE
  8
0
 10
22.3116
 20
25.4941
 11
22.6884
 21
25.4941
  0
LINE
  8
0
 10
22.6884
 20
25.4941
 11
23.0621
 21
25.4469
  0
LINE
  8
0
 10
23.0621
 20
25.4469
 11
23.427
 21
25.3532
  0
LINE
  8
0
 10
23.427
 20
25.3532
 11
23.7773
 21
25.2145
  0
LINE
  8
0
 10
23.7773
 20
25.2145
 11
24.1075
 21
25.033
  0
LINE
  8
0
 10
24.1075
 20
25.033
 11
24.4123
 21
24.8115
  0
LINE
  8
0
 10
24.4123
 20
24.8115
 11
24.6869
 21
24.5536
  0
LINE
  8
0
 10
24.6869
 20
24.5536
 11
24.927
 21
24.2634
  0
LINE
  8
0
 10
24.927
 20
24.2634
 11
25.1289
 21
23.9453
  0
LINE
  8
0
 10
25.1289
 20
23.9453
 11
25.2893
 21
23.6044
  0
LINE
  8
0
 10
25.2893
 20
23.6044
 11
25.4057
 21
23.2461
  0
LINE
  8
0
 10
25.4057
 20
23.2461
 11
25.4763
 21
22.876
  0
LINE
  8
0
 10
25.4763
 20
22.876
 11
25.5
 21
22.5
  0
LINE
  8
0
 10
25.5
 20
22.5
 11
25.4763
 21
22.124
  0
LINE
  8
0
 10
25.4763
 20
22.124
 11
25.4057
 21
21.7539
  0
LINE
  8
0
 10
25.4057
 20
21.7539
 11
25.2893
 21
21.3956
  0
LINE
  8
0
 10
25.2893
 20
21.3956
 11
25.1289
 21
21.0547
  0
LINE
  8
0
 10
25.1289
 20
21.0547
 11
24.927
 21
20.7366
  0
LINE
  8
0
 10
24.927
 20
20.7366
 11
24.6869
 21
20.4464
  0
LINE
  8
0
 10
24.6869
 20
20.4464
 11
24.4123
 21
20.1884
  0
LINE
  8
0
 10
24.4123
 20
20.1884
 11
24.1075
 21
19.967
  0
LINE
  8
0
 10
24.1075
 20
19.967
 11
23.7773
 21
19.7855
  0
LINE
  8
0
 10
23.7773
 20
19.7855
 11
23.427
 21
19.6468
  0
LINE
  8
0
 10
23.427
 20
19.6468
 11
23.0621
 21
19.5531
  0
LINE
  8
0
 10
23.0621
 20
19.5531
 11
22.6884
 21
19.5059
  0
LINE
  8
0
 10
22.6884
 20
19.5059
 11
22.3116
 21
19.5059
  0
LINE
  8
0
 10
-0.0941772
 20
21.003
 11
-0.281067
 21
21.0266
  0
LINE
  8
0
 10
-0.281067
 20
21.0266
 11
-0.463516
 21
21.0734
  0
LINE
  8
0
 10
-0.463516
 20
21.0734
 11
-0.638657
 21
21.1427
  0
LINE
  8
0
 10
-0.638657
 20
21.1427
 11
-0.803726
 21
21.2335
  0
LINE
  8
0
 10
-0.803726
 20
21.2335
 11
-0.956131
 21
21.3442
  0
LINE
  8
0
 10
-0.956131
 20
21.3442
 11
-1.09344
 21
21.4732
  0
LINE
  8
0
 10
-1.09344
 20
21.4732
 11
-1.21352
 21
21.6183
  0
LINE
  8
0
 10
-1.21352
 20
21.6183
 11
-1.31445
 21
21.7774
  0
LINE
  8
0
 10
-1.31445
 20
21.7774
 11
-1.39465
 21
21.9478
  0
LINE
  8
0
 10
-1.39465
 20
21.9478
 11
-1.45287
 21
22.127
  0
LINE
  8
0
 10
-1.45287
 20
22.127
 11
-1.48816
 21
22.312
  0
LINE
  8
0
 10
-1.48816
 20
22.312
 11
-1.5
 21
22.5
  0
LINE
  8
0
 10
-1.5
 20
22.5
 11
-1.48816
 21
22.688
  0
LINE
  8
0
 10
-1.48816
 20
22.688
 11
-1.45287
 21
22.873
  0
LINE
  8
0
 10
-1.45287
 20
22.873
 11
-1.39465
 21
23.0522
  0
LINE
  8
0
 10
-1.39465
 20
23.0522
 11
-1.31445
 21
23.2226
  0
LINE
  8
0
 10
-1.31445
 20
23.2226
 11
-1.21352
 21
23.3817
  0
LINE
  8
0
 10
-1.21352
 20
23.3817
 11
-1.09344
 21
23.5268
  0
LINE
  8
0
 10
-1.09344
 20
23.5268
 11
-0.956131
 21
23.6558
  0
LINE
  8
0
 10
-0.956131
 20
23.6558
 11
-0.803726
 21
23.7665
  0
LINE
  8
0
 10
-0.803726
 20
23.7665
 11
-0.638657
 21
23.8572
  0
LINE
  8
0
 10
-0.638657
 20
23.8572
 11
-0.463516
 21
23.9266
  0
LINE
  8
0
 10
-0.463516
 20
23.9266
 11
-0.281067
 21
23.9734
  0
LINE
  8
0
 10
-0.281067
 20
23.9734
 11
-0.0941772
 21
23.997
  0
LINE
  8
0
 10
-0.0941772
 20
23.997
 11
0.0941772
 21
23.997
  0
LINE
  8
0
 10
0.0941772
 20
23.997
 11
0.281067
 21
23.9734
  0
LINE
  8
0
 10
0.281067
 20
23.9734
 11
0.463516
 21
23.9266
  0
LINE
  8
0
 10
0.463516
 20
23.9266
 11
0.638657
 21
23.8572
  0
LINE
  8
0
 10
0.638657
 20
23.8572
 11
0.803726
 21
23.7665
  0
LINE
  8
0
 10
0.803726
 20
23.7665
 11
0.956131
 21
23.6558
  0
LINE
  8
0
 10
0.956131
 20
23.6558
 11
1.09344
 21
23.5268
  0
LINE
  8
0
 10
1.09344
 20
23.5268
 11
1.21352
 21
23.3817
  0
LINE
  8
0
 10
1.21352
 20
23.3817
 11
1.31445
 21
23.2226
  0
LINE
  8
0
 10
1.31445
 20
23.2226
 11
1.39465
 21
23.0522
  0
LINE
  8
0
 10
1.39465
 20
23.0522
 11
1.45287
 21
22.873
  0
LINE
  8
0
 10
1.45287
 20
22.873
 11
1.48816
 21
22.688
  0
LINE
  8
0
 10
1.48816
 20
22.688
 11
1.5
 21
22.5
  0
LINE
  8
0
 10
1.5
 20
22.5
 11
1.48816
 21
22.312
  0
LINE
  8
0
 10
1.48816
 20
22.312
 11
1.45287
 21
22.127
  0
LINE
  8
0
 10
1.45287
 20
22.127
 11
1.39465
 21
21.9478
  0
LINE
  8
0
 10
1.39465
 20
21.9478
 11
1.31445
 21
21.7774
  0
LINE
  8
0
 10
1.31445
 20
21.7774
 11
1.21352
 21
21.6183
  0
LINE
  8
0
 10
1.21352
 20
21.6183
 11
1.09344
 21
21.4732
  0
LINE
  8
0
 10
1.09344
 20
21.4732
 11
0.956131
 21
21.3442
  0
LINE
  8
0
 10
0.956131
 20
21.3442
 11
0.803726
 21
21.2335
  0
LINE
  8
0
 10
0.803726
 20
21.2335
 11
0.638657
 21
21.1427
  0
LINE
  8
0
 10
0.638657
 20
21.1427
 11
0.463516
 21
21.0734
  0
LINE
  8
0
 10
0.463516
 20
21.0734
 11
0.281067
 21
21.0266
  0
LINE
  8
0
 10
0.281067
 20
21.0266
 11
0.0941772
 21
21.003
  0
LINE
  8
0
 10
0.0941772
 20
21.003
 11
-0.0941772
 21
21.003
  0
LINE
  8
0
 10
-15.0942
 20
21.003
 11
-15.2811
 21
21.0266
  0
LINE
  8
0
 10
-15.2811
 20
21.0266
 11
-15.4635
 21
21.0734
  0
LINE
  8
0
 10
-15.4635
 20
21.0734
 11
-15.6387
 21
21.1427
  0
LINE
  8
0
 10
-15.6387
 20
21.1427
 11
-15.8037
 21
21.2335
  0
LINE
  8
0
 10
-15.8037
 20
21.2335
 11
-15.9561
 21
21.3442
  0
LINE
  8
0
 10
-15.9561
 20
21.3442
 11
-16.0934
 21
21.4732
  0
LINE
  8
0
 10
-16.0934
 20
21.4732
 11
-16.2135
 21
21.6183
  0
LINE
  8
0
 10
-16.2135
 20
21.6183
 11
-16.3145
 21
21.7774
  0
LINE
  8
0
 10
-16.3145
 20
21.7774
 11
-16.3947
 21
21.9478
  0
LINE
  8
0
 10
-16.3947
 20
21.9478
 11
-16.4529
 21
22.127
  0
LINE
  8
0
 10
-16.4529
 20
22.127
 11
-16.4882
 21
22.312
  0
LINE
  8
0
 10
-16.4882
 20
22.312
 11
-16.5
 21
22.5
  0
LINE
  8
0
 10
-16.5
 20
22.5
 11
-16.4882
 21
22.688
  0
LINE
  8
0
 10
-16.4882
 20
22.688
 11
-16.4529
 21
22.873
  0
LINE
  8
0
 10
-16.4529
 20
22.873
 11
-16.3947
 21
23.0522
  0
LINE
  8
0
 10
-16.3947
 20
23.0522
 11
-16.3145
 21
23.2226
  0
LINE
  8
0
 10
-16.3145
 20
23.2226
 11
-16.2135
 21
23.3817
  0
LINE
  8
0
 10
-16.2135
 20
23.3817
 11
-16.0934
 21
23.5268
  0
LINE
  8
0
 10
-16.0934
 20
23.5268
 11
-15.9561
 21
23.6558
  0
LINE
  8
0
 10
-15.9561
 20
23.6558
 11
-15.8037
 21
23.7665
  0
LINE
  8
0
 10
-15.8037
 20
23.7665
 11
-15.6387
 21
23.8572
  0
LINE
  8
0
 10
-15.6387
 20
23.8572
 11
-15.4635
 21
23.9266
  0
LINE
  8
0
 10
-15.4635
 20
23.9266
 11
-15.2811
 21
23.9734
  0
LINE
  8
0
 10
-15.2811
 20
23.9734
 11
-15.0942
 21
23.997
  0
LINE
  8
0
 10
-15.0942
 20
23.997
 11
-14.9058
 21
23.997
  0
LINE
  8
0
 10
-14.9058
 20
23.997
 11
-14.7189
 21
23.9734
  0
LINE
  8
0
 10
-14.7189
 20
23.9734
 11
-14.5365
 21
23.9266
  0
LINE
  8
0
 10
-14.5365
 20
23.9266
 11
-14.3613
 21
23.8572
  0
LINE
  8
0
 10
-14.3613
 20
23.8572
 11
-14.1963
 21
23.7665
  0
LINE
  8
0
 10
-14.1963
 20
23.7665
 11
-14.0439
 21
23.6558
  0
LINE
  8
0
 10
-14.0439
 20
23.6558
 11
-13.9065
 21
23.5268
  0
LINE
  8
0
 10
-13.9065
 20
23.5268
 11
-13.7865
 21
23.3817
  0
LINE
  8
0
 10
-13.7865
 20
23.3817
 11
-13.6855
 21
23.2226
  0
LINE
  8
0
 10
-13.6855
 20
23.2226
 11
-13.6053
 21
23.0522
  0
LINE
  8
0
 10
-13.6053
 20
23.0522
 11
-13.5471
 21
22.873
  0
LINE
  8
0
 10
-13.5471
 20
22.873
 11
-13.5118
 21
22.688
  0
LINE
  8
0
 10
-13.5118
 20
22.688
 11
-13.5
 21
22.5
  0
LINE
  8
0
 10
-13.5
 20
22.5
 11
-13.5118
 21
22.312
  0
LINE
  8
0
 10
-13.5118
 20
22.312
 11
-13.5471
 21
22.127
  0
LINE
  8
0
 10
-13.5471
 20
22.127
 11
-13.6053
 21
21.9478
  0
LINE
  8
0
 10
-13.6053
 20
21.9478
 11
-13.6855
 21
21.7774
  0
LINE
  8
0
 10
-13.6855
 20
21.7774
 11
-13.7865
 21
21.6183
  0
LINE
  8
0
 10
-13.7865
 20
21.6183
 11
-13.9065
 21
21.4732
  0
LINE
  8
0
 10
-13.9065
 20
21.4732
 11
-14.0439
 21
21.3442
  0
LINE
  8
0
 10
-14.0439
 20
21.3442
 11
-14.1963
 21
21.2335
  0
LINE
  8
0
 10
-14.1963
 20
21.2335
 11
-14.3613
 21
21.1427
  0
LINE
  8
0
 10
-14.3613
 20
21.1427
 11
-14.5365
 21
21.0734
  0
LINE
  8
0
 10
-14.5365
 20
21.0734
 11
-14.7189
 21
21.0266
  0
LINE
  8
0
 10
-14.7189
 20
21.0266
 11
-14.9058
 21
21.003
  0
LINE
  8
0
 10
-14.9058
 20
21.003
 11
-15.0942
 21
21.003
  0
LINE
  8
0
 10
14.9058
 20
21.003
 11
14.7189
 21
21.0266
  0
LINE
  8
0
 10
14.7189
 20
21.0266
 11
14.5365
 21
21.0734
  0
LINE
  8
0
 10
14.5365
 20
21.0734
 11
14.3613
 21
21.1427
  0
LINE
  8
0
 10
14.3613
 20
21.1427
 11
14.1963
 21
21.2335
  0
LINE
  8
0
 10
14.1963
 20
21.2335
 11
14.0439
 21
21.3442
  0
LINE
  8
0
 10
14.0439
 20
21.3442
 11
13.9065
 21
21.4732
  0
LINE
  8
0
 10
13.9065
 20
21.4732
 11
13.7865
 21
21.6183
  0
LINE
  8
0
 10
13.7865
 20
21.6183
 11
13.6855
 21
21.7774
  0
LINE
  8
0
 10
13.6855
 20
21.7774
 11
13.6053
 21
21.9478
  0
LINE
  8
0
 10
13.6053
 20
21.9478
 11
13.5471
 21
22.127
  0
LINE
  8
0
 10
13.5471
 20
22.127
 11
13.5118
 21
22.312
  0
LINE
  8
0
 10
13.5118
 20
22.312
 11
13.5
 21
22.5
  0
LINE
  8
0
 10
13.5
 20
22.5
 11
13.5118
 21
22.688
  0
LINE
  8
0
 10
13.5118
 20
22.688
 11
13.5471
 21
22.873
  0
LINE
  8
0
 10
13.5471
 20
22.873
 11
13.6053
 21
23.0522
  0
LINE
  8
0
 10
13.6053
 20
23.0522
 11
13.6855
 21
23.2226
  0
LINE
  8
0
 10
13.6855
 20
23.2226
 11
13.7865
 21
23.3817
  0
LINE
  8
0
 10
13.7865
 20
23.3817
 11
13.9065
 21
23.5268
  0
LINE
  8
0
 10
13.9065
 20
23.5268
 11
14.0439
 21
23.6558
  0
LINE
  8
0
 10
14.0439
 20
23.6558
 11
14.1963
 21
23.7665
  0
LINE
  8
0
 10
14.1963
 20
23.7665
 11
14.3613
 21
23.8572
  0
LINE
  8
0
 10
14.3613
 20
23.8572
 11
14.5365
 21
23.9266
  0
LINE
  8
0
 10
14.5365
 20
23.9266
 11
14.7189
 21
23.9734
  0
LINE
  8
0
 10
14.7189
 20
23.9734
 11
14.9058
 21
23.997
  0
LINE
  8
0
 10
14.9058
 20
23.997
 11
15.0942
 21
23.997
  0
LINE
  8
0
 10
15.0942
 20
23.997
 11
15.2811
 21
23.9734
  0
LINE
  8
0
 10
15.2811
 20
23.9734
 11
15.4635
 21
23.9266
  0
LINE
  8
0
 10
15.4635
 20
23.9266
 11
15.6387
 21
23.8572
  0
LINE
  8
0
 10
15.6387
 20
23.8572
 11
15.8037
 21
23.7665
  0
LINE
  8
0
 10
15.8037
 20
23.7665
 11
15.9561
 21
23.6558
  0
LINE
  8
0
 10
15.9561
 20
23.6558
 11
16.0934
 21
23.5268
  0
LINE
  8
0
 10
16.0934
 20
23.5268
 11
16.2135
 21
23.3817
  0
LINE
  8
0
 10
16.2135
 20
23.3817
 11
16.3145
 21
23.2226
  0
LINE
  8
0
 10
16.3145
 20
23.2226
 11
16.3947
 21
23.0522
  0
LINE
  8
0
 10
16.3947
 20
23.0522
 11
16.4529
 21
22.873
  0
LINE
  8
0
 10
16.4529
 20
22.873
 11
16.4882
 21
22.688
  0
LINE
  8
0
 10
16.4882
 20
22.688
 11
16.5
 21
22.5
  0
LINE
  8
0
 10
16.5
 20
22.5
 11
16.4882
 21
22.312
  0
LINE
  8
0
 10
16.4882
 20
22.312
 11
16.4529
 21
22.127
  0
LINE
  8
0
 10
16.4529
 20
22.127
 11
16.3947
 21
21.9478
  0
LINE
  8
0
 10
16.3947
 20
21.9478
 11
16.3145
 21
21.7774
  0
LINE
  8
0
 10
16.3145
 20
21.7774
 11
16.2135
 21
21.6183
  0
LINE
  8
0
 10
16.2135
 20
21.6183
 11
16.0934
 21
21.4732
  0
LINE
  8
0
 10
16.0934
 20
21.4732
 11
15.9561
 21
21.3442
  0
LINE
  8
0
 10
15.9561
 20
21.3442
 11
15.8037
 21
21.2335
  0
LINE
  8
0
 10
15.8037
 20
21.2335
 11
15.6387
 21
21.1427
  0
LINE
  8
0
 10
15.6387
 20
21.1427
 11
15.4635
 21
21.0734
  0
LINE
  8
0
 10
15.4635
 20
21.0734
 11
15.2811
 21
21.0266
  0
LINE
  8
0
 10
15.2811
 20
21.0266
 11
15.0942
 21
21.003
  0
LINE
  8
0
 10
15.0942
 20
21.003
 11
14.9058
 21
21.003
  0
LINE
  8
0
 10
22.4058
 20
13.5029
 11
22.2189
 21
13.5266
  0
LINE
  8
0
 10
22.2189
 20
13.5266
 11
22.0365
 21
13.5734
  0
LINE
  8
0
 10
22.0365
 20
13.5734
 11
21.8613
 21
13.6427
  0
LINE
  8
0
 10
21.8613
 20
13.6427
 11
21.6963
 21
13.7335
  0
LINE
  8
0
 10
21.6963
 20
13.7335
 11
21.5439
 21
13.8442
  0
LINE
  8
0
 10
21.5439
 20
13.8442
 11
21.4065
 21
13.9732
  0
LINE
  8
0
 10
21.4065
 20
13.9732
 11
21.2865
 21
14.1183
  0
LINE
  8
0
 10
21.2865
 20
14.1183
 11
21.1855
 21
14.2774
  0
LINE
  8
0
 10
21.1855
 20
14.2774
 11
21.1053
 21
14.4478
  0
LINE
  8
0
 10
21.1053
 20
14.4478
 11
21.0471
 21
14.627
  0
LINE
  8
0
 10
21.0471
 20
14.627
 11
21.0118
 21
14.812
  0
LINE
  8
0
 10
21.0118
 20
14.812
 11
21
 21
15
  0
LINE
  8
0
 10
21
 20
15
 11
21.0118
 21
15.188
  0
LINE
  8
0
 10
21.0118
 20
15.188
 11
21.0471
 21
15.373
  0
LINE
  8
0
 10
21.0471
 20
15.373
 11
21.1053
 21
15.5522
  0
LINE
  8
0
 10
21.1053
 20
15.5522
 11
21.1855
 21
15.7226
  0
LINE
  8
0
 10
21.1855
 20
15.7226
 11
21.2865
 21
15.8817
  0
LINE
  8
0
 10
21.2865
 20
15.8817
 11
21.4065
 21
16.0268
  0
LINE
  8
0
 10
21.4065
 20
16.0268
 11
21.5439
 21
16.1558
  0
LINE
  8
0
 10
21.5439
 20
16.1558
 11
21.6963
 21
16.2665
  0
LINE
  8
0
 10
21.6963
 20
16.2665
 11
21.8613
 21
16.3572
  0
LINE
  8
0
 10
21.8613
 20
16.3572
 11
22.0365
 21
16.4266
  0
LINE
  8
0
 10
22.0365
 20
16.4266
 11
22.2189
 21
16.4734
  0
LINE
  8
0
 10
22.2189
 20
16.4734
 11
22.4058
 21
16.497
  0
LINE
  8
0
 10
22.4058
 20
16.497
 11
22.5942
 21
16.497
  0
LINE
  8
0
 10
22.5942
 20
16.497
 11
22.7811
 21
16.4734
  0
LINE
  8
0
 10
22.7811
 20
16.4734
 11
22.9635
 21
16.4266
  0
LINE
  8
0
 10
22.9635
 20
16.4266
 11
23.1387
 21
16.3572
  0
LINE
  8
0
 10
23.1387
 20
16.3572
 11
23.3037
 21
16.2665
  0
LINE
  8
0
 10
23.3037
 20
16.2665
 11
23.4561
 21
16.1558
  0
LINE
  8
0
 10
23.4561
 20
16.1558
 11
23.5934
 21
16.0268
  0
LINE
  8
0
 10
23.5934
 20
16.0268
 11
23.7135
 21
15.8817
  0
LINE
  8
0
 10
23.7135
 20
15.8817
 11
23.8145
 21
15.7226
  0
LINE
  8
0
 10
23.8145
 20
15.7226
 11
23.8947
 21
15.5522
  0
LINE
  8
0
 10
23.8947
 20
15.5522
 11
23.9529
 21
15.373
  0
LINE
  8
0
 10
23.9529
 20
15.373
 11
23.9882
 21
15.188
  0
LINE
  8
0
 10
23.9882
 20
15.188
 11
24
 21
15
  0
LINE
  8
0
 10
24
 20
15
 11
23.9882
 21
14.812
  0
LINE
  8
0
 10
23.9882
 20
14.812
 11
23.9529
 21
14.627
  0
LINE
  8
0
 10
23.9529
 20
14.627
 11
23.8947
 21
14.4478
  0
LINE
  8
0
 10
23.8947
 20
14.4478
 11
23.8145
 21
14.2774
  0
LINE
  8
0
 10
23.8145
 20
14.2774
 11
23.7135
 21
14.1183
  0
LINE
  8
0
 10
23.7135
 20
14.1183
 11
23.5934
 21
13.9732
  0
LINE
  8
0
 10
23.5934
 20
13.9732
 11
23.4561
 21
13.8442
  0
LINE
  8
0
 10
23.4561
 20
13.8442
 11
23.3037
 21
13.7335
  0
LINE
  8
0
 10
23.3037
 20
13.7335
 11
23.1387
 21
13.6427
  0
LINE
  8
0
 10
23.1387
 20
13.6427
 11
22.9635
 21
13.5734
  0
LINE
  8
0
 10
22.9635
 20
13.5734
 11
22.7811
 21
13.5266
  0
LINE
  8
0
 10
22.7811
 20
13.5266
 11
22.5942
 21
13.5029
  0
LINE
  8
0
 10
22.5942
 20
13.5029
 11
22.4058
 21
13.5029
  0
LINE
  8
0
 10
-22.5942
 20
13.5029
 11
-22.7811
 21
13.5266
  0
LINE
  8
0
 10
-22.7811
 20
13.5266
 11
-22.9635
 21
13.5734
  0
LINE
  8
0
 10
-22.9635
 20
13.5734
 11
-23.1387
 21
13.6427
  0
LINE
  8
0
 10
-23.1387
 20
13.6427
 11
-23.3037
 21
13.7335
  0
LINE
  8
0
 10
-23.3037
 20
13.7335
 11
-23.4561
 21
13.8442
  0
LINE
  8
0
 10
-23.4561
 20
13.8442
 11
-23.5934
 21
13.9732
  0
LINE
  8
0
 10
-23.5934
 20
13.9732
 11
-23.7135
 21
14.1183
  0
LINE
  8
0
 10
-23.7135
 20
14.1183
 11
-23.8145
 21
14.2774
  0
LINE
  8
0
 10
-23.8145
 20
14.2774
 11
-23.8947
 21
14.4478
  0
LINE
  8
0
 10
-23.8947
 20
14.4478
 11
-23.9529
 21
14.627
  0
LINE
  8
0
 10
-23.9529
 20
14.627
 11
-23.9882
 21
14.812
  0
LINE
  8
0
 10
-23.9882
 20
14.812
 11
-24
 21
15
  0
LINE
  8
0
 10
-24
 20
15
 11
-23.9882
 21
15.188
  0
LINE
  8
0
 10
-23.9882
 20
15.188
 11
-23.9529
 21
15.373
  0
LINE
  8
0
 10
-23.9529
 20
15.373
 11
-23.8947
 21
15.5522
  0
LINE
  8
0
 10
-23.8947
 20
15.5522
 11
-23.8145
 21
15.7226
  0
LINE
  8
0
 10
-23.8145
 20
15.7226
 11
-23.7135
 21
15.8817
  0
LINE
  8
0
 10
-23.7135
 20
15.8817
 11
-23.5934
 21
16.0268
  0
LINE
  8
0
 10
-23.5934
 20
16.0268
 11
-23.4561
 21
16.1558
  0
LINE
  8
0
 10
-23.4561
 20
16.1558
 11
-23.3037
 21
16.2665
  0
LINE
  8
0
 10
-23.3037
 20
16.2665
 11
-23.1387
 21
16.3572
  0
LINE
  8
0
 10
-23.1387
 20
16.3572
 11
-22.9635
 21
16.4266
  0
LINE
  8
0
 10
-22.9635
 20
16.4266
 11
-22.7811
 21
16.4734
  0
LINE
  8
0
 10
-22.7811
 20
16.4734
 11
-22.5942
 21
16.497
  0
LINE
  8
0
 10
-22.5942
 20
16.497
 11
-22.4058
 21
16.497
  0
LINE
  8
0
 10
-22.4058
 20
16.497
 11
-22.2189
 21
16.4734
  0
LINE
  8
0
 10
-22.2189
 20
16.4734
 11
-22.0365
 21
16.4266
  0
LINE
  8
0
 10
-22.0365
 20
16.4266
 11
-21.8613
 21
16.3572
  0
LINE
  8
0
 10
-21.8613
 20
16.3572
 11
-21.6963
 21
16.2665
  0
LINE
  8
0
 10
-21.6963
 20
16.2665
 11
-21.5439
 21
16.1558
  0
LINE
  8
0
 10
-21.5439
 20
16.1558
 11
-21.4065
 21
16.0268
  0
LINE
  8
0
 10
-21.4065
 20
16.0268
 11
-21.2865
 21
15.8817
  0
LINE
  8
0
 10
-21.2865
 20
15.8817
 11
-21.1855
 21
15.7226
  0
LINE
  8
0
 10
-21.1855
 20
15.7226
 11
-21.1053
 21
15.5522
  0
LINE
  8
0
 10
-21.1053
 20
15.5522
 11
-21.0471
 21
15.373
  0
LINE
  8
0
 10
-21.0471
 20
15.373
 11
-21.0118
 21
15.188
  0
LINE
  8
0
 10
-21.0118
 20
15.188
 11
-21
 21
15
  0
LINE
  8
0
 10
-21
 20
15
 11
-21.0118
 21
14.812
  0
LINE
  8
0
 10
-21.0118
 20
14.812
 11
-21.0471
 21
14.627
  0
LINE
  8
0
 10
-21.0471
 20
14.627
 11
-21.1053
 21
14.4478
  0
LINE
  8
0
 10
-21.1053
 20
14.4478
 11
-21.1855
 21
14.2774
  0
LINE
  8
0
 10
-21.1855
 20
14.2774
 11
-21.2865
 21
14.1183
  0
LINE
  8
0
 10
-21.2865
 20
14.1183
 11
-21.4065
 21
13.9732
  0
LINE
  8
0
 10
-21.4065
 20
13.9732
 11
-21.5439
 21
13.8442
  0
LINE
  8
0
 10
-21.5439
 20
13.8442
 11
-21.6963
 21
13.7335
  0
LINE
  8
0
 10
-21.6963
 20
13.7335
 11
-21.8613
 21
13.6427
  0
LINE
  8
0
 10
-21.8613
 20
13.6427
 11
-22.0365
 21
13.5734
  0
LINE
  8
0
 10
-22.0365
 20
13.5734
 11
-22.2189
 21
13.5266
  0
LINE
  8
0
 10
-22.2189
 20
13.5266
 11
-22.4058
 21
13.5029
  0
LINE
  8
0
 10
-22.4058
 20
13.5029
 11
-22.5942
 21
13.5029
  0
LINE
  8
0
 10
-13.23
 20
4.45999
 11
-13.23
 21
11.46
  0
LINE
  8
0
 10
-13.23
 20
11.46
 11
-9.23
 21
11.46
  0
LINE
  8
0
 10
-9.23
 20
11.46
 11
-9.23
 21
4.45999
  0
LINE
  8
0
 10
-9.23
 20
4.45999
 11
-13.23
 21
4.45999
  0
LINE
  8
0
 10
-22.6884
 20
4.50591
 11
-23.0621
 21
4.55313
  0
LINE
  8
0
 10
-23.0621
 20
4.55313
 11
-23.427
 21
4.64682
  0
LINE
  8
0
 10
-23.427
 20
4.64682
 11
-23.7773
 21
4.78551
  0
LINE
  8
0
 10
-23.7773
 20
4.78551
 11
-24.1075
 21
4.96701
  0
LINE
  8
0
 10
-24.1075
 20
4.96701
 11
-24.4123
 21
5.18845
  0
LINE
  8
0
 10
-24.4123
 20
5.18845
 11
-24.6869
 21
5.44635
  0
LINE
  8
0
 10
-24.6869
 20
5.44635
 11
-24.927
 21
5.73663
  0
LINE
  8
0
 10
-24.927
 20
5.73663
 11
-25.1289
 21
6.05473
  0
LINE
  8
0
 10
-25.1289
 20
6.05473
 11
-25.2893
 21
6.39561
  0
LINE
  8
0
 10
-25.2893
 20
6.39561
 11
-25.4057
 21
6.75392
  0
LINE
  8
0
 10
-25.4057
 20
6.75392
 11
-25.4763
 21
7.12399
  0
LINE
  8
0
 10
-25.4763
 20
7.12399
 11
-25.5
 21
7.5
  0
LINE
  8
0
 10
-25.5
 20
7.5
 11
-25.4763
 21
7.87599
  0
LINE
  8
0
 10
-25.4763
 20
7.87599
 11
-25.4057
 21
8.24606
  0
LINE
  8
0
 10
-25.4057
 20
8.24606
 11
-25.2893
 21
8.60437
  0
LINE
  8
0
 10
-25.2893
 20
8.60437
 11
-25.1289
 21
8.94525
  0
LINE
  8
0
 10
-25.1289
 20
8.94525
 11
-24.927
 21
9.26335
  0
LINE
  8
0
 10
-24.927
 20
9.26335
 11
-24.6869
 21
9.55363
  0
LINE
  8
0
 10
-24.6869
 20
9.55363
 11
-24.4123
 21
9.81154
  0
LINE
  8
0
 10
-24.4123
 20
9.81154
 11
-24.1075
 21
10.033
  0
LINE
  8
0
 10
-24.1075
 20
10.033
 11
-23.7773
 21
10.2145
  0
LINE
  8
0
 10
-23.7773
 20
10.2145
 11
-23.427
 21
10.3532
  0
LINE
  8
0
 10
-23.427
 20
10.3532
 11
-23.0621
 21
10.4469
  0
LINE
  8
0
 10
-23.0621
 20
10.4469
 11
-22.6884
 21
10.4941
  0
LINE
  8
0
 10
-22.6884
 20
10.4941
 11
-22.3116
 21
10.4941
  0
LINE
  8
0
 10
-22.3116
 20
10.4941
 11
-21.9379
 21
10.4469
  0
LINE
  8
0
 10
-21.9379
 20
10.4469
 11
-21.5729
 21
10.3532
  0
LINE
  8
0
 10
-21.5729
 20
10.3532
 11
-21.2227
 21
10.2145
  0
LINE
  8
0
 10
-21.2227
 20
10.2145
 11
-20.8925
 21
10.033
  0
LINE
  8
0
 10
-20.8925
 20
10.033
 11
-20.5877
 21
9.81154
  0
LINE
  8
0
 10
-20.5877
 20
9.81154
 11
-20.3131
 21
9.55363
  0
LINE
  8
0
 10
-20.3131
 20
9.55363
 11
-20.0729
 21
9.26335
  0
LINE
  8
0
 10
-20.0729
 20
9.26335
 11
-19.8711
 21
8.94525
  0
LINE
  8
0
 10
-19.8711
 20
8.94525
 11
-19.7107
 21
8.60437
  0
LINE
  8
0
 10
-19.7107
 20
8.60437
 11
-19.5942
 21
8.24606
  0
LINE
  8
0
 10
-19.5942
 20
8.24606
 11
-19.5237
 21
7.87599
  0
LINE
  8
0
 10
-19.5237
 20
7.87599
 11
-19.5
 21
7.5
  0
LINE
  8
0
 10
-19.5
 20
7.5
 11
-19.5237
 21
7.12399
  0
LINE
  8
0
 10
-19.5237
 20
7.12399
 11
-19.5942
 21
6.75392
  0
LINE
  8
0
 10
-19.5942
 20
6.75392
 11
-19.7107
 21
6.39561
  0
LINE
  8
0
 10
-19.7107
 20
6.39561
 11
-19.8711
 21
6.05473
  0
LINE
  8
0
 10
-19.8711
 20
6.05473
 11
-20.0729
 21
5.73663
  0
LINE
  8
0
 10
-20.0729
 20
5.73663
 11
-20.3131
 21
5.44635
  0
LINE
  8
0
 10
-20.3131
 20
5.44635
 11
-20.5877
 21
5.18845
  0
LINE
  8
0
 10
-20.5877
 20
5.18845
 11
-20.8925
 21
4.96701
  0
LINE
  8
0
 10
-20.8925
 20
4.96701
 11
-21.2227
 21
4.78551
  0
LINE
  8
0
 10
-21.2227
 20
4.78551
 11
-21.5729
 21
4.64682
  0
LINE
  8
0
 10
-21.5729
 20
4.64682
 11
-21.9379
 21
4.55313
  0
LINE
  8
0
 10
-21.9379
 20
4.55313
 11
-22.3116
 21
4.50591
  0
LINE
  8
0
 10
-22.3116
 20
4.50591
 11
-22.6884
 21
4.50591
  0
LINE
  8
0
 10
22.3116
 20
4.50591
 11
21.9379
 21
4.55313
  0
LINE
  8
0
 10
21.9379
 20
4.55313
 11
21.5729
 21
4.64682
  0
LINE
  8
0
 10
21.5729
 20
4.64682
 11
21.2227
 21
4.78551
  0
LINE
  8
0
 10
21.2227
 20
4.78551
 11
20.8925
 21
4.96701
  0
LINE
  8
0
 10
20.8925
 20
4.96701
 11
20.5877
 21
5.18845
  0
LINE
  8
0
 10
20.5877
 20
5.18845
 11
20.3131
 21
5.44635
  0
LINE
  8
0
 10
20.3131
 20
5.44635
 11
20.0729
 21
5.73663
  0
LINE
  8
0
 10
20.0729
 20
5.73663
 11
19.8711
 21
6.05473
  0
LINE
  8
0
 10
19.8711
 20
6.05473
 11
19.7107
 21
6.39561
  0
LINE
  8
0
 10
19.7107
 20
6.39561
 11
19.5942
 21
6.75392
  0
LINE
  8
0
 10
19.5942
 20
6.75392
 11
19.5237
 21
7.12399
  0
LINE
  8
0
 10
19.5237
 20
7.12399
 11
19.5
 21
7.5
  0
LINE
  8
0
 10
19.5
 20
7.5
 11
19.5237
 21
7.87599
  0
LINE
  8
0
 10
19.5237
 20
7.87599
 11
19.5942
 21
8.24606
  0
LINE
  8
0
 10
19.5942
 20
8.24606
 11
19.7107
 21
8.60437
  0
LINE
  8
0
 10
19.7107
 20
8.60437
 11
19.8711
 21
8.94525
  0
LINE
  8
0
 10
19.8711
 20
8.94525
 11
20.0729
 21
9.26335
  0
LINE
  8
0
 10
20.0729
 20
9.26335
 11
20.3131
 21
9.55363
  0
LINE
  8
0
 10
20.3131
 20
9.55363
 11
20.5877
 21
9.81154
  0
LINE
  8
0
 10
20.5877
 20
9.81154
 11
20.8925
 21
10.033
  0
LINE
  8
0
 10
20.8925
 20
10.033
 11
21.2227
 21
10.2145
  0
LINE
  8
0
 10
21.2227
 20
10.2145
 11
21.5729
 21
10.3532
  0
LINE
  8
0
 10
21.5729
 20
10.3532
 11
21.9379
 21
10.4469
  0
LINE
  8
0
 10
21.9379
 20
10.4469
 11
22.3116
 21
10.4941
  0
LINE
  8
0
 10
22.3116
 20
10.4941
 11
22.6884
 21
10.4941
  0
LINE
  8
0
 10
22.6884
 20
10.4941
 11
23.0621
 21
10.4469
  0
LINE
  8
0
 10
23.0621
 20
10.4469
 11
23.427
 21
10.3532
  0
LINE
  8
0
 10
23.427
 20
10.3532
 11
23.7773
 21
10.2145
  0
LINE
  8
0
 10
23.7773
 20
10.2145
 11
24.1075
 21
10.033
  0
LINE
  8
0
 10
24.1075
 20
10.033
 11
24.4123
 21
9.81154
  0
LINE
  8
0
 10
24.4123
 20
9.81154
 11
24.6869
 21
9.55363
  0
LINE
  8
0
 10
24.6869
 20
9.55363
 11
24.927
 21
9.26335
  0
LINE
  8
0
 10
24.927
 20
9.26335
 11
25.1289
 21
8.94525
  0
LINE
  8
0
 10
25.1289
 20
8.94525
 11
25.2893
 21
8.60437
  0
LINE
  8
0
 10
25.2893
 20
8.60437
 11
25.4057
 21
8.24606
  0
LINE
  8
0
 10
25.4057
 20
8.24606
 11
25.4763
 21
7.87599
  0
LINE
  8
0
 10
25.4763
 20
7.87599
 11
25.5
 21
7.5
  0
LINE
  8
0
 10
25.5
 20
7.5
 11
25.4763
 21
7.12399
  0
LINE
  8
0
 10
25.4763
 20
7.12399
 11
25.4057
 21
6.75392
  0
LINE
  8
0
 10
25.4057
 20
6.75392
 11
25.2893
 21
6.39561
  0
LINE
  8
0
 10
25.2893
 20
6.39561
 11
25.1289
 21
6.05473
  0
LINE
  8
0
 10
25.1289
 20
6.05473
 11
24.927
 21
5.73663
  0
LINE
  8
0
 10
24.927
 20
5.73663
 11
24.6869
 21
5.44635
  0
LINE
  8
0
 10
24.6869
 20
5.44635
 11
24.4123
 21
5.18845
  0
LINE
  8
0
 10
24.4123
 20
5.18845
 11
24.1075
 21
4.96701
  0
LINE
  8
0
 10
24.1075
 20
4.96701
 11
23.7773
 21
4.78551
  0
LINE
  8
0
 10
23.7773
 20
4.78551
 11
23.427
 21
4.64682
  0
LINE
  8
0
 10
23.427
 20
4.64682
 11
23.0621
 21
4.55313
  0
LINE
  8
0
 10
23.0621
 20
4.55313
 11
22.6884
 21
4.50591
  0
LINE
  8
0
 10
22.6884
 20
4.50591
 11
22.3116
 21
4.50591
  0
LINE
  8
0
 10
4.98499
 20
-11.285
 11
4.98499
 21
2.715
  0
LINE
  8
0
 10
4.98499
 20
2.715
 11
8.98499
 21
2.715
  0
LINE
  8
0
 10
8.98499
 20
2.715
 11
8.98499
 21
-11.285
  0
LINE
  8
0
 10
8.98499
 20
-11.285
 11
4.98499
 21
-11.285
  0
LINE
  8
0
 10
-8.98499
 20
-11.285
 11
-8.98499
 21
2.715
  0
LINE
  8
0
 10
-8.98499
 20
2.715
 11
-4.98499
 21
2.715
  0
LINE
  8
0
 10
-4.98499
 20
2.715
 11
-4.98499
 21
-11.285
  0
LINE
  8
0
 10
-4.98499
 20
-11.285
 11
-8.98499
 21
-11.285
  0
LINE
  8
0
 10
-22.5942
 20
-1.49704
 11
-22.7811
 21
-1.47342
  0
LINE
  8
0
 10
-22.7811
 20
-1.47342
 11
-22.9635
 21
-1.42657
  0
LINE
  8
0
 10
-22.9635
 20
-1.42657
 11
-23.1387
 21
-1.35724
  0
LINE
  8
0
 10
-23.1387
 20
-1.35724
 11
-23.3037
 21
-1.26648
  0
LINE
  8
0
 10
-23.3037
 20
-1.26648
 11
-23.4561
 21
-1.15576
  0
LINE
  8
0
 10
-23.4561
 20
-1.15576
 11
-23.5934
 21
-1.02681
  0
LINE
  8
0
 10
-23.5934
 20
-1.02681
 11
-23.7135
 21
-0.881668
  0
LINE
  8
0
 10
-23.7135
 20
-0.881668
 11
-23.8145
 21
-0.722626
  0
LINE
  8
0
 10
-23.8145
 20
-0.722626
 11
-23.8947
 21
-0.552185
  0
LINE
  8
0
 10
-23.8947
 20
-0.552185
 11
-23.9529
 21
-0.373032
  0
LINE
  8
0
 10
-23.9529
 20
-0.373032
 11
-23.9882
 21
-0.187988
  0
LINE
  8
0
 10
-23.9882
 20
-0.187988
 11
-24
 21
0
  0
LINE
  8
0
 10
-24
 20
0
 11
-23.9882
 21
0.187988
  0
LINE
  8
0
 10
-23.9882
 20
0.187988
 11
-23.9529
 21
0.373032
  0
LINE
  8
0
 10
-23.9529
 20
0.373032
 11
-23.8947
 21
0.552185
  0
LINE
  8
0
 10
-23.8947
 20
0.552185
 11
-23.8145
 21
0.722626
  0
LINE
  8
0
 10
-23.8145
 20
0.722626
 11
-23.7135
 21
0.881668
  0
LINE
  8
0
 10
-23.7135
 20
0.881668
 11
-23.5934
 21
1.02681
  0
LINE
  8
0
 10
-23.5934
 20
1.02681
 11
-23.4561
 21
1.15576
  0
LINE
  8
0
 10
-23.4561
 20
1.15576
 11
-23.3037
 21
1.26648
  0
LINE
  8
0
 10
-23.3037
 20
1.26648
 11
-23.1387
 21
1.35724
  0
LINE
  8
0
 10
-23.1387
 20
1.35724
 11
-22.9635
 21
1.42657
  0
LINE
  8
0
 10
-22.9635
 20
1.42657
 11
-22.7811
 21
1.47342
  0
LINE
  8
0
 10
-22.7811
 20
1.47342
 11
-22.5942
 21
1.49704
  0
LINE
  8
0
 10
-22.5942
 20
1.49704
 11
-22.4058
 21
1.49704
  0
LINE
  8
0
 10
-22.4058
 20
1.49704
 11
-22.2189
 21
1.47342
  0
LINE
  8
0
 10
-22.2189
 20
1.47342
 11
-22.0365
 21
1.42657
  0
LINE
  8
0
 10
-22.0365
 20
1.42657
 11
-21.8613
 21
1.35724
  0
LINE
  8
0
 10
-21.8613
 20
1.35724
 11
-21.6963
 21
1.26648
  0
LINE
  8
0
 10
-21.6963
 20
1.26648
 11
-21.5439
 21
1.15576
  0
LINE
  8
0
 10
-21.5439
 20
1.15576
 11
-21.4065
 21
1.02681
  0
LINE
  8
0
 10
-21.4065
 20
1.02681
 11
-21.2865
 21
0.881668
  0
LINE
  8
0
 10
-21.2865
 20
0.881668
 11
-21.1855
 21
0.722626
  0
LINE
  8
0
 10
-21.1855
 20
0.722626
 11
-21.1053
 21
0.552185
  0
LINE
  8
0
 10
-21.1053
 20
0.552185
 11
-21.0471
 21
0.373032
  0
LINE
  8
0
 10
-21.0471
 20
0.373032
 11
-21.0118
 21
0.187988
  0
LINE
  8
0
 10
-21.0118
 20
0.187988
 11
-21
 21
0
  0
LINE
  8
0
 10
-21
 20
0
 11
-21.0118
 21
-0.187988
  0
LINE
  8
0
 10
-21.0118
 20
-0.187988
 11
-21.0471
 21
-0.373032
  0
LINE
  8
0
 10
-21.0471
 20
-0.373032
 11
-21.1053
 21
-0.552185
  0
LINE
  8
0
 10
-21.1053
 20
-0.552185
 11
-21.1855
 21
-0.722626
  0
LINE
  8
0
 10
-21.1855
 20
-0.722626
 11
-21.2865
 21
-0.881668
  0
LINE
  8
0
 10
-21.2865
 20
-0.881668
 11
-21.4065
 21
-1.02681
  0
LINE
  8
0
 10
-21.4065
 20
-1.02681
 11
-21.5439
 21
-1.15576
  0
LINE
  8
0
 10
-21.5439
 20
-1.15576
 11
-21.6963
 21
-1.26648
  0
LINE
  8
0
 10
-21.6963
 20
-1.26648
 11
-21.8613
 21
-1.35724
  0
LINE
  8
0
 10
-21.8613
 20
-1.35724
 11
-22.0365
 21
-1.42657
  0
LINE
  8
0
 10
-22.0365
 20
-1.42657
 11
-22.2189
 21
-1.47342
  0
LINE
  8
0
 10
-22.2189
 20
-1.47342
 11
-22.4058
 21
-1.49704
  0
LINE
  8
0
 10
-22.4058
 20
-1.49704
 11
-22.5942
 21
-1.49704
  0
LINE
  8
0
 10
22.4058
 20
-1.49704
 11
22.2189
 21
-1.47342
  0
LINE
  8
0
 10
22.2189
 20
-1.47342
 11
22.0365
 21
-1.42657
  0
LINE
  8
0
 10
22.0365
 20
-1.42657
 11
21.8613
 21
-1.35724
  0
LINE
  8
0
 10
21.8613
 20
-1.35724
 11
21.6963
 21
-1.26648
  0
LINE
  8
0
 10
21.6963
 20
-1.26648
 11
21.5439
 21
-1.15576
  0
LINE
  8
0
 10
21.5439
 20
-1.15576
 11
21.4065
 21
-1.02681
  0
LINE
  8
0
 10
21.4065
 20
-1.02681
 11
21.2865
 21
-0.881668
  0
LINE
  8
0
 10
21.2865
 20
-0.881668
 11
21.1855
 21
-0.722626
  0
LINE
  8
0
 10
21.1855
 20
-0.722626
 11
21.1053
 21
-0.552185
  0
LINE
  8
0
 10
21.1053
 20
-0.552185
 11
21.0471
 21
-0.373032
  0
LINE
  8
0
 10
21.0471
 20
-0.373032
 11
21.0118
 21
-0.187988
  0
LINE
  8
0
 10
21.0118
 20
-0.187988
 11
21
 21
0
  0
LINE
  8
0
 10
21
 20
0
 11
21.0118
 21
0.187988
  0
LINE
  8
0
 10
21.0118
 20
0.187988
 11
21.0471
 21
0.373032
  0
LINE
  8
0
 10
21.0471
 20
0.373032
 11
21.1053
 21
0.552185
  0
LINE
  8
0
 10
21.1053
 20
0.552185
 11
21.1855
 21
0.722626
  0
LINE
  8
0
 10
21.1855
 20
0.722626
 11
21.2865
 21
0.881668
  0
LINE
  8
0
 10
21.2865
 20
0.881668
 11
21.4065
 21
1.02681
  0
LINE
  8
0
 10
21.4065
 20
1.02681
 11
21.5439
 21
1.15576
  0
LINE
  8
0
 10
21.5439
 20
1.15576
 11
21.6963
 21
1.26648
  0
LINE
  8
0
 10
21.6963
 20
1.26648
 11
21.8613
 21
1.35724
  0
LINE
  8
0
 10
21.8613
 20
1.35724
 11
22.0365
 21
1.42657
  0
LINE
  8
0
 10
22.0365
 20
1.42657
 11
22.2189
 21
1.47342
  0
LINE
  8
0
 10
22.2189
 20
1.47342
 11
22.4058
 21
1.49704
  0
LINE
  8
0
 10
22.4058
 20
1.49704
 11
22.5942
 21
1.49704
  0
LINE
  8
0
 10
22.5942
 20
1.49704
 11
22.7811
 21
1.47342
  0
LINE
  8
0
 10
22.7811
 20
1.47342
 11
22.9635
 21
1.42657
  0
LINE
  8
0
 10
22.9635
 20
1.42657
 11
23.1387
 21
1.35724
  0
LINE
  8
0
 10
23.1387
 20
1.35724
 11
23.3037
 21
1.26648
  0
LINE
  8
0
 10
23.3037
 20
1.26648
 11
23.4561
 21
1.15576
  0
LINE
  8
0
 10
23.4561
 20
1.15576
 11
23.5934
 21
1.02681
  0
LINE
  8
0
 10
23.5934
 20
1.02681
 11
23.7135
 21
0.881668
  0
LINE
  8
0
 10
23.7135
 20
0.881668
 11
23.8145
 21
0.722626
  0
LINE
  8
0
 10
23.8145
 20
0.722626
 11
23.8947
 21
0.552185
  0
LINE
  8
0
 10
23.8947
 20
0.552185
 11
23.9529
 21
0.373032
  0
LINE
  8
0
 10
23.9529
 20
0.373032
 11
23.9882
 21
0.187988
  0
LINE
  8
0
 10
23.9882
 20
0.187988
 11
24
 21
0
  0
LINE
  8
0
 10
24
 20
0
 11
23.9882
 21
-0.187988
  0
LINE
  8
0
 10
23.9882
 20
-0.187988
 11
23.9529
 21
-0.373032
  0
LINE
  8
0
 10
23.9529
 20
-0.373032
 11
23.8947
 21
-0.552185
  0
LINE
  8
0
 10
23.8947
 20
-0.552185
 11
23.8145
 21
-0.722626
  0
LINE
  8
0
 10
23.8145
 20
-0.722626
 11
23.7135
 21
-0.881668
  0
LINE
  8
0
 10
23.7135
 20
-0.881668
 11
23.5934
 21
-1.02681
  0
LINE
  8
0
 10
23.5934
 20
-1.02681
 11
23.4561
 21
-1.15576
  0
LINE
  8
0
 10
23.4561
 20
-1.15576
 11
23.3037
 21
-1.26648
  0
LINE
  8
0
 10
23.3037
 20
-1.26648
 11
23.1387
 21
-1.35724
  0
LINE
  8
0
 10
23.1387
 20
-1.35724
 11
22.9635
 21
-1.42657
  0
LINE
  8
0
 10
22.9635
 20
-1.42657
 11
22.7811
 21
-1.47342
  0
LINE
  8
0
 10
22.7811
 20
-1.47342
 11
22.5942
 21
-1.49704
  0
LINE
  8
0
 10
22.5942
 20
-1.49704
 11
22.4058
 21
-1.49704
  0
LINE
  8
0
 10
-22.6884
 20
-10.4941
 11
-23.0621
 21
-10.4469
  0
LINE
  8
0
 10
-23.0621
 20
-10.4469
 11
-23.427
 21
-10.3532
  0
LINE
  8
0
 10
-23.427
 20
-10.3532
 11
-23.7773
 21
-10.2145
  0
LINE
  8
0
 10
-23.7773
 20
-10.2145
 11
-24.1075
 21
-10.033
  0
LINE
  8
0
 10
-24.1075
 20
-10.033
 11
-24.4123
 21
-9.81154
  0
LINE
  8
0
 10
-24.4123
 20
-9.81154
 11
-24.6869
 21
-9.55363
  0
LINE
  8
0
 10
-24.6869
 20
-9.55363
 11
-24.927
 21
-9.26335
  0
LINE
  8
0
 10
-24.927
 20
-9.26335
 11
-25.1289
 21
-8.94525
  0
LINE
  8
0
 10
-25.1289
 20
-8.94525
 11
-25.2893
 21
-8.60437
  0
LINE
  8
0
 10
-25.2893
 20
-8.60437
 11
-25.4057
 21
-8.24606
  0
LINE
  8
0
 10
-25.4057
 20
-8.24606
 11
-25.4763
 21
-7.87599
  0
LINE
  8
0
 10
-25.4763
 20
-7.87599
 11
-25.5
 21
-7.5
  0
LINE
  8
0
 10
-25.5
 20
-7.5
 11
-25.4763
 21
-7.12399
  0
LINE
  8
0
 10
-25.4763
 20
-7.12399
 11
-25.4057
 21
-6.75392
  0
LINE
  8
0
 10
-25.4057
 20
-6.75392
 11
-25.2893
 21
-6.39561
  0
LINE
  8
0
 10
-25.2893
 20
-6.39561
 11
-25.1289
 21
-6.05473
  0
LINE
  8
0
 10
-25.1289
 20
-6.05473
 11
-24.927
 21
-5.73663
  0
LINE
  8
0
 10
-24.927
 20
-5.73663
 11
-24.6869
 21
-5.44635
  0
LINE
  8
0
 10
-24.6869
 20
-5.44635
 11
-24.4123
 21
-5.18845
  0
LINE
  8
0
 10
-24.4123
 20
-5.18845
 11
-24.1075
 21
-4.96701
  0
LINE
  8
0
 10
-24.1075
 20
-4.96701
 11
-23.7773
 21
-4.78551
  0
LINE
  8
0
 10
-23.7773
 20
-4.78551
 11
-23.427
 21
-4.64682
  0
LINE
  8
0
 10
-23.427
 20
-4.64682
 11
-23.0621
 21
-4.55313
  0
LINE
  8
0
 10
-23.0621
 20
-4.55313
 11
-22.6884
 21
-4.50591
  0
LINE
  8
0
 10
-22.6884
 20
-4.50591
 11
-22.3116
 21
-4.50591
  0
LINE
  8
0
 10
-22.3116
 20
-4.50591
 11
-21.9379
 21
-4.55313
  0
LINE
  8
0
 10
-21.9379
 20
-4.55313
 11
-21.5729
 21
-4.64682
  0
LINE
  8
0
 10
-21.5729
 20
-4.64682
 11
-21.2227
 21
-4.78551
  0
LINE
  8
0
 10
-21.2227
 20
-4.78551
 11
-20.8925
 21
-4.96701
  0
LINE
  8
0
 10
-20.8925
 20
-4.96701
 11
-20.5877
 21
-5.18845
  0
LINE
  8
0
 10
-20.5877
 20
-5.18845
 11
-20.3131
 21
-5.44635
  0
LINE
  8
0
 10
-20.3131
 20
-5.44635
 11
-20.0729
 21
-5.73663
  0
LINE
  8
0
 10
-20.0729
 20
-5.73663
 11
-19.8711
 21
-6.05473
  0
LINE
  8
0
 10
-19.8711
 20
-6.05473
 11
-19.7107
 21
-6.39561
  0
LINE
  8
0
 10
-19.7107
 20
-6.39561
 11
-19.5942
 21
-6.75392
  0
LINE
  8
0
 10
-19.5942
 20
-6.75392
 11
-19.5237
 21
-7.12399
  0
LINE
  8
0
 10
-19.5237
 20
-7.12399
 11
-19.5
 21
-7.5
  0
LINE
  8
0
 10
-19.5
 20
-7.5
 11
-19.5237
 21
-7.87599
  0
LINE
  8
0
 10
-19.5237
 20
-7.87599
 11
-19.5942
 21
-8.24606
  0
LINE
  8
0
 10
-19.5942
 20
-8.24606
 11
-19.7107
 21
-8.60437
  0
LINE
  8
0
 10
-19.7107
 20
-8.60437
 11
-19.8711
 21
-8.94525
  0
LINE
  8
0
 10
-19.8711
 20
-8.94525
 11
-20.0729
 21
-9.26335
  0
LINE
  8
0
 10
-20.0729
 20
-9.26335
 11
-20.3131
 21
-9.55363
  0
LINE
  8
0
 10
-20.3131
 20
-9.55363
 11
-20.5877
 21
-9.81154
  0
LINE
  8
0
 10
-20.5877
 20
-9.81154
 11
-20.8925
 21
-10.033
  0
LINE
  8
0
 10
-20.8925
 20
-10.033
 11
-21.2227
 21
-10.2145
  0
LINE
  8
0
 10
-21.2227
 20
-10.2145
 11
-21.5729
 21
-10.3532
  0
LINE
  8
0
 10
-21.5729
 20
-10.3532
 11
-21.9379
 21
-10.4469
  0
LINE
  8
0
 10
-21.9379
 20
-10.4469
 11
-22.3116
 21
-10.4941
  0
LINE
  8
0
 10
-22.3116
 20
-10.4941
 11
-22.6884
 21
-10.4941
  0
LINE
  8
0
 10
22.3116
 20
-10.4941
 11
21.9379
 21
-10.4469
  0
LINE
  8
0
 10
21.9379
 20
-10.4469
 11
21.5729
 21
-10.3532
  0
LINE
  8
0
 10
21.5729
 20
-10.3532
 11
21.2227
 21
-10.2145
  0
LINE
  8
0
 10
21.2227
 20
-10.2145
 11
20.8925
 21
-10.033
  0
LINE
  8
0
 10
20.8925
 20
-10.033
 11
20.5877
 21
-9.81154
  0
LINE
  8
0
 10
20.5877
 20
-9.81154
 11
20.3131
 21
-9.55363
  0
LINE
  8
0
 10
20.3131
 20
-9.55363
 11
20.0729
 21
-9.26335
  0
LINE
  8
0
 10
20.0729
 20
-9.26335
 11
19.8711
 21
-8.94525
  0
LINE
  8
0
 10
19.8711
 20
-8.94525
 11
19.7107
 21
-8.60437
  0
LINE
  8
0
 10
19.7107
 20
-8.60437
 11
19.5942
 21
-8.24606
  0
LINE
  8
0
 10
19.5942
 20
-8.24606
 11
19.5237
 21
-7.87599
  0
LINE
  8
0
 10
19.5237
 20
-7.87599
 11
19.5
 21
-7.5
  0
LINE
  8
0
 10
19.5
 20
-7.5
 11
19.5237
 21
-7.12399
  0
LINE
  8
0
 10
19.5237
 20
-7.12399
 11
19.5942
 21
-6.75392
  0
LINE
  8
0
 10
19.5942
 20
-6.75392
 11
19.7107
 21
-6.39561
  0
LINE
  8
0
 10
19.7107
 20
-6.39561
 11
19.8711
 21
-6.05473
  0
LINE
  8
0
 10
19.8711
 20
-6.05473
 11
20.0729
 21
-5.73663
  0
LINE
  8
0
 10
20.0729
 20
-5.73663
 11
20.3131
 21
-5.44635
  0
LINE
  8
0
 10
20.3131
 20
-5.44635
 11
20.5877
 21
-5.18845
  0
LINE
  8
0
 10
20.5877
 20
-5.18845
 11
20.8925
 21
-4.96701
  0
LINE
  8
0
 10
20.8925
 20
-4.96701
 11
21.2227
 21
-4.78551
  0
LINE
  8
0
 10
21.2227
 20
-4.78551
 11
21.5729
 21
-4.64682
  0
LINE
  8
0
 10
21.5729
 20
-4.64682
 11
21.9379
 21
-4.55313
  0
LINE
  8
0
 10
21.9379
 20
-4.55313
 11
22.3116
 21
-4.50591
  0
LINE
  8
0
 10
22.3116
 20
-4.50591
 11
22.6884
 21
-4.50591
  0
LINE
  8
0
 10
22.6884
 20
-4.50591
 11
23.0621
 21
-4.55313
  0
LINE
  8
0
 10
23.0621
 20
-4.55313
 11
23.427
 21
-4.64682
  0
LINE
  8
0
 10
23.427
 20
-4.64682
 11
23.7773
 21
-4.78551
  0
LINE
  8
0
 10
23.7773
 20
-4.78551
 11
24.1075
 21
-4.96701
  0
LINE
  8
0
 10
24.1075
 20
-4.96701
 11
24.4123
 21
-5.18845
  0
LINE
  8
0
 10
24.4123
 20
-5.18845
 11
24.6869
 21
-5.44635
  0
LINE
  8
0
 10
24.6869
 20
-5.44635
 11
24.927
 21
-5.73663
  0
LINE
  8
0
 10
24.927
 20
-5.73663
 11
25.1289
 21
-6.05473
  0
LINE
  8
0
 10
25.1289
 20
-6.05473
 11
25.2893
 21
-6.39561
  0
LINE
  8
0
 10
25.2893
 20
-6.39561
 11
25.4057
 21
-6.75392
  0
LINE
  8
0
 10
25.4057
 20
-6.75392
 11
25.4763
 21
-7.12399
  0
LINE
  8
0
 10
25.4763
 20
-7.12399
 11
25.5
 21
-7.5
  0
LINE
  8
0
 10
25.5
 20
-7.5
 11
25.4763
 21
-7.87599
  0
LINE
  8
0
 10
25.4763
 20
-7.87599
 11
25.4057
 21
-8.24606
  0
LINE
  8
0
 10
25.4057
 20
-8.24606
 11
25.2893
 21
-8.60437
  0
LINE
  8
0
 10
25.2893
 20
-8.60437
 11
25.1289
 21
-8.94525
  0
LINE
  8
0
 10
25.1289
 20
-8.94525
 11
24.927
 21
-9.26335
  0
LINE
  8
0
 10
24.927
 20
-9.26335
 11
24.6869
 21
-9.55363
  0
LINE
  8
0
 10
24.6869
 20
-9.55363
 11
24.4123
 21
-9.81154
  0
LINE
  8
0
 10
24.4123
 20
-9.81154
 11
24.1075
 21
-10.033
  0
LINE
  8
0
 10
24.1075
 20
-10.033
 11
23.7773
 21
-10.2145
  0
LINE
  8
0
 10
23.7773
 20
-10.2145
 11
23.427
 21
-10.3532
  0
LINE
  8
0
 10
23.427
 20
-10.3532
 11
23.0621
 21
-10.4469
  0
LINE
  8
0
 10
23.0621
 20
-10.4469
 11
22.6884
 21
-10.4941
  0
LINE
  8
0
 10
22.6884
 20
-10.4941
 11
22.3116
 21
-10.4941
  0
LINE
  8
0
 10
7.38696
 20
-16.7964
 11
7.1627
 21
-16.7681
  0
LINE
  8
0
 10
7.1627
 20
-16.7681
 11
6.94376
 21
-16.7119
  0
LINE
  8
0
 10
6.94376
 20
-16.7119
 11
6.7336
 21
-16.6287
  0
LINE
  8
0
 10
6.7336
 20
-16.6287
 11
6.53551
 21
-16.5198
  0
LINE
  8
0
 10
6.53551
 20
-16.5198
 11
6.35263
 21
-16.3869
  0
LINE
  8
0
 10
6.35263
 20
-16.3869
 11
6.18785
 21
-16.2322
  0
LINE
  8
0
 10
6.18785
 20
-16.2322
 11
6.04376
 21
-16.058
  0
LINE
  8
0
 10
6.04376
 20
-16.058
 11
5.92264
 21
-15.8671
  0
LINE
  8
0
 10
5.92264
 20
-15.8671
 11
5.8264
 21
-15.6626
  0
LINE
  8
0
 10
5.8264
 20
-15.6626
 11
5.75655
 21
-15.4476
  0
LINE
  8
0
 10
5.75655
 20
-15.4476
 11
5.71419
 21
-15.2256
  0
LINE
  8
0
 10
5.71419
 20
-15.2256
 11
5.7
 21
-15
  0
LINE
  8
0
 10
5.7
 20
-15
 11
5.71419
 21
-14.7744
  0
LINE
  8
0
 10
5.71419
 20
-14.7744
 11
5.75655
 21
-14.5524
  0
LINE
  8
0
 10
5.75655
 20
-14.5524
 11
5.8264
 21
-14.3374
  0
LINE
  8
0
 10
5.8264
 20
-14.3374
 11
5.92264
 21
-14.1328
  0
LINE
  8
0
 10
5.92264
 20
-14.1328
 11
6.04376
 21
-13.942
  0
LINE
  8
0
 10
6.04376
 20
-13.942
 11
6.18785
 21
-13.7678
  0
LINE
  8
0
 10
6.18785
 20
-13.7678
 11
6.35263
 21
-13.6131
  0
LINE
  8
0
 10
6.35263
 20
-13.6131
 11
6.53551
 21
-13.4802
  0
LINE
  8
0
 10
6.53551
 20
-13.4802
 11
6.7336
 21
-13.3713
  0
LINE
  8
0
 10
6.7336
 20
-13.3713
 11
6.94376
 21
-13.2881
  0
LINE
  8
0
 10
6.94376
 20
-13.2881
 11
7.1627
 21
-13.2319
  0
LINE
  8
0
 10
7.1627
 20
-13.2319
 11
7.38696
 21
-13.2036
  0
LINE
  8
0
 10
7.38696
 20
-13.2036
 11
7.61302
 21
-13.2036
  0
LINE
  8
0
 10
7.61302
 20
-13.2036
 11
7.83728
 21
-13.2319
  0
LINE
  8
0
 10
7.83728
 20
-13.2319
 11
8.05623
 21
-13.2881
  0
LINE
  8
0
 10
8.05623
 20
-13.2881
 11
8.26639
 21
-13.3713
  0
LINE
  8
0
 10
8.26639
 20
-13.3713
 11
8.46448
 21
-13.4802
  0
LINE
  8
0
 10
8.46448
 20
-13.4802
 11
8.64735
 21
-13.6131
  0
LINE
  8
0
 10
8.64735
 20
-13.6131
 11
8.81213
 21
-13.7678
  0
LINE
  8
0
 10
8.81213
 20
-13.7678
 11
8.95622
 21
-13.942
  0
LINE
  8
0
 10
8.95622
 20
-13.942
 11
9.07735
 21
-14.1328
  0
LINE
  8
0
 10
9.07735
 20
-14.1328
 11
9.17358
 21
-14.3374
  0
LINE
  8
0
 10
9.17358
 20
-14.3374
 11
9.24344
 21
-14.5524
  0
LINE
  8
0
 10
9.24344
 20
-14.5524
 11
9.2858
 21
-14.7744
  0
LINE
  8
0
 10
9.2858
 20
-14.7744
 11
9.29999
 21
-15
  0
LINE
  8
0
 10
9.29999
 20
-15
 11
9.2858
 21
-15.2256
  0
LINE
  8
0
 10
9.2858
 20
-15.2256
 11
9.24344
 21
-15.4476
  0
LINE
  8
0
 10
9.24344
 20
-15.4476
 11
9.17358
 21
-15.6626
  0
LINE
  8
0
 10
9.17358
 20
-15.6626
 11
9.07735
 21
-15.8671
  0
LINE
  8
0
 10
9.07735
 20
-15.8671
 11
8.95622
 21
-16.058
  0
LINE
  8
0
 10
8.95622
 20
-16.058
 11
8.81213
 21
-16.2322
  0
LINE
  8
0
 10
8.81213
 20
-16.2322
 11
8.64735
 21
-16.3869
  0
LINE
  8
0
 10
8.64735
 20
-16.3869
 11
8.46448
 21
-16.5198
  0
LINE
  8
0
 10
8.46448
 20
-16.5198
 11
8.26639
 21
-16.6287
  0
LINE
  8
0
 10
8.26639
 20
-16.6287
 11
8.05623
 21
-16.7119
  0
LINE
  8
0
 10
8.05623
 20
-16.7119
 11
7.83728
 21
-16.7681
  0
LINE
  8
0
 10
7.83728
 20
-16.7681
 11
7.61302
 21
-16.7964
  0
LINE
  8
0
 10
7.61302
 20
-16.7964
 11
7.38696
 21
-16.7964
  0
LINE
  8
0
 10
-7.61302
 20
-16.7964
 11
-7.83728
 21
-16.7681
  0
LINE
  8
0
 10
-7.83728
 20
-16.7681
 11
-8.05623
 21
-16.7119
  0
LINE
  8
0
 10
-8.05623
 20
-16.7119
 11
-8.26639
 21
-16.6287
  0
LINE
  8
0
 10
-8.26639
 20
-16.6287
 11
-8.46448
 21
-16.5198
  0
LINE
  8
0
 10
-8.46448
 20
-16.5198
 11
-8.64735
 21
-16.3869
  0
LINE
  8
0
 10
-8.64735
 20
-16.3869
 11
-8.81213
 21
-16.2322
  0
LINE
  8
0
 10
-8.81213
 20
-16.2322
 11
-8.95622
 21
-16.058
  0
LINE
  8
0
 10
-8.95622
 20
-16.058
 11
-9.07735
 21
-15.8671
  0
LINE
  8
0
 10
-9.07735
 20
-15.8671
 11
-9.17358
 21
-15.6626
  0
LINE
  8
0
 10
-9.17358
 20
-15.6626
 11
-9.24344
 21
-15.4476
  0
LINE
  8
0
 10
-9.24344
 20
-15.4476
 11
-9.2858
 21
-15.2256
  0
LINE
  8
0
 10
-9.2858
 20
-15.2256
 11
-9.29999
 21
-15
  0
LINE
  8
0
 10
-9.29999
 20
-15
 11
-9.2858
 21
-14.7744
  0
LINE
  8
0
 10
-9.2858
 20
-14.7744
 11
-9.24344
 21
-14.5524
  0
LINE
  8
0
 10
-9.24344
 20
-14.5524
 11
-9.17358
 21
-14.3374
  0
LINE
  8
0
 10
-9.17358
 20
-14.3374
 11
-9.07735
 21
-14.1328
  0
LINE
  8
0
 10
-9.07735
 20
-14.1328
 11
-8.95622
 21
-13.942
  0
LINE
  8
0
 10
-8.95622
 20
-13.942
 11
-8.81213
 21
-13.7678
  0
LINE
  8
0
 10
-8.81213
 20
-13.7678
 11
-8.64735
 21
-13.6131
  0
LINE
  8
0
 10
-8.64735
 20
-13.6131
 11
-8.46448
 21
-13.4802
  0
LINE
  8
0
 10
-8.46448
 20
-13.4802
 11
-8.26639
 21
-13.3713
  0
LINE
  8
0
 10
-8.26639
 20
-13.3713
 11
-8.05623
 21
-13.2881
  0
LINE
  8
0
 10
-8.05623
 20
-13.2881
 11
-7.83728
 21
-13.2319
  0
LINE
  8
0
 10
-7.83728
 20
-13.2319
 11
-7.61302
 21
-13.2036
  0
LINE
  8
0
 10
-7.61302
 20
-13.2036
 11
-7.38696
 21
-13.2036
  0
LINE
  8
0
 10
-7.38696
 20
-13.2036
 11
-7.1627
 21
-13.2319
  0
LINE
  8
0
 10
-7.1627
 20
-13.2319
 11
-6.94376
 21
-13.2881
  0
LINE
  8
0
 10
-6.94376
 20
-13.2881
 11
-6.7336
 21
-13.3713
  0
LINE
  8
0
 10
-6.7336
 20
-13.3713
 11
-6.53551
 21
-13.4802
  0
LINE
  8
0
 10
-6.53551
 20
-13.4802
 11
-6.35263
 21
-13.6131
  0
LINE
  8
0
 10
-6.35263
 20
-13.6131
 11
-6.18785
 21
-13.7678
  0
LINE
  8
0
 10
-6.18785
 20
-13.7678
 11
-6.04376
 21
-13.942
  0
LINE
  8
0
 10
-6.04376
 20
-13.942
 11
-5.92264
 21
-14.1328
  0
LINE
  8
0
 10
-5.92264
 20
-14.1328
 11
-5.8264
 21
-14.3374
  0
LINE
  8
0
 10
-5.8264
 20
-14.3374
 11
-5.75655
 21
-14.5524
  0
LINE
  8
0
 10
-5.75655
 20
-14.5524
 11
-5.71419
 21
-14.7744
  0
LINE
  8
0
 10
-5.71419
 20
-14.7744
 11
-5.7
 21
-15
  0
LINE
  8
0
 10
-5.7
 20
-15
 11
-5.71419
 21
-15.2256
  0
LINE
  8
0
 10
-5.71419
 20
-15.2256
 11
-5.75655
 21
-15.4476
  0
LINE
  8
0
 10
-5.75655
 20
-15.4476
 11
-5.8264
 21
-15.6626
  0
LINE
  8
0
 10
-5.8264
 20
-15.6626
 11
-5.92264
 21
-15.8671
  0
LINE
  8
0
 10
-5.92264
 20
-15.8671
 11
-6.04376
 21
-16.058
  0
LINE
  8
0
 10
-6.04376
 20
-16.058
 11
-6.18785
 21
-16.2322
  0
LINE
  8
0
 10
-6.18785
 20
-16.2322
 11
-6.35263
 21
-16.3869
  0
LINE
  8
0
 10
-6.35263
 20
-16.3869
 11
-6.53551
 21
-16.5198
  0
LINE
  8
0
 10
-6.53551
 20
-16.5198
 11
-6.7336
 21
-16.6287
  0
LINE
  8
0
 10
-6.7336
 20
-16.6287
 11
-6.94376
 21
-16.7119
  0
LINE
  8
0
 10
-6.94376
 20
-16.7119
 11
-7.1627
 21
-16.7681
  0
LINE
  8
0
 10
-7.1627
 20
-16.7681
 11
-7.38696
 21
-16.7964
  0
LINE
  8
0
 10
-7.38696
 20
-16.7964
 11
-7.61302
 21
-16.7964
  0
LINE
  8
0
 10
22.4058
 20
-16.497
 11
22.2189
 21
-16.4734
  0
LINE
  8
0
 10
22.2189
 20
-16.4734
 11
22.0365
 21
-16.4266
  0
LINE
  8
0
 10
22.0365
 20
-16.4266
 11
21.8613
 21
-16.3572
  0
LINE
  8
0
 10
21.8613
 20
-16.3572
 11
21.6963
 21
-16.2665
  0
LINE
  8
0
 10
21.6963
 20
-16.2665
 11
21.5439
 21
-16.1558
  0
LINE
  8
0
 10
21.5439
 20
-16.1558
 11
21.4065
 21
-16.0268
  0
LINE
  8
0
 10
21.4065
 20
-16.0268
 11
21.2865
 21
-15.8817
  0
LINE
  8
0
 10
21.2865
 20
-15.8817
 11
21.1855
 21
-15.7226
  0
LINE
  8
0
 10
21.1855
 20
-15.7226
 11
21.1053
 21
-15.5522
  0
LINE
  8
0
 10
21.1053
 20
-15.5522
 11
21.0471
 21
-15.373
  0
LINE
  8
0
 10
21.0471
 20
-15.373
 11
21.0118
 21
-15.188
  0
LINE
  8
0
 10
21.0118
 20
-15.188
 11
21
 21
-15
  0
LINE
  8
0
 10
21
 20
-15
 11
21.0118
 21
-14.812
  0
LINE
  8
0
 10
21.0118
 20
-14.812
 11
21.0471
 21
-14.627
  0
LINE
  8
0
 10
21.0471
 20
-14.627
 11
21.1053
 21
-14.4478
  0
LINE
  8
0
 10
21.1053
 20
-14.4478
 11
21.1855
 21
-14.2774
  0
LINE
  8
0
 10
21.1855
 20
-14.2774
 11
21.2865
 21
-14.1183
  0
LINE
  8
0
 10
21.2865
 20
-14.1183
 11
21.4065
 21
-13.9732
  0
LINE
  8
0
 10
21.4065
 20
-13.9732
 11
21.5439
 21
-13.8442
  0
LINE
  8
0
 10
21.5439
 20
-13.8442
 11
21.6963
 21
-13.7335
  0
LINE
  8
0
 10
21.6963
 20
-13.7335
 11
21.8613
 21
-13.6427
  0
LINE
  8
0
 10
21.8613
 20
-13.6427
 11
22.0365
 21
-13.5734
  0
LINE
  8
0
 10
22.0365
 20
-13.5734
 11
22.2189
 21
-13.5266
  0
LINE
  8
0
 10
22.2189
 20
-13.5266
 11
22.4058
 21
-13.5029
  0
LINE
  8
0
 10
22.4058
 20
-13.5029
 11
22.5942
 21
-13.5029
  0
LINE
  8
0
 10
22.5942
 20
-13.5029
 11
22.7811
 21
-13.5266
  0
LINE
  8
0
 10
22.7811
 20
-13.5266
 11
22.9635
 21
-13.5734
  0
LINE
  8
0
 10
22.9635
 20
-13.5734
 11
23.1387
 21
-13.6427
  0
LINE
  8
0
 10
23.1387
 20
-13.6427
 11
23.3037
 21
-13.7335
  0
LINE
  8
0
 10
23.3037
 20
-13.7335
 11
23.4561
 21
-13.8442
  0
LINE
  8
0
 10
23.4561
 20
-13.8442
 11
23.5934
 21
-13.9732
  0
LINE
  8
0
 10
23.5934
 20
-13.9732
 11
23.7135
 21
-14.1183
  0
LINE
  8
0
 10
23.7135
 20
-14.1183
 11
23.8145
 21
-14.2774
  0
LINE
  8
0
 10
23.8145
 20
-14.2774
 11
23.8947
 21
-14.4478
  0
LINE
  8
0
 10
23.8947
 20
-14.4478
 11
23.9529
 21
-14.627
  0
LINE
  8
0
 10
23.9529
 20
-14.627
 11
23.9882
 21
-14.812
  0
LINE
  8
0
 10
23.9882
 20
-14.812
 11
24
 21
-15
  0
LINE
  8
0
 10
24
 20
-15
 11
23.9882
 21
-15.188
  0
LINE
  8
0
 10
23.9882
 20
-15.188
 11
23.9529
 21
-15.373
  0
LINE
  8
0
 10
23.9529
 20
-15.373
 11
23.8947
 21
-15.5522
  0
LINE
  8
0
 10
23.8947
 20
-15.5522
 11
23.8145
 21
-15.7226
  0
LINE
  8
0
 10
23.8145
 20
-15.7226
 11
23.7135
 21
-15.8817
  0
LINE
  8
0
 10
23.7135
 20
-15.8817
 11
23.5934
 21
-16.0268
  0
LINE
  8
0
 10
23.5934
 20
-16.0268
 11
23.4561
 21
-16.1558
  0
LINE
  8
0
 10
23.4561
 20
-16.1558
 11
23.3037
 21
-16.2665
  0
LINE
  8
0
 10
23.3037
 20
-16.2665
 11
23.1387
 21
-16.3572
  0
LINE
  8
0
 10
23.1387
 20
-16.3572
 11
22.9635
 21
-16.4266
  0
LINE
  8
0
 10
22.9635
 20
-16.4266
 11
22.7811
 21
-16.4734
  0
LINE
  8
0
 10
22.7811
 20
-16.4734
 11
22.5942
 21
-16.497
  0
LINE
  8
0
 10
22.5942
 20
-16.497
 11
22.4058
 21
-16.497
  0
LINE
  8
0
 10
-22.5942
 20
-16.497
 11
-22.7811
 21
-16.4734
  0
LINE
  8
0
 10
-22.7811
 20
-16.4734
 11
-22.9635
 21
-16.4266
  0
LINE
  8
0
 10
-22.9635
 20
-16.4266
 11
-23.1387
 21
-16.3572
  0
LINE
  8
0
 10
-23.1387
 20
-16.3572
 11
-23.3037
 21
-16.2665
  0
LINE
  8
0
 10
-23.3037
 20
-16.2665
 11
-23.4561
 21
-16.1558
  0
LINE
  8
0
 10
-23.4561
 20
-16.1558
 11
-23.5934
 21
-16.0268
  0
LINE
  8
0
 10
-23.5934
 20
-16.0268
 11
-23.7135
 21
-15.8817
  0
LINE
  8
0
 10
-23.7135
 20
-15.8817
 11
-23.8145
 21
-15.7226
  0
LINE
  8
0
 10
-23.8145
 20
-15.7226
 11
-23.8947
 21
-15.5522
  0
LINE
  8
0
 10
-23.8947
 20
-15.5522
 11
-23.9529
 21
-15.373
  0
LINE
  8
0
 10
-23.9529
 20
-15.373
 11
-23.9882
 21
-15.188
  0
LINE
  8
0
 10
-23.9882
 20
-15.188
 11
-24
 21
-15
  0
LINE
  8
0
 10
-24
 20
-15
 11
-23.9882
 21
-14.812
  0
LINE
  8
0
 10
-23.9882
 20
-14.812
 11
-23.9529
 21
-14.627
  0
LINE
  8
0
 10
-23.9529
 20
-14.627
 11
-23.8947
 21
-14.4478
  0
LINE
  8
0
 10
-23.8947
 20
-14.4478
 11
-23.8145
 21
-14.2774
  0
LINE
  8
0
 10
-23.8145
 20
-14.2774
 11
-23.7135
 21
-14.1183
  0
LINE
  8
0
 10
-23.7135
 20
-14.1183
 11
-23.5934
 21
-13.9732
  0
LINE
  8
0
 10
-23.5934
 20
-13.9732
 11
-23.4561
 21
-13.8442
  0
LINE
  8
0
 10
-23.4561
 20
-13.8442
 11
-23.3037
 21
-13.7335
  0
LINE
  8
0
 10
-23.3037
 20
-13.7335
 11
-23.1387
 21
-13.6427
  0
LINE
  8
0
 10
-23.1387
 20
-13.6427
 11
-22.9635
 21
-13.5734
  0
LINE
  8
0
 10
-22.9635
 20
-13.5734
 11
-22.7811
 21
-13.5266
  0
LINE
  8
0
 10
-22.7811
 20
-13.5266
 11
-22.5942
 21
-13.5029
  0
LINE
  8
0
 10
-22.5942
 20
-13.5029
 11
-22.4058
 21
-13.5029
  0
LINE
  8
0
 10
-22.4058
 20
-13.5029
 11
-22.2189
 21
-13.5266
  0
LINE
  8
0
 10
-22.2189
 20
-13.5266
 11
-22.0365
 21
-13.5734
  0
LINE
  8
0
 10
-22.0365
 20
-13.5734
 11
-21.8613
 21
-13.6427
  0
LINE
  8
0
 10
-21.8613
 20
-13.6427
 11
-21.6963
 21
-13.7335
  0
LINE
  8
0
 10
-21.6963
 20
-13.7335
 11
-21.5439
 21
-13.8442
  0
LINE
  8
0
 10
-21.5439
 20
-13.8442
 11
-21.4065
 21
-13.9732
  0
LINE
  8
0
 10
-21.4065
 20
-13.9732
 11
-21.2865
 21
-14.1183
  0
LINE
  8
0
 10
-21.2865
 20
-14.1183
 11
-21.1855
 21
-14.2774
  0
LINE
  8
0
 10
-21.1855
 20
-14.2774
 11
-21.1053
 21
-14.4478
  0
LINE
  8
0
 10
-21.1053
 20
-14.4478
 11
-21.0471
 21
-14.627
  0
LINE
  8
0
 10
-21.0471
 20
-14.627
 11
-21.0118
 21
-14.812
  0
LINE
  8
0
 10
-21.0118
 20
-14.812
 11
-21
 21
-15
  0
LINE
  8
0
 10
-21
 20
-15
 11
-21.0118
 21
-15.188
  0
LINE
  8
0
 10
-21.0118
 20
-15.188
 11
-21.0471
 21
-15.373
  0
LINE
  8
0
 10
-21.0471
 20
-15.373
 11
-21.1053
 21
-15.5522
  0
LINE
  8
0
 10
-21.1053
 20
-15.5522
 11
-21.1855
 21
-15.7226
  0
LINE
  8
0
 10
-21.1855
 20
-15.7226
 11
-21.2865
 21
-15.8817
  0
LINE
  8
0
 10
-21.2865
 20
-15.8817
 11
-21.4065
 21
-16.0268
  0
LINE
  8
0
 10
-21.4065
 20
-16.0268
 11
-21.5439
 21
-16.1558
  0
LINE
  8
0
 10
-21.5439
 20
-16.1558
 11
-21.6963
 21
-16.2665
  0
LINE
  8
0
 10
-21.6963
 20
-16.2665
 11
-21.8613
 21
-16.3572
  0
LINE
  8
0
 10
-21.8613
 20
-16.3572
 11
-22.0365
 21
-16.4266
  0
LINE
  8
0
 10
-22.0365
 20
-16.4266
 11
-22.2189
 21
-16.4734
  0
LINE
  8
0
 10
-22.2189
 20
-16.4734
 11
-22.4058
 21
-16.497
  0
LINE
  8
0
 10
-22.4058
 20
-16.497
 11
-22.5942
 21
-16.497
  0
LINE
  8
0
 10
7.31161
 20
-25.4941
 11
6.93785
 21
-25.4469
  0
LINE
  8
0
 10
6.93785
 20
-25.4469
 11
6.57294
 21
-25.3532
  0
LINE
  8
0
 10
6.57294
 20
-25.3532
 11
6.22266
 21
-25.2145
  0
LINE
  8
0
 10
6.22266
 20
-25.2145
 11
5.89252
 21
-25.033
  0
LINE
  8
0
 10
5.89252
 20
-25.033
 11
5.58772
 21
-24.8115
  0
LINE
  8
0
 10
5.58772
 20
-24.8115
 11
5.31308
 21
-24.5536
  0
LINE
  8
0
 10
5.31308
 20
-24.5536
 11
5.07294
 21
-24.2634
  0
LINE
  8
0
 10
5.07294
 20
-24.2634
 11
4.87108
 21
-23.9453
  0
LINE
  8
0
 10
4.87108
 20
-23.9453
 11
4.71066
 21
-23.6044
  0
LINE
  8
0
 10
4.71066
 20
-23.6044
 11
4.59424
 21
-23.2461
  0
LINE
  8
0
 10
4.59424
 20
-23.2461
 11
4.52365
 21
-22.876
  0
LINE
  8
0
 10
4.52365
 20
-22.876
 11
4.5
 21
-22.5
  0
LINE
  8
0
 10
4.5
 20
-22.5
 11
4.52365
 21
-22.124
  0
LINE
  8
0
 10
4.52365
 20
-22.124
 11
4.59424
 21
-21.7539
  0
LINE
  8
0
 10
4.59424
 20
-21.7539
 11
4.71066
 21
-21.3956
  0
LINE
  8
0
 10
4.71066
 20
-21.3956
 11
4.87108
 21
-21.0547
  0
LINE
  8
0
 10
4.87108
 20
-21.0547
 11
5.07294
 21
-20.7366
  0
LINE
  8
0
 10
5.07294
 20
-20.7366
 11
5.31308
 21
-20.4464
  0
LINE
  8
0
 10
5.31308
 20
-20.4464
 11
5.58772
 21
-20.1884
  0
LINE
  8
0
 10
5.58772
 20
-20.1884
 11
5.89252
 21
-19.967
  0
LINE
  8
0
 10
5.89252
 20
-19.967
 11
6.22266
 21
-19.7855
  0
LINE
  8
0
 10
6.22266
 20
-19.7855
 11
6.57294
 21
-19.6468
  0
LINE
  8
0
 10
6.57294
 20
-19.6468
 11
6.93785
 21
-19.5531
  0
LINE
  8
0
 10
6.93785
 20
-19.5531
 11
7.31161
 21
-19.5059
  0
LINE
  8
0
 10
7.31161
 20
-19.5059
 11
7.68837
 21
-19.5059
  0
LINE
  8
0
 10
7.68837
 20
-19.5059
 11
8.06213
 21
-19.5531
  0
LINE
  8
0
 10
8.06213
 20
-19.5531
 11
8.42705
 21
-19.6468
  0
LINE
  8
0
 10
8.42705
 20
-19.6468
 11
8.77733
 21
-19.7855
  0
LINE
  8
0
 10
8.77733
 20
-19.7855
 11
9.10747
 21
-19.967
  0
LINE
  8
0
 10
9.10747
 20
-19.967
 11
9.41226
 21
-20.1884
  0
LINE
  8
0
 10
9.41226
 20
-20.1884
 11
9.6869
 21
-20.4464
  0
LINE
  8
0
 10
9.6869
 20
-20.4464
 11
9.92705
 21
-20.7366
  0
LINE
  8
0
 10
9.92705
 20
-20.7366
 11
10.1289
 21
-21.0547
  0
LINE
  8
0
 10
10.1289
 20
-21.0547
 11
10.2893
 21
-21.3956
  0
LINE
  8
0
 10
10.2893
 20
-21.3956
 11
10.4057
 21
-21.7539
  0
LINE
  8
0
 10
10.4057
 20
-21.7539
 11
10.4763
 21
-22.124
  0
LINE
  8
0
 10
10.4763
 20
-22.124
 11
10.5
 21
-22.5
  0
LINE
  8
0
 10
10.5
 20
-22.5
 11
10.4763
 21
-22.876
  0
LINE
  8
0
 10
10.4763
 20
-22.876
 11
10.4057
 21
-23.2461
  0
LINE
  8
0
 10
10.4057
 20
-23.2461
 11
10.2893
 21
-23.6044
  0
LINE
  8
0
 10
10.2893
 20
-23.6044
 11
10.1289
 21
-23.9453
  0
LINE
  8
0
 10
10.1289
 20
-23.9453
 11
9.92705
 21
-24.2634
  0
LINE
  8
0
 10
9.92705
 20
-24.2634
 11
9.6869
 21
-24.5536
  0
LINE
  8
0
 10
9.6869
 20
-24.5536
 11
9.41226
 21
-24.8115
  0
LINE
  8
0
 10
9.41226
 20
-24.8115
 11
9.10747
 21
-25.033
  0
LINE
  8
0
 10
9.10747
 20
-25.033
 11
8.77733
 21
-25.2145
  0
LINE
  8
0
 10
8.77733
 20
-25.2145
 11
8.42705
 21
-25.3532
  0
LINE
  8
0
 10
8.42705
 20
-25.3532
 11
8.06213
 21
-25.4469
  0
LINE
  8
0
 10
8.06213
 20
-25.4469
 11
7.68837
 21
-25.4941
  0
LINE
  8
0
 10
7.68837
 20
-25.4941
 11
7.31161
 21
-25.4941
  0
LINE
  8
0
 10
22.3116
 20
-25.4941
 11
21.9379
 21
-25.4469
  0
LINE
  8
0
 10
21.9379
 20
-25.4469
 11
21.5729
 21
-25.3532
  0
LINE
  8
0
 10
21.5729
 20
-25.3532
 11
21.2227
 21
-25.2145
  0
LINE
  8
0
 10
21.2227
 20
-25.2145
 11
20.8925
 21
-25.033
  0
LINE
  8
0
 10
20.8925
 20
-25.033
 11
20.5877
 21
-24.8115
  0
LINE
  8
0
 10
20.5877
 20
-24.8115
 11
20.3131
 21
-24.5536
  0
LINE
  8
0
 10
20.3131
 20
-24.5536
 11
20.0729
 21
-24.2634
  0
LINE
  8
0
 10
20.0729
 20
-24.2634
 11
19.8711
 21
-23.9453
  0
LINE
  8
0
 10
19.8711
 20
-23.9453
 11
19.7107
 21
-23.6044
  0
LINE
  8
0
 10
19.7107
 20
-23.6044
 11
19.5942
 21
-23.2461
  0
LINE
  8
0
 10
19.5942
 20
-23.2461
 11
19.5237
 21
-22.876
  0
LINE
  8
0
 10
19.5237
 20
-22.876
 11
19.5
 21
-22.5
  0
LINE
  8
0
 10
19.5
 20
-22.5
 11
19.5237
 21
-22.124
  0
LINE
  8
0
 10
19.5237
 20
-22.124
 11
19.5942
 21
-21.7539
  0
LINE
  8
0
 10
19.5942
 20
-21.7539
 11
19.7107
 21
-21.3956
  0
LINE
  8
0
 10
19.7107
 20
-21.3956
 11
19.8711
 21
-21.0547
  0
LINE
  8
0
 10
19.8711
 20
-21.0547
 11
20.0729
 21
-20.7366
  0
LINE
  8
0
 10
20.0729
 20
-20.7366
 11
20.3131
 21
-20.4464
  0
LINE
  8
0
 10
20.3131
 20
-20.4464
 11
20.5877
 21
-20.1884
  0
LINE
  8
0
 10
20.5877
 20
-20.1884
 11
20.8925
 21
-19.967
  0
LINE
  8
0
 10
20.8925
 20
-19.967
 11
21.2227
 21
-19.7855
  0
LINE
  8
0
 10
21.2227
 20
-19.7855
 11
21.5729
 21
-19.6468
  0
LINE
  8
0
 10
21.5729
 20
-19.6468
 11
21.9379
 21
-19.5531
  0
LINE
  8
0
 10
21.9379
 20
-19.5531
 11
22.3116
 21
-19.5059
  0
LINE
  8
0
 10
22.3116
 20
-19.5059
 11
22.6884
 21
-19.5059
  0
LINE
  8
0
 10
22.6884
 20
-19.5059
 11
23.0621
 21
-19.5531
  0
LINE
  8
0
 10
23.0621
 20
-19.5531
 11
23.427
 21
-19.6468
  0
LINE
  8
0
 10
23.427
 20
-19.6468
 11
23.7773
 21
-19.7855
  0
LINE
  8
0
 10
23.7773
 20
-19.7855
 11
24.1075
 21
-19.967
  0
LINE
  8
0
 10
24.1075
 20
-19.967
 11
24.4123
 21
-20.1884
  0
LINE
  8
0
 10
24.4123
 20
-20.1884
 11
24.6869
 21
-20.4464
  0
LINE
  8
0
 10
24.6869
 20
-20.4464
 11
24.927
 21
-20.7366
  0
LINE
  8
0
 10
24.927
 20
-20.7366
 11
25.1289
 21
-21.0547
  0
LINE
  8
0
 10
25.1289
 20
-21.0547
 11
25.2893
 21
-21.3956
  0
LINE
  8
0
 10
25.2893
 20
-21.3956
 11
25.4057
 21
-21.7539
  0
LINE
  8
0
 10
25.4057
 20
-21.7539
 11
25.4763
 21
-22.124
  0
LINE
  8
0
 10
25.4763
 20
-22.124
 11
25.5
 21
-22.5
  0
LINE
  8
0
 10
25.5
 20
-22.5
 11
25.4763
 21
-22.876
  0
LINE
  8
0
 10
25.4763
 20
-22.876
 11
25.4057
 21
-23.2461
  0
LINE
  8
0
 10
25.4057
 20
-23.2461
 11
25.2893
 21
-23.6044
  0
LINE
  8
0
 10
25.2893
 20
-23.6044
 11
25.1289
 21
-23.9453
  0
LINE
  8
0
 10
25.1289
 20
-23.9453
 11
24.927
 21
-24.2634
  0
LINE
  8
0
 10
24.927
 20
-24.2634
 11
24.6869
 21
-24.5536
  0
LINE
  8
0
 10
24.6869
 20
-24.5536
 11
24.4123
 21
-24.8115
  0
LINE
  8
0
 10
24.4123
 20
-24.8115
 11
24.1075
 21
-25.033
  0
LINE
  8
0
 10
24.1075
 20
-25.033
 11
23.7773
 21
-25.2145
  0
LINE
  8
0
 10
23.7773
 20
-25.2145
 11
23.427
 21
-25.3532
  0
LINE
  8
0
 10
23.427
 20
-25.3532
 11
23.0621
 21
-25.4469
  0
LINE
  8
0
 10
23.0621
 20
-25.4469
 11
22.6884
 21
-25.4941
  0
LINE
  8
0
 10
22.6884
 20
-25.4941
 11
22.3116
 21
-25.4941
  0
LINE
  8
0
 10
-7.68837
 20
-25.4941
 11
-8.06213
 21
-25.4469
  0
LINE
  8
0
 10
-8.06213
 20
-25.4469
 11
-8.42705
 21
-25.3532
  0
LINE
  8
0
 10
-8.42705
 20
-25.3532
 11
-8.77733
 21
-25.2145
  0
LINE
  8
0
 10
-8.77733
 20
-25.2145
 11
-9.10747
 21
-25.033
  0
LINE
  8
0
 10
-9.10747
 20
-25.033
 11
-9.41226
 21
-24.8115
  0
LINE
  8
0
 10
-9.41226
 20
-24.8115
 11
-9.6869
 21
-24.5536
  0
LINE
  8
0
 10
-9.6869
 20
-24.5536
 11
-9.92705
 21
-24.2634
  0
LINE
  8
0
 10
-9.92705
 20
-24.2634
 11
-10.1289
 21
-23.9453
  0
LINE
  8
0
 10
-10.1289
 20
-23.9453
 11
-10.2893
 21
-23.6044
  0
LINE
  8
0
 10
-10.2893
 20
-23.6044
 11
-10.4057
 21
-23.2461
  0
LINE
  8
0
 10
-10.4057
 20
-23.2461
 11
-10.4763
 21
-22.876
  0
LINE
  8
0
 10
-10.4763
 20
-22.876
 11
-10.5
 21
-22.5
  0
LINE
  8
0
 10
-10.5
 20
-22.5
 11
-10.4763
 21
-22.124
  0
LINE
  8
0
 10
-10.4763
 20
-22.124
 11
-10.4057
 21
-21.7539
  0
LINE
  8
0
 10
-10.4057
 20
-21.7539
 11
-10.2893
 21
-21.3956
  0
LINE
  8
0
 10
-10.2893
 20
-21.3956
 11
-10.1289
 21
-21.0547
  0
LINE
  8
0
 10
-10.1289
 20
-21.0547
 11
-9.92705
 21
-20.7366
  0
LINE
  8
0
 10
-9.92705
 20
-20.7366
 11
-9.6869
 21
-20.4464
  0
LINE
  8
0
 10
-9.6869
 20
-20.4464
 11
-9.41226
 21
-20.1884
  0
LINE
  8
0
 10
-9.41226
 20
-20.1884
 11
-9.10747
 21
-19.967
  0
LINE
  8
0
 10
-9.10747
 20
-19.967
 11
-8.77733
 21
-19.7855
  0
LINE
  8
0
 10
-8.77733
 20
-19.7855
 11
-8.42705
 21
-19.6468
  0
LINE
  8
0
 10
-8.42705
 20
-19.6468
 11
-8.06213
 21
-19.5531
  0
LINE
  8
0
 10
-8.06213
 20
-19.5531
 11
-7.68837
 21
-19.5059
  0
LINE
  8
0
 10
-7.68837
 20
-19.5059
 11
-7.31161
 21
-19.5059
  0
LINE
  8
0
 10
-7.31161
 20
-19.5059
 11
-6.93785
 21
-19.5531
  0
LINE
  8
0
 10
-6.93785
 20
-19.5531
 11
-6.57294
 21
-19.6468
  0
LINE
  8
0
 10
-6.57294
 20
-19.6468
 11
-6.22266
 21
-19.7855
  0
LINE
  8
0
 10
-6.22266
 20
-19.7855
 11
-5.89252
 21
-19.967
  0
LINE
  8
0
 10
-5.89252
 20
-19.967
 11
-5.58772
 21
-20.1884
  0
LINE
  8
0
 10
-5.58772
 20
-20.1884
 11
-5.31308
 21
-20.4464
  0
LINE
  8
0
 10
-5.31308
 20
-20.4464
 11
-5.07294
 21
-20.7366
  0
LINE
  8
0
 10
-5.07294
 20
-20.7366
 11
-4.87108
 21
-21.0547
  0
LINE
  8
0
 10
-4.87108
 20
-21.0547
 11
-4.71066
 21
-21.3956
  0
LINE
  8
0
 10
-4.71066
 20
-21.3956
 11
-4.59424
 21
-21.7539
  0
LINE
  8
0
 10
-4.59424
 20
-21.7539
 11
-4.52365
 21
-22.124
  0
LINE
  8
0
 10
-4.52365
 20
-22.124
 11
-4.5
 21
-22.5
  0
LINE
  8
0
 10
-4.5
 20
-22.5
 11
-4.52365
 21
-22.876
  0
LINE
  8
0
 10
-4.52365
 20
-22.876
 11
-4.59424
 21
-23.2461
  0
LINE
  8
0
 10
-4.59424
 20
-23.2461
 11
-4.71066
 21
-23.6044
  0
LINE
  8
0
 10
-4.71066
 20
-23.6044
 11
-4.87108
 21
-23.9453
  0
LINE
  8
0
 10
-4.87108
 20
-23.9453
 11
-5.07294
 21
-24.2634
  0
LINE
  8
0
 10
-5.07294
 20
-24.2634
 11
-5.31308
 21
-24.5536
  0
LINE
  8
0
 10
-5.31308
 20
-24.5536
 11
-5.58772
 21
-24.8115
  0
LINE
  8
0
 10
-5.58772
 20
-24.8115
 11
-5.89252
 21
-25.033
  0
LINE
  8
0
 10
-5.89252
 20
-25.033
 11
-6.22266
 21
-25.2145
  0
LINE
  8
0
 10
-6.22266
 20
-25.2145
 11
-6.57294
 21
-25.3532
  0
LINE
  8
0
 10
-6.57294
 20
-25.3532
 11
-6.93785
 21
-25.4469
  0
LINE
  8
0
 10
-6.93785
 20
-25.4469
 11
-7.31161
 21
-25.4941
  0
LINE
  8
0
 10
-7.31161
 20
-25.4941
 11
-7.68837
 21
-25.4941
  0
LINE
  8
0
 10
-22.6884
 20
-25.4941
 11
-23.0621
 21
-25.4469
  0
LINE
  8
0
 10
-23.0621
 20
-25.4469
 11
-23.427
 21
-25.3532
  0
LINE
  8
0
 10
-23.427
 20
-25.3532
 11
-23.7773
 21
-25.2145
  0
LINE
  8
0
 10
-23.7773
 20
-25.2145
 11
-24.1075
 21
-25.033
  0
LINE
  8
0
 10
-24.1075
 20
-25.033
 11
-24.4123
 21
-24.8115
  0
LINE
  8
0
 10
-24.4123
 20
-24.8115
 11
-24.6869
 21
-24.5536
  0
LINE
  8
0
 10
-24.6869
 20
-24.5536
 11
-24.927
 21
-24.2634
  0
LINE
  8
0
 10
-24.927
 20
-24.2634
 11
-25.1289
 21
-23.9453
  0
LINE
  8
0
 10
-25.1289
 20
-23.9453
 11
-25.2893
 21
-23.6044
  0
LINE
  8
0
 10
-25.2893
 20
-23.6044
 11
-25.4057
 21
-23.2461
  0
LINE
  8
0
 10
-25.4057
 20
-23.2461
 11
-25.4763
 21
-22.876
  0
LINE
  8
0
 10
-25.4763
 20
-22.876
 11
-25.5
 21
-22.5
  0
LINE
  8
0
 10
-25.5
 20
-22.5
 11
-25.4763
 21
-22.124
  0
LINE
  8
0
 10
-25.4763
 20
-22.124
 11
-25.4057
 21
-21.7539
  0
LINE
  8
0
 10
-25.4057
 20
-21.7539
 11
-25.2893
 21
-21.3956
  0
LINE
  8
0
 10
-25.2893
 20
-21.3956
 11
-25.1289
 21
-21.0547
  0
LINE
  8
0
 10
-25.1289
 20
-21.0547
 11
-24.927
 21
-20.7366
  0
LINE
  8
0
 10
-24.927
 20
-20.7366
 11
-24.6869
 21
-20.4464
  0
LINE
  8
0
 10
-24.6869
 20
-20.4464
 11
-24.4123
 21
-20.1884
  0
LINE
  8
0
 10
-24.4123
 20
-20.1884
 11
-24.1075
 21
-19.967
  0
LINE
  8
0
 10
-24.1075
 20
-19.967
 11
-23.7773
 21
-19.7855
  0
LINE
  8
0
 10
-23.7773
 20
-19.7855
 11
-23.427
 21
-19.6468
  0
LINE
  8
0
 10
-23.427
 20
-19.6468
 11
-23.0621
 21
-19.5531
  0
LINE
  8
0
 10
-23.0621
 20
-19.5531
 11
-22.6884
 21
-19.5059
  0
LINE
  8
0
 10
-22.6884
 20
-19.5059
 11
-22.3116
 21
-19.5059
  0
LINE
  8
0
 10
-22.3116
 20
-19.5059
 11
-21.9379
 21
-19.5531
  0
LINE
  8
0
 10
-21.9379
 20
-19.5531
 11
-21.5729
 21
-19.6468
  0
LINE
  8
0
 10
-21.5729
 20
-19.6468
 11
-21.2227
 21
-19.7855
  0
LINE
  8
0
 10
-21.2227
 20
-19.7855
 11
-20.8925
 21
-19.967
  0
LINE
  8
0
 10
-20.8925
 20
-19.967
 11
-20.5877
 21
-20.1884
  0
LINE
  8
0
 10
-20.5877
 20
-20.1884
 11
-20.3131
 21
-20.4464
  0
LINE
  8
0
 10
-20.3131
 20
-20.4464
 11
-20.0729
 21
-20.7366
  0
LINE
  8
0
 10
-20.0729
 20
-20.7366
 11
-19.8711
 21
-21.0547
  0
LINE
  8
0
 10
-19.8711
 20
-21.0547
 11
-19.7107
 21
-21.3956
  0
LINE
  8
0
 10
-19.7107
 20
-21.3956
 11
-19.5942
 21
-21.7539
  0
LINE
  8
0
 10
-19.5942
 20
-21.7539
 11
-19.5237
 21
-22.124
  0
LINE
  8
0
 10
-19.5237
 20
-22.124
 11
-19.5
 21
-22.5
  0
LINE
  8
0
 10
-19.5
 20
-22.5
 11
-19.5237
 21
-22.876
  0
LINE
  8
0
 10
-19.5237
 20
-22.876
 11
-19.5942
 21
-23.2461
  0
LINE
  8
0
 10
-19.5942
 20
-23.2461
 11
-19.7107
 21
-23.6044
  0
LINE
  8
0
 10
-19.7107
 20
-23.6044
 11
-19.8711
 21
-23.9453
  0
LINE
  8
0
 10
-19.8711
 20
-23.9453
 11
-20.0729
 21
-24.2634
  0
LINE
  8
0
 10
-20.0729
 20
-24.2634
 11
-20.3131
 21
-24.5536
  0
LINE
  8
0
 10
-20.3131
 20
-24.5536
 11
-20.5877
 21
-24.8115
  0
LINE
  8
0
 10
-20.5877
 20
-24.8115
 11
-20.8925
 21
-25.033
  0
LINE
  8
0
 10
-20.8925
 20
-25.033
 11
-21.2227
 21
-25.2145
  0
LINE
  8
0
 10
-21.2227
 20
-25.2145
 11
-21.5729
 21
-25.3532
  0
LINE
  8
0
 10
-21.5729
 20
-25.3532
 11
-21.9379
 21
-25.4469
  0
LINE
  8
0
 10
-21.9379
 20
-25.4469
 11
-22.3116
 21
-25.4941
  0
LINE
  8
0
 10
-22.3116
 20
-25.4941
 11
-22.6884
 21
-25.4941
  0
LINE
  8
0
 10
-0.0941772
 20
-23.997
 11
-0.281067
 21
-23.9734
  0
LINE
  8
0
 10
-0.281067
 20
-23.9734
 11
-0.463516
 21
-23.9266
  0
LINE
  8
0
 10
-0.463516
 20
-23.9266
 11
-0.638657
 21
-23.8572
  0
LINE
  8
0
 10
-0.638657
 20
-23.8572
 11
-0.803726
 21
-23.7665
  0
LINE
  8
0
 10
-0.803726
 20
-23.7665
 11
-0.956131
 21
-23.6558
  0
LINE
  8
0
 10
-0.956131
 20
-23.6558
 11
-1.09344
 21
-23.5268
  0
LINE
  8
0
 10
-1.09344
 20
-23.5268
 11
-1.21352
 21
-23.3817
  0
LINE
  8
0
 10
-1.21352
 20
-23.3817
 11
-1.31445
 21
-23.2226
  0
LINE
  8
0
 10
-1.31445
 20
-23.2226
 11
-1.39465
 21
-23.0522
  0
LINE
  8
0
 10
-1.39465
 20
-23.0522
 11
-1.45287
 21
-22.873
  0
LINE
  8
0
 10
-1.45287
 20
-22.873
 11
-1.48816
 21
-22.688
  0
LINE
  8
0
 10
-1.48816
 20
-22.688
 11
-1.5
 21
-22.5
  0
LINE
  8
0
 10
-1.5
 20
-22.5
 11
-1.48816
 21
-22.312
  0
LINE
  8
0
 10
-1.48816
 20
-22.312
 11
-1.45287
 21
-22.127
  0
LINE
  8
0
 10
-1.45287
 20
-22.127
 11
-1.39465
 21
-21.9478
  0
LINE
  8
0
 10
-1.39465
 20
-21.9478
 11
-1.31445
 21
-21.7774
  0
LINE
  8
0
 10
-1.31445
 20
-21.7774
 11
-1.21352
 21
-21.6183
  0
LINE
  8
0
 10
-1.21352
 20
-21.6183
 11
-1.09344
 21
-21.4732
  0
LINE
  8
0
 10
-1.09344
 20
-21.4732
 11
-0.956131
 21
-21.3442
  0
LINE
  8
0
 10
-0.956131
 20
-21.3442
 11
-0.803726
 21
-21.2335
  0
LINE
  8
0
 10
-0.803726
 20
-21.2335
 11
-0.638657
 21
-21.1427
  0
LINE
  8
0
 10
-0.638657
 20
-21.1427
 11
-0.463516
 21
-21.0734
  0
LINE
  8
0
 10
-0.463516
 20
-21.0734
 11
-0.281067
 21
-21.0266
  0
LINE
  8
0
 10
-0.281067
 20
-21.0266
 11
-0.0941772
 21
-21.003
  0
LINE
  8
0
 10
-0.0941772
 20
-21.003
 11
0.0941772
 21
-21.003
  0
LINE
  8
0
 10
0.0941772
 20
-21.003
 11
0.281067
 21
-21.0266
  0
LINE
  8
0
 10
0.281067
 20
-21.0266
 11
0.463516
 21
-21.0734
  0
LINE
  8
0
 10
0.463516
 20
-21.0734
 11
0.638657
 21
-21.1427
  0
LINE
  8
0
 10
0.638657
 20
-21.1427
 11
0.803726
 21
-21.2335
  0
LINE
  8
0
 10
0.803726
 20
-21.2335
 11
0.956131
 21
-21.3442
  0
LINE
  8
0
 10
0.956131
 20
-21.3442
 11
1.09344
 21
-21.4732
  0
LINE
  8
0
 10
1.09344
 20
-21.4732
 11
1.21352
 21
-21.6183
  0
LINE
  8
0
 10
1.21352
 20
-21.6183
 11
1.31445
 21
-21.7774
  0
LINE
  8
0
 10
1.31445
 20
-21.7774
 11
1.39465
 21
-21.9478
  0
LINE
  8
0
 10
1.39465
 20
-21.9478
 11
1.45287
 21
-22.127
  0
LINE
  8
0
 10
1.45287
 20
-22.127
 11
1.48816
 21
-22.312
  0
LINE
  8
0
 10
1.48816
 20
-22.312
 11
1.5
 21
-22.5
  0
LINE
  8
0
 10
1.5
 20
-22.5
 11
1.48816
 21
-22.688
  0
LINE
  8
0
 10
1.48816
 20
-22.688
 11
1.45287
 21
-22.873
  0
LINE
  8
0
 10
1.45287
 20
-22.873
 11
1.39465
 21
-23.0522
  0
LINE
  8
0
 10
1.39465
 20
-23.0522
 11
1.31445
 21
-23.2226
  0
LINE
  8
0
 10
1.31445
 20
-23.2226
 11
1.21352
 21
-23.3817
  0
LINE
  8
0
 10
1.21352
 20
-23.3817
 11
1.09344
 21
-23.5268
  0
LINE
  8
0
 10
1.09344
 20
-23.5268
 11
0.956131
 21
-23.6558
  0
LINE
  8
0
 10
0.956131
 20
-23.6558
 11
0.803726
 21
-23.7665
  0
LINE
  8
0
 10
0.803726
 20
-23.7665
 11
0.638657
 21
-23.8572
  0
LINE
  8
0
 10
0.638657
 20
-23.8572
 11
0.463516
 21
-23.9266
  0
LINE
  8
0
 10
0.463516
 20
-23.9266
 11
0.281067
 21
-23.9734
  0
LINE
  8
0
 10
0.281067
 20
-23.9734
 11
0.0941772
 21
-23.997
  0
LINE
  8
0
 10
0.0941772
 20
-23.997
 11
-0.0941772
 21
-23.997
  0
LINE
  8
0
 10
14.9058
 20
-23.997
 11
14.7189
 21
-23.9734
  0
LINE
  8
0
 10
14.7189
 20
-23.9734
 11
14.5365
 21
-23.9266
  0
LINE
  8
0
 10
14.5365
 20
-23.9266
 11
14.3613
 21
-23.8572
  0
LINE
  8
0
 10
14.3613
 20
-23.8572
 11
14.1963
 21
-23.7665
  0
LINE
  8
0
 10
14.1963
 20
-23.7665
 11
14.0439
 21
-23.6558
  0
LINE
  8
0
 10
14.0439
 20
-23.6558
 11
13.9065
 21
-23.5268
  0
LINE
  8
0
 10
13.9065
 20
-23.5268
 11
13.7865
 21
-23.3817
  0
LINE
  8
0
 10
13.7865
 20
-23.3817
 11
13.6855
 21
-23.2226
  0
LINE
  8
0
 10
13.6855
 20
-23.2226
 11
13.6053
 21
-23.0522
  0
LINE
  8
0
 10
13.6053
 20
-23.0522
 11
13.5471
 21
-22.873
  0
LINE
  8
0
 10
13.5471
 20
-22.873
 11
13.5118
 21
-22.688
  0
LINE
  8
0
 10
13.5118
 20
-22.688
 11
13.5
 21
-22.5
  0
LINE
  8
0
 10
13.5
 20
-22.5
 11
13.5118
 21
-22.312
  0
LINE
  8
0
 10
13.5118
 20
-22.312
 11
13.5471
 21
-22.127
  0
LINE
  8
0
 10
13.5471
 20
-22.127
 11
13.6053
 21
-21.9478
  0
LINE
  8
0
 10
13.6053
 20
-21.9478
 11
13.6855
 21
-21.7774
  0
LINE
  8
0
 10
13.6855
 20
-21.7774
 11
13.7865
 21
-21.6183
  0
LINE
  8
0
 10
13.7865
 20
-21.6183
 11
13.9065
 21
-21.4732
  0
LINE
  8
0
 10
13.9065
 20
-21.4732
 11
14.0439
 21
-21.3442
  0
LINE
  8
0
 10
14.0439
 20
-21.3442
 11
14.1963
 21
-21.2335
  0
LINE
  8
0
 10
14.1963
 20
-21.2335
 11
14.3613
 21
-21.1427
  0
LINE
  8
0
 10
14.3613
 20
-21.1427
 11
14.5365
 21
-21.0734
  0
LINE
  8
0
 10
14.5365
 20
-21.0734
 11
14.7189
 21
-21.0266
  0
LINE
  8
0
 10
14.7189
 20
-21.0266
 11
14.9058
 21
-21.003
  0
LINE
  8
0
 10
14.9058
 20
-21.003
 11
15.0942
 21
-21.003
  0
LINE
  8
0
 10
15.0942
 20
-21.003
 11
15.2811
 21
-21.0266
  0
LINE
  8
0
 10
15.2811
 20
-21.0266
 11
15.4635
 21
-21.0734
  0
LINE
  8
0
 10
15.4635
 20
-21.0734
 11
15.6387
 21
-21.1427
  0
LINE
  8
0
 10
15.6387
 20
-21.1427
 11
15.8037
 21
-21.2335
  0
LINE
  8
0
 10
15.8037
 20
-21.2335
 11
15.9561
 21
-21.3442
  0
LINE
  8
0
 10
15.9561
 20
-21.3442
 11
16.0934
 21
-21.4732
  0
LINE
  8
0
 10
16.0934
 20
-21.4732
 11
16.2135
 21
-21.6183
  0
LINE
  8
0
 10
16.2135
 20
-21.6183
 11
16.3145
 21
-21.7774
  0
LINE
  8
0
 10
16.3145
 20
-21.7774
 11
16.3947
 21
-21.9478
  0
LINE
  8
0
 10
16.3947
 20
-21.9478
 11
16.4529
 21
-22.127
  0
LINE
  8
0
 10
16.4529
 20
-22.127
 11
16.4882
 21
-22.312
  0
LINE
  8
0
 10
16.4882
 20
-22.312
 11
16.5
 21
-22.5
  0
LINE
  8
0
 10
16.5
 20
-22.5
 11
16.4882
 21
-22.688
  0
LINE
  8
0
 10
16.4882
 20
-22.688
 11
16.4529
 21
-22.873
  0
LINE
  8
0
 10
16.4529
 20
-22.873
 11
16.3947
 21
-23.0522
  0
LINE
  8
0
 10
16.3947
 20
-23.0522
 11
16.3145
 21
-23.2226
  0
LINE
  8
0
 10
16.3145
 20
-23.2226
 11
16.2135
 21
-23.3817
  0
LINE
  8
0
 10
16.2135
 20
-23.3817
 11
16.0934
 21
-23.5268
  0
LINE
  8
0
 10
16.0934
 20
-23.5268
 11
15.9561
 21
-23.6558
  0
LINE
  8
0
 10
15.9561
 20
-23.6558
 11
15.8037
 21
-23.7665
  0
LINE
  8
0
 10
15.8037
 20
-23.7665
 11
15.6387
 21
-23.8572
  0
LINE
  8
0
 10
15.6387
 20
-23.8572
 11
15.4635
 21
-23.9266
  0
LINE
  8
0
 10
15.4635
 20
-23.9266
 11
15.2811
 21
-23.9734
  0
LINE
  8
0
 10
15.2811
 20
-23.9734
 11
15.0942
 21
-23.997
  0
LINE
  8
0
 10
15.0942
 20
-23.997
 11
14.9058
 21
-23.997
  0
LINE
  8
0
 10
-15.0942
 20
-23.997
 11
-15.2811
 21
-23.9734
  0
LINE
  8
0
 10
-15.2811
 20
-23.9734
 11
-15.4635
 21
-23.9266
  0
LINE
  8
0
 10
-15.4635
 20
-23.9266
 11
-15.6387
 21
-23.8572
  0
LINE
  8
0
 10
-15.6387
 20
-23.8572
 11
-15.8037
 21
-23.7665
  0
LINE
  8
0
 10
-15.8037
 20
-23.7665
 11
-15.9561
 21
-23.6558
  0
LINE
  8
0
 10
-15.9561
 20
-23.6558
 11
-16.0934
 21
-23.5268
  0
LINE
  8
0
 10
-16.0934
 20
-23.5268
 11
-16.2135
 21
-23.3817
  0
LINE
  8
0
 10
-16.2135
 20
-23.3817
 11
-16.3145
 21
-23.2226
  0
LINE
  8
0
 10
-16.3145
 20
-23.2226
 11
-16.3947
 21
-23.0522
  0
LINE
  8
0
 10
-16.3947
 20
-23.0522
 11
-16.4529
 21
-22.873
  0
LINE
  8
0
 10
-16.4529
 20
-22.873
 11
-16.4882
 21
-22.688
  0
LINE
  8
0
 10
-16.4882
 20
-22.688
 11
-16.5
 21
-22.5
  0
LINE
  8
0
 10
-16.5
 20
-22.5
 11
-16.4882
 21
-22.312
  0
LINE
  8
0
 10
-16.4882
 20
-22.312
 11
-16.4529
 21
-22.127
  0
LINE
  8
0
 10
-16.4529
 20
-22.127
 11
-16.3947
 21
-21.9478
  0
LINE
  8
0
 10
-16.3947
 20
-21.9478
 11
-16.3145
 21
-21.7774
  0
LINE
  8
0
 10
-16.3145
 20
-21.7774
 11
-16.2135
 21
-21.6183
  0
LINE
  8
0
 10
-16.2135
 20
-21.6183
 11
-16.0934
 21
-21.4732
  0
LINE
  8
0
 10
-16.0934
 20
-21.4732
 11
-15.9561
 21
-21.3442
  0
LINE
  8
0
 10
-15.9561
 20
-21.3442
 11
-15.8037
 21
-21.2335
  0
LINE
  8
0
 10
-15.8037
 20
-21.2335
 11
-15.6387
 21
-21.1427
  0
LINE
  8
0
 10
-15.6387
 20
-21.1427
 11
-15.4635
 21
-21.0734
  0
LINE
  8
0
 10
-15.4635
 20
-21.0734
 11
-15.2811
 21
-21.0266
  0
LINE
  8
0
 10
-15.2811
 20
-21.0266
 11
-15.0942
 21
-21.003
  0
LINE
  8
0
 10
-15.0942
 20
-21.003
 11
-14.9058
 21
-21.003
  0
LINE
  8
0
 10
-14.9058
 20
-21.003
 11
-14.7189
 21
-21.0266
  0
LINE
  8
0
 10
-14.7189
 20
-21.0266
 11
-14.5365
 21
-21.0734
  0
LINE
  8
0
 10
-14.5365
 20
-21.0734
 11
-14.3613
 21
-21.1427
  0
LINE
  8
0
 10
-14.3613
 20
-21.1427
 11
-14.1963
 21
-21.2335
  0
LINE
  8
0
 10
-14.1963
 20
-21.2335
 11
-14.0439
 21
-21.3442
  0
LINE
  8
0
 10
-14.0439
 20
-21.3442
 11
-13.9065
 21
-21.4732
  0
LINE
  8
0
 10
-13.9065
 20
-21.4732
 11
-13.7865
 21
-21.6183
  0
LINE
  8
0
 10
-13.7865
 20
-21.6183
 11
-13.6855
 21
-21.7774
  0
LINE
  8
0
 10
-13.6855
 20
-21.7774
 11
-13.6053
 21
-21.9478
  0
LINE
  8
0
 10
-13.6053
 20
-21.9478
 11
-13.5471
 21
-22.127
  0
LINE
  8
0
 10
-13.5471
 20
-22.127
 11
-13.5118
 21
-22.312
  0
LINE
  8
0
 10
-13.5118
 20
-22.312
 11
-13.5
 21
-22.5
  0
LINE
  8
0
 10
-13.5
 20
-22.5
 11
-13.5118
 21
-22.688
  0
LINE
  8
0
 10
-13.5118
 20
-22.688
 11
-13.5471
 21
-22.873
  0
LINE
  8
0
 10
-13.5471
 20
-22.873
 11
-13.6053
 21
-23.0522
  0
LINE
  8
0
 10
-13.6053
 20
-23.0522
 11
-13.6855
 21
-23.2226
  0
LINE
  8
0
 10
-13.6855
 20
-23.2226
 11
-13.7865
 21
-23.3817
  0
LINE
  8
0
 10
-13.7865
 20
-23.3817
 11
-13.9065
 21
-23.5268
  0
LINE
  8
0
 10
-13.9065
 20
-23.5268
 11
-14.0439
 21
-23.6558
  0
LINE
  8
0
 10
-14.0439
 20
-23.6558
 11
-14.1963
 21
-23.7665
  0
LINE
  8
0
 10
-14.1963
 20
-23.7665
 11
-14.3613
 21
-23.8572
  0
LINE
  8
0
 10
-14.3613
 20
-23.8572
 11
-14.5365
 21
-23.9266
  0
LINE
  8
0
 10
-14.5365
 20
-23.9266
 11
-14.7189
 21
-23.9734
  0
LINE
  8
0
 10
-14.7189
 20
-23.9734
 11
-14.9058
 21
-23.997
  0
LINE
  8
0
 10
-14.9058
 20
-23.997
 11
-15.0942
 21
-23.997
  0
LINE
  8
0
 10
51.015
 20
11.285
 11
55.015
 21
11.285
  0
LINE
  8
0
 10
55.015
 20
11.285
 11
55.015
 21
0.509857
  0
LINE
  8
0
 10
55.015
 20
0.509857
 11
57.5
 21
0.509857
  0
LINE
  8
0
 10
57.5
 20
0.509857
 11
57.5
 21
11.25
  0
LINE
  8
0
 10
57.5
 20
11.25
 11
62.5
 21
11.25
  0
LINE
  8
0
 10
62.5
 20
11.25
 11
62.5
 21
0.509857
  0
LINE
  8
0
 10
62.5
 20
0.509857
 11
64.985
 21
0.509857
  0
LINE
  8
0
 10
64.985
 20
0.509857
 11
64.985
 21
11.285
  0
LINE
  8
0
 10
64.985
 20
11.285
 11
68.985
 21
11.285
  0
LINE
  8
0
 10
68.985
 20
11.285
 11
68.985
 21
0.509857
  0
LINE
  8
0
 10
68.985
 20
0.509857
 11
70.5639
 21
0.509857
  0
LINE
  8
0
 10
70.5639
 20
0.509857
 11
71.1869
 21
0.588562
  0
LINE
  8
0
 10
71.1869
 20
0.588562
 11
71.7951
 21
0.744705
  0
LINE
  8
0
 10
71.7951
 20
0.744705
 11
72.3789
 21
0.975861
  0
LINE
  8
0
 10
72.3789
 20
0.975861
 11
72.9291
 21
1.27835
  0
LINE
  8
0
 10
72.9291
 20
1.27835
 11
73.4371
 21
1.64743
  0
LINE
  8
0
 10
73.4371
 20
1.64743
 11
73.8948
 21
2.07726
  0
LINE
  8
0
 10
73.8948
 20
2.07726
 11
74.2951
 21
2.56107
  0
LINE
  8
0
 10
74.2951
 20
2.56107
 11
74.6315
 21
3.09122
  0
LINE
  8
0
 10
74.6315
 20
3.09122
 11
74.8989
 21
3.65936
  0
LINE
  8
0
 10
74.8989
 20
3.65936
 11
75.0929
 21
4.25655
  0
LINE
  8
0
 10
75.0929
 20
4.25655
 11
75.2106
 21
4.87332
  0
LINE
  8
0
 10
75.2106
 20
4.87332
 11
75.25
 21
5.5
  0
LINE
  8
0
 10
75.25
 20
5.5
 11
75.25
 21
21.0226
  0
LINE
  8
0
 10
75.25
 20
21.0226
 11
75.0942
 21
21.003
  0
LINE
  8
0
 10
75.0942
 20
21.003
 11
74.9058
 21
21.003
  0
LINE
  8
0
 10
74.9058
 20
21.003
 11
74.7189
 21
21.0266
  0
LINE
  8
0
 10
74.7189
 20
21.0266
 11
74.5365
 21
21.0734
  0
LINE
  8
0
 10
74.5365
 20
21.0734
 11
74.3613
 21
21.1427
  0
LINE
  8
0
 10
74.3613
 20
21.1427
 11
74.1963
 21
21.2335
  0
LINE
  8
0
 10
74.1963
 20
21.2335
 11
74.0439
 21
21.3442
  0
LINE
  8
0
 10
74.0439
 20
21.3442
 11
73.9065
 21
21.4732
  0
LINE
  8
0
 10
73.9065
 20
21.4732
 11
73.7865
 21
21.6183
  0
LINE
  8
0
 10
73.7865
 20
21.6183
 11
73.6855
 21
21.7774
  0
LINE
  8
0
 10
73.6855
 20
21.7774
 11
73.6053
 21
21.9478
  0
LINE
  8
0
 10
73.6053
 20
21.9478
 11
73.5471
 21
22.127
  0
LINE
  8
0
 10
73.5471
 20
22.127
 11
73.5118
 21
22.312
  0
LINE
  8
0
 10
73.5118
 20
22.312
 11
73.5
 21
22.5
  0
LINE
  8
0
 10
73.5
 20
22.5
 11
73.5118
 21
22.688
  0
LINE
  8
0
 10
73.5118
 20
22.688
 11
73.5471
 21
22.873
  0
LINE
  8
0
 10
73.5471
 20
22.873
 11
73.6053
 21
23.0522
  0
LINE
  8
0
 10
73.6053
 20
23.0522
 11
73.6855
 21
23.2226
  0
LINE
  8
0
 10
73.6855
 20
23.2226
 11
73.7865
 21
23.3817
  0
LINE
  8
0
 10
73.7865
 20
23.3817
 11
73.9065
 21
23.5268
  0
LINE
  8
0
 10
73.9065
 20
23.5268
 11
74.0439
 21
23.6558
  0
LINE
  8
0
 10
74.0439
 20
23.6558
 11
74.1963
 21
23.7665
  0
LINE
  8
0
 10
74.1963
 20
23.7665
 11
74.3613
 21
23.8572
  0
LINE
  8
0
 10
74.3613
 20
23.8572
 11
74.5365
 21
23.9266
  0
LINE
  8
0
 10
74.5365
 20
23.9266
 11
74.7189
 21
23.9734
  0
LINE
  8
0
 10
74.7189
 20
23.9734
 11
74.9058
 21
23.997
  0
LINE
  8
0
 10
74.9058
 20
23.997
 11
75.0942
 21
23.997
  0
LINE
  8
0
 10
75.0942
 20
23.997
 11
75.25
 21
23.9774
  0
LINE
  8
0
 10
75.25
 20
23.9774
 11
75.25
 21
24.5
  0
LINE
  8
0
 10
75.25
 20
24.5
 11
75.2106
 21
25.1267
  0
LINE
  8
0
 10
75.2106
 20
25.1267
 11
75.0929
 21
25.7434
  0
LINE
  8
0
 10
75.0929
 20
25.7434
 11
74.8989
 21
26.3406
  0
LINE
  8
0
 10
74.8989
 20
26.3406
 11
74.6315
 21
26.9088
  0
LINE
  8
0
 10
74.6315
 20
26.9088
 11
74.2951
 21
27.4389
  0
LINE
  8
0
 10
74.2951
 20
27.4389
 11
73.8948
 21
27.9227
  0
LINE
  8
0
 10
73.8948
 20
27.9227
 11
73.4371
 21
28.3526
  0
LINE
  8
0
 10
73.4371
 20
28.3526
 11
72.9291
 21
28.7216
  0
LINE
  8
0
 10
72.9291
 20
28.7216
 11
72.3789
 21
29.0241
  0
LINE
  8
0
 10
72.3789
 20
29.0241
 11
71.7951
 21
29.2553
  0
LINE
  8
0
 10
71.7951
 20
29.2553
 11
71.1869
 21
29.4114
  0
LINE
  8
0
 10
71.1869
 20
29.4114
 11
70.5639
 21
29.4901
  0
LINE
  8
0
 10
70.5639
 20
29.4901
 11
49.436
 21
29.4901
  0
LINE
  8
0
 10
49.436
 20
29.4901
 11
48.8131
 21
29.4114
  0
LINE
  8
0
 10
48.8131
 20
29.4114
 11
48.2049
 21
29.2553
  0
LINE
  8
0
 10
48.2049
 20
29.2553
 11
47.6211
 21
29.0241
  0
LINE
  8
0
 10
47.6211
 20
29.0241
 11
47.0709
 21
28.7216
  0
LINE
  8
0
 10
47.0709
 20
28.7216
 11
46.5629
 21
28.3526
  0
LINE
  8
0
 10
46.5629
 20
28.3526
 11
46.1051
 21
27.9227
  0
LINE
  8
0
 10
46.1051
 20
27.9227
 11
45.7049
 21
27.4389
  0
LINE
  8
0
 10
45.7049
 20
27.4389
 11
45.3685
 21
26.9088
  0
LINE
  8
0
 10
45.3685
 20
26.9088
 11
45.1011
 21
26.3406
  0
LINE
  8
0
 10
45.1011
 20
26.3406
 11
44.9071
 21
25.7434
  0
LINE
  8
0
 10
44.9071
 20
25.7434
 11
44.7894
 21
25.1267
  0
LINE
  8
0
 10
44.7894
 20
25.1267
 11
44.75
 21
24.5
  0
LINE
  8
0
 10
44.75
 20
24.5
 11
44.75
 21
23.9774
  0
LINE
  8
0
 10
44.75
 20
23.9774
 11
44.9058
 21
23.997
  0
LINE
  8
0
 10
44.9058
 20
23.997
 11
45.0942
 21
23.997
  0
LINE
  8
0
 10
45.0942
 20
23.997
 11
45.2811
 21
23.9734
  0
LINE
  8
0
 10
45.2811
 20
23.9734
 11
45.4635
 21
23.9266
  0
LINE
  8
0
 10
45.4635
 20
23.9266
 11
45.6387
 21
23.8572
  0
LINE
  8
0
 10
45.6387
 20
23.8572
 11
45.8037
 21
23.7665
  0
LINE
  8
0
 10
45.8037
 20
23.7665
 11
45.9561
 21
23.6558
  0
LINE
  8
0
 10
45.9561
 20
23.6558
 11
46.0934
 21
23.5268
  0
LINE
  8
0
 10
46.0934
 20
23.5268
 11
46.2135
 21
23.3817
  0
LINE
  8
0
 10
46.2135
 20
23.3817
 11
46.3145
 21
23.2226
  0
LINE
  8
0
 10
46.3145
 20
23.2226
 11
46.3947
 21
23.0522
  0
LINE
  8
0
 10
46.3947
 20
23.0522
 11
46.4529
 21
22.873
  0
LINE
  8
0
 10
46.4529
 20
22.873
 11
46.4882
 21
22.688
  0
LINE
  8
0
 10
46.4882
 20
22.688
 11
46.5
 21
22.5
  0
LINE
  8
0
 10
46.5
 20
22.5
 11
46.4882
 21
22.312
  0
LINE
  8
0
 10
46.4882
 20
22.312
 11
46.4529
 21
22.127
  0
LINE
  8
0
 10
46.4529
 20
22.127
 11
46.3947
 21
21.9478
  0
LINE
  8
0
 10
46.3947
 20
21.9478
 11
46.3145
 21
21.7774
  0
LINE
  8
0
 10
46.3145
 20
21.7774
 11
46.2135
 21
21.6183
  0
LINE
  8
0
 10
46.2135
 20
21.6183
 11
46.0934
 21
21.4732
  0
LINE
  8
0
 10
46.0934
 20
21.4732
 11
45.9561
 21
21.3442
  0
LINE
  8
0
 10
45.9561
 20
21.3442
 11
45.8037
 21
21.2335
  0
LINE
  8
0
 10
45.8037
 20
21.2335
 11
45.6387
 21
21.1427
  0
LINE
  8
0
 10
45.6387
 20
21.1427
 11
45.4635
 21
21.0734
  0
LINE
  8
0
 10
45.4635
 20
21.0734
 11
45.2811
 21
21.0266
  0
LINE
  8
0
 10
45.2811
 20
21.0266
 11
45.0942
 21
21.003
  0
LINE
  8
0
 10
45.0942
 20
21.003
 11
44.9058
 21
21.003
  0
LINE
  8
0
 10
44.9058
 20
21.003
 11
44.75
 21
21.0226
  0
LINE
  8
0
 10
44.75
 20
21.0226
 11
44.75
 21
5.5
  0
LINE
  8
0
 10
44.75
 20
5.5
 11
44.7894
 21
4.87332
  0
LINE
  8
0
 10
44.7894
 20
4.87332
 11
44.9071
 21
4.25655
  0
LINE
  8
0
 10
44.9071
 20
4.25655
 11
45.1011
 21
3.65936
  0
LINE
  8
0
 10
45.1011
 20
3.65936
 11
45.3685
 21
3.09122
  0
LINE
  8
0
 10
45.3685
 20
3.09122
 11
45.7049
 21
2.56107
  0
LINE
  8
0
 10
45.7049
 20
2.56107
 11
46.1051
 21
2.07726
  0
LINE
  8
0
 10
46.1051
 20
2.07726
 11
46.5629
 21
1.64743
  0
LINE
  8
0
 10
46.5629
 20
1.64743
 11
47.0709
 21
1.27835
  0
LINE
  8
0
 10
47.0709
 20
1.27835
 11
47.6211
 21
0.975861
  0
LINE
  8
0
 10
47.6211
 20
0.975861
 11
48.2049
 21
0.744705
  0
LINE
  8
0
 10
48.2049
 20
0.744705
 11
48.8131
 21
0.588562
  0
LINE
  8
0
 10
48.8131
 20
0.588562
 11
49.436
 21
0.509857
  0
LINE
  8
0
 10
49.436
 20
0.509857
 11
51.015
 21
0.509857
  0
LINE
  8
0
 10
51.015
 20
0.509857
 11
51.015
 21
11.285
  0
LINE
  8
0
 10
67.3116
 20
19.5059
 11
66.9379
 21
19.5531
  0
LINE
  8
0
 10
66.9379
 20
19.5531
 11
66.573
 21
19.6468
  0
LINE
  8
0
 10
66.573
 20
19.6468
 11
66.2227
 21
19.7855
  0
LINE
  8
0
 10
66.2227
 20
19.7855
 11
65.8925
 21
19.967
  0
LINE
  8
0
 10
65.8925
 20
19.967
 11
65.5877
 21
20.1884
  0
LINE
  8
0
 10
65.5877
 20
20.1884
 11
65.3131
 21
20.4464
  0
LINE
  8
0
 10
65.3131
 20
20.4464
 11
65.073
 21
20.7366
  0
LINE
  8
0
 10
65.073
 20
20.7366
 11
64.8711
 21
21.0547
  0
LINE
  8
0
 10
64.8711
 20
21.0547
 11
64.7107
 21
21.3956
  0
LINE
  8
0
 10
64.7107
 20
21.3956
 11
64.5943
 21
21.7539
  0
LINE
  8
0
 10
64.5943
 20
21.7539
 11
64.5237
 21
22.124
  0
LINE
  8
0
 10
64.5237
 20
22.124
 11
64.5
 21
22.5
  0
LINE
  8
0
 10
64.5
 20
22.5
 11
64.5237
 21
22.876
  0
LINE
  8
0
 10
64.5237
 20
22.876
 11
64.5943
 21
23.2461
  0
LINE
  8
0
 10
64.5943
 20
23.2461
 11
64.7107
 21
23.6044
  0
LINE
  8
0
 10
64.7107
 20
23.6044
 11
64.8711
 21
23.9453
  0
LINE
  8
0
 10
64.8711
 20
23.9453
 11
65.073
 21
24.2634
  0
LINE
  8
0
 10
65.073
 20
24.2634
 11
65.3131
 21
24.5536
  0
LINE
  8
0
 10
65.3131
 20
24.5536
 11
65.5877
 21
24.8115
  0
LINE
  8
0
 10
65.5877
 20
24.8115
 11
65.8925
 21
25.033
  0
LINE
  8
0
 10
65.8925
 20
25.033
 11
66.2227
 21
25.2145
  0
LINE
  8
0
 10
66.2227
 20
25.2145
 11
66.573
 21
25.3532
  0
LINE
  8
0
 10
66.573
 20
25.3532
 11
66.9379
 21
25.4469
  0
LINE
  8
0
 10
66.9379
 20
25.4469
 11
67.3116
 21
25.4941
  0
LINE
  8
0
 10
67.3116
 20
25.4941
 11
67.6884
 21
25.4941
  0
LINE
  8
0
 10
67.6884
 20
25.4941
 11
68.0621
 21
25.4469
  0
LINE
  8
0
 10
68.0621
 20
25.4469
 11
68.427
 21
25.3532
  0
LINE
  8
0
 10
68.427
 20
25.3532
 11
68.7773
 21
25.2145
  0
LINE
  8
0
 10
68.7773
 20
25.2145
 11
69.1075
 21
25.033
  0
LINE
  8
0
 10
69.1075
 20
25.033
 11
69.4123
 21
24.8115
  0
LINE
  8
0
 10
69.4123
 20
24.8115
 11
69.6869
 21
24.5536
  0
LINE
  8
0
 10
69.6869
 20
24.5536
 11
69.927
 21
24.2634
  0
LINE
  8
0
 10
69.927
 20
24.2634
 11
70.1289
 21
23.9453
  0
LINE
  8
0
 10
70.1289
 20
23.9453
 11
70.2893
 21
23.6044
  0
LINE
  8
0
 10
70.2893
 20
23.6044
 11
70.4057
 21
23.2461
  0
LINE
  8
0
 10
70.4057
 20
23.2461
 11
70.4763
 21
22.876
  0
LINE
  8
0
 10
70.4763
 20
22.876
 11
70.5
 21
22.5
  0
LINE
  8
0
 10
70.5
 20
22.5
 11
70.4763
 21
22.124
  0
LINE
  8
0
 10
70.4763
 20
22.124
 11
70.4057
 21
21.7539
  0
LINE
  8
0
 10
70.4057
 20
21.7539
 11
70.2893
 21
21.3956
  0
LINE
  8
0
 10
70.2893
 20
21.3956
 11
70.1289
 21
21.0547
  0
LINE
  8
0
 10
70.1289
 20
21.0547
 11
69.927
 21
20.7366
  0
LINE
  8
0
 10
69.927
 20
20.7366
 11
69.6869
 21
20.4464
  0
LINE
  8
0
 10
69.6869
 20
20.4464
 11
69.4123
 21
20.1884
  0
LINE
  8
0
 10
69.4123
 20
20.1884
 11
69.1075
 21
19.967
  0
LINE
  8
0
 10
69.1075
 20
19.967
 11
68.7773
 21
19.7855
  0
LINE
  8
0
 10
68.7773
 20
19.7855
 11
68.427
 21
19.6468
  0
LINE
  8
0
 10
68.427
 20
19.6468
 11
68.0621
 21
19.5531
  0
LINE
  8
0
 10
68.0621
 20
19.5531
 11
67.6884
 21
19.5059
  0
LINE
  8
0
 10
67.6884
 20
19.5059
 11
67.3116
 21
19.5059
  0
LINE
  8
0
 10
52.3116
 20
19.5059
 11
51.9379
 21
19.5531
  0
LINE
  8
0
 10
51.9379
 20
19.5531
 11
51.5729
 21
19.6468
  0
LINE
  8
0
 10
51.5729
 20
19.6468
 11
51.2227
 21
19.7855
  0
LINE
  8
0
 10
51.2227
 20
19.7855
 11
50.8925
 21
19.967
  0
LINE
  8
0
 10
50.8925
 20
19.967
 11
50.5877
 21
20.1884
  0
LINE
  8
0
 10
50.5877
 20
20.1884
 11
50.3131
 21
20.4464
  0
LINE
  8
0
 10
50.3131
 20
20.4464
 11
50.0729
 21
20.7366
  0
LINE
  8
0
 10
50.0729
 20
20.7366
 11
49.8711
 21
21.0547
  0
LINE
  8
0
 10
49.8711
 20
21.0547
 11
49.7107
 21
21.3956
  0
LINE
  8
0
 10
49.7107
 20
21.3956
 11
49.5942
 21
21.7539
  0
LINE
  8
0
 10
49.5942
 20
21.7539
 11
49.5237
 21
22.124
  0
LINE
  8
0
 10
49.5237
 20
22.124
 11
49.5
 21
22.5
  0
LINE
  8
0
 10
49.5
 20
22.5
 11
49.5237
 21
22.876
  0
LINE
  8
0
 10
49.5237
 20
22.876
 11
49.5942
 21
23.2461
  0
LINE
  8
0
 10
49.5942
 20
23.2461
 11
49.7107
 21
23.6044
  0
LINE
  8
0
 10
49.7107
 20
23.6044
 11
49.8711
 21
23.9453
  0
LINE
  8
0
 10
49.8711
 20
23.9453
 11
50.0729
 21
24.2634
  0
LINE
  8
0
 10
50.0729
 20
24.2634
 11
50.3131
 21
24.5536
  0
LINE
  8
0
 10
50.3131
 20
24.5536
 11
50.5877
 21
24.8115
  0
LINE
  8
0
 10
50.5877
 20
24.8115
 11
50.8925
 21
25.033
  0
LINE
  8
0
 10
50.8925
 20
25.033
 11
51.2227
 21
25.2145
  0
LINE
  8
0
 10
51.2227
 20
25.2145
 11
51.5729
 21
25.3532
  0
LINE
  8
0
 10
51.5729
 20
25.3532
 11
51.9379
 21
25.4469
  0
LINE
  8
0
 10
51.9379
 20
25.4469
 11
52.3116
 21
25.4941
  0
LINE
  8
0
 10
52.3116
 20
25.4941
 11
52.6884
 21
25.4941
  0
LINE
  8
0
 10
52.6884
 20
25.4941
 11
53.0621
 21
25.4469
  0
LINE
  8
0
 10
53.0621
 20
25.4469
 11
53.427
 21
25.3532
  0
LINE
  8
0
 10
53.427
 20
25.3532
 11
53.7773
 21
25.2145
  0
LINE
  8
0
 10
53.7773
 20
25.2145
 11
54.1075
 21
25.033
  0
LINE
  8
0
 10
54.1075
 20
25.033
 11
54.4123
 21
24.8115
  0
LINE
  8
0
 10
54.4123
 20
24.8115
 11
54.6869
 21
24.5536
  0
LINE
  8
0
 10
54.6869
 20
24.5536
 11
54.927
 21
24.2634
  0
LINE
  8
0
 10
54.927
 20
24.2634
 11
55.1289
 21
23.9453
  0
LINE
  8
0
 10
55.1289
 20
23.9453
 11
55.2893
 21
23.6044
  0
LINE
  8
0
 10
55.2893
 20
23.6044
 11
55.4057
 21
23.2461
  0
LINE
  8
0
 10
55.4057
 20
23.2461
 11
55.4763
 21
22.876
  0
LINE
  8
0
 10
55.4763
 20
22.876
 11
55.5
 21
22.5
  0
LINE
  8
0
 10
55.5
 20
22.5
 11
55.4763
 21
22.124
  0
LINE
  8
0
 10
55.4763
 20
22.124
 11
55.4057
 21
21.7539
  0
LINE
  8
0
 10
55.4057
 20
21.7539
 11
55.2893
 21
21.3956
  0
LINE
  8
0
 10
55.2893
 20
21.3956
 11
55.1289
 21
21.0547
  0
LINE
  8
0
 10
55.1289
 20
21.0547
 11
54.927
 21
20.7366
  0
LINE
  8
0
 10
54.927
 20
20.7366
 11
54.6869
 21
20.4464
  0
LINE
  8
0
 10
54.6869
 20
20.4464
 11
54.4123
 21
20.1884
  0
LINE
  8
0
 10
54.4123
 20
20.1884
 11
54.1075
 21
19.967
  0
LINE
  8
0
 10
54.1075
 20
19.967
 11
53.7773
 21
19.7855
  0
LINE
  8
0
 10
53.7773
 20
19.7855
 11
53.427
 21
19.6468
  0
LINE
  8
0
 10
53.427
 20
19.6468
 11
53.0621
 21
19.5531
  0
LINE
  8
0
 10
53.0621
 20
19.5531
 11
52.6884
 21
19.5059
  0
LINE
  8
0
 10
52.6884
 20
19.5059
 11
52.3116
 21
19.5059
  0
LINE
  8
0
 10
59.9058
 20
21.003
 11
59.7189
 21
21.0266
  0
LINE
  8
0
 10
59.7189
 20
21.0266
 11
59.5365
 21
21.0734
  0
LINE
  8
0
 10
59.5365
 20
21.0734
 11
59.3613
 21
21.1427
  0
LINE
  8
0
 10
59.3613
 20
21.1427
 11
59.1963
 21
21.2335
  0
LINE
  8
0
 10
59.1963
 20
21.2335
 11
59.0439
 21
21.3442
  0
LINE
  8
0
 10
59.0439
 20
21.3442
 11
58.9065
 21
21.4732
  0
LINE
  8
0
 10
58.9065
 20
21.4732
 11
58.7865
 21
21.6183
  0
LINE
  8
0
 10
58.7865
 20
21.6183
 11
58.6855
 21
21.7774
  0
LINE
  8
0
 10
58.6855
 20
21.7774
 11
58.6053
 21
21.9478
  0
LINE
  8
0
 10
58.6053
 20
21.9478
 11
58.5471
 21
22.127
  0
LINE
  8
0
 10
58.5471
 20
22.127
 11
58.5118
 21
22.312
  0
LINE
  8
0
 10
58.5118
 20
22.312
 11
58.5
 21
22.5
  0
LINE
  8
0
 10
58.5
 20
22.5
 11
58.5118
 21
22.688
  0
LINE
  8
0
 10
58.5118
 20
22.688
 11
58.5471
 21
22.873
  0
LINE
  8
0
 10
58.5471
 20
22.873
 11
58.6053
 21
23.0522
  0
LINE
  8
0
 10
58.6053
 20
23.0522
 11
58.6855
 21
23.2226
  0
LINE
  8
0
 10
58.6855
 20
23.2226
 11
58.7865
 21
23.3817
  0
LINE
  8
0
 10
58.7865
 20
23.3817
 11
58.9065
 21
23.5268
  0
LINE
  8
0
 10
58.9065
 20
23.5268
 11
59.0439
 21
23.6558
  0
LINE
  8
0
 10
59.0439
 20
23.6558
 11
59.1963
 21
23.7665
  0
LINE
  8
0
 10
59.1963
 20
23.7665
 11
59.3613
 21
23.8572
  0
LINE
  8
0
 10
59.3613
 20
23.8572
 11
59.5365
 21
23.9266
  0
LINE
  8
0
 10
59.5365
 20
23.9266
 11
59.7189
 21
23.9734
  0
LINE
  8
0
 10
59.7189
 20
23.9734
 11
59.9058
 21
23.997
  0
LINE
  8
0
 10
59.9058
 20
23.997
 11
60.0942
 21
23.997
  0
LINE
  8
0
 10
60.0942
 20
23.997
 11
60.2811
 21
23.9734
  0
LINE
  8
0
 10
60.2811
 20
23.9734
 11
60.4635
 21
23.9266
  0
LINE
  8
0
 10
60.4635
 20
23.9266
 11
60.6387
 21
23.8572
  0
LINE
  8
0
 10
60.6387
 20
23.8572
 11
60.8037
 21
23.7665
  0
LINE
  8
0
 10
60.8037
 20
23.7665
 11
60.9561
 21
23.6558
  0
LINE
  8
0
 10
60.9561
 20
23.6558
 11
61.0934
 21
23.5268
  0
LINE
  8
0
 10
61.0934
 20
23.5268
 11
61.2135
 21
23.3817
  0
LINE
  8
0
 10
61.2135
 20
23.3817
 11
61.3145
 21
23.2226
  0
LINE
  8
0
 10
61.3145
 20
23.2226
 11
61.3947
 21
23.0522
  0
LINE
  8
0
 10
61.3947
 20
23.0522
 11
61.4529
 21
22.873
  0
LINE
  8
0
 10
61.4529
 20
22.873
 11
61.4882
 21
22.688
  0
LINE
  8
0
 10
61.4882
 20
22.688
 11
61.5
 21
22.5
  0
LINE
  8
0
 10
61.5
 20
22.5
 11
61.4882
 21
22.312
  0
LINE
  8
0
 10
61.4882
 20
22.312
 11
61.4529
 21
22.127
  0
LINE
  8
0
 10
61.4529
 20
22.127
 11
61.3947
 21
21.9478
  0
LINE
  8
0
 10
61.3947
 20
21.9478
 11
61.3145
 21
21.7774
  0
LINE
  8
0
 10
61.3145
 20
21.7774
 11
61.2135
 21
21.6183
  0
LINE
  8
0
 10
61.2135
 20
21.6183
 11
61.0934
 21
21.4732
  0
LINE
  8
0
 10
61.0934
 20
21.4732
 11
60.9561
 21
21.3442
  0
LINE
  8
0
 10
60.9561
 20
21.3442
 11
60.8037
 21
21.2335
  0
LINE
  8
0
 10
60.8037
 20
21.2335
 11
60.6387
 21
21.1427
  0
LINE
  8
0
 10
60.6387
 20
21.1427
 11
60.4635
 21
21.0734
  0
LINE
  8
0
 10
60.4635
 20
21.0734
 11
60.2811
 21
21.0266
  0
LINE
  8
0
 10
60.2811
 20
21.0266
 11
60.0942
 21
21.003
  0
LINE
  8
0
 10
60.0942
 20
21.003
 11
59.9058
 21
21.003
  0
LINE
  8
0
 10
52.387
 20
13.2036
 11
52.1627
 21
13.2319
  0
LINE
  8
0
 10
52.1627
 20
13.2319
 11
51.9438
 21
13.2881
  0
LINE
  8
0
 10
51.9438
 20
13.2881
 11
51.7336
 21
13.3713
  0
LINE
  8
0
 10
51.7336
 20
13.3713
 11
51.5355
 21
13.4802
  0
LINE
  8
0
 10
51.5355
 20
13.4802
 11
51.3526
 21
13.6131
  0
LINE
  8
0
 10
51.3526
 20
13.6131
 11
51.1879
 21
13.7678
  0
LINE
  8
0
 10
51.1879
 20
13.7678
 11
51.0438
 21
13.942
  0
LINE
  8
0
 10
51.0438
 20
13.942
 11
50.9226
 21
14.1328
  0
LINE
  8
0
 10
50.9226
 20
14.1328
 11
50.8264
 21
14.3374
  0
LINE
  8
0
 10
50.8264
 20
14.3374
 11
50.7565
 21
14.5524
  0
LINE
  8
0
 10
50.7565
 20
14.5524
 11
50.7142
 21
14.7744
  0
LINE
  8
0
 10
50.7142
 20
14.7744
 11
50.7
 21
15
  0
LINE
  8
0
 10
50.7
 20
15
 11
50.7142
 21
15.2256
  0
LINE
  8
0
 10
50.7142
 20
15.2256
 11
50.7565
 21
15.4476
  0
LINE
  8
0
 10
50.7565
 20
15.4476
 11
50.8264
 21
15.6626
  0
LINE
  8
0
 10
50.8264
 20
15.6626
 11
50.9226
 21
15.8671
  0
LINE
  8
0
 10
50.9226
 20
15.8671
 11
51.0438
 21
16.058
  0
LINE
  8
0
 10
51.0438
 20
16.058
 11
51.1879
 21
16.2322
  0
LINE
  8
0
 10
51.1879
 20
16.2322
 11
51.3526
 21
16.3869
  0
LINE
  8
0
 10
51.3526
 20
16.3869
 11
51.5355
 21
16.5198
  0
LINE
  8
0
 10
51.5355
 20
16.5198
 11
51.7336
 21
16.6287
  0
LINE
  8
0
 10
51.7336
 20
16.6287
 11
51.9438
 21
16.7119
  0
LINE
  8
0
 10
51.9438
 20
16.7119
 11
52.1627
 21
16.7681
  0
LINE
  8
0
 10
52.1627
 20
16.7681
 11
52.387
 21
16.7964
  0
LINE
  8
0
 10
52.387
 20
16.7964
 11
52.613
 21
16.7964
  0
LINE
  8
0
 10
52.613
 20
16.7964
 11
52.8373
 21
16.7681
  0
LINE
  8
0
 10
52.8373
 20
16.7681
 11
53.0562
 21
16.7119
  0
LINE
  8
0
 10
53.0562
 20
16.7119
 11
53.2664
 21
16.6287
  0
LINE
  8
0
 10
53.2664
 20
16.6287
 11
53.4645
 21
16.5198
  0
LINE
  8
0
 10
53.4645
 20
16.5198
 11
53.6474
 21
16.3869
  0
LINE
  8
0
 10
53.6474
 20
16.3869
 11
53.8121
 21
16.2322
  0
LINE
  8
0
 10
53.8121
 20
16.2322
 11
53.9562
 21
16.058
  0
LINE
  8
0
 10
53.9562
 20
16.058
 11
54.0773
 21
15.8671
  0
LINE
  8
0
 10
54.0773
 20
15.8671
 11
54.1736
 21
15.6626
  0
LINE
  8
0
 10
54.1736
 20
15.6626
 11
54.2434
 21
15.4476
  0
LINE
  8
0
 10
54.2434
 20
15.4476
 11
54.2858
 21
15.2256
  0
LINE
  8
0
 10
54.2858
 20
15.2256
 11
54.3
 21
15
  0
LINE
  8
0
 10
54.3
 20
15
 11
54.2858
 21
14.7744
  0
LINE
  8
0
 10
54.2858
 20
14.7744
 11
54.2434
 21
14.5524
  0
LINE
  8
0
 10
54.2434
 20
14.5524
 11
54.1736
 21
14.3374
  0
LINE
  8
0
 10
54.1736
 20
14.3374
 11
54.0773
 21
14.1328
  0
LINE
  8
0
 10
54.0773
 20
14.1328
 11
53.9562
 21
13.942
  0
LINE
  8
0
 10
53.9562
 20
13.942
 11
53.8121
 21
13.7678
  0
LINE
  8
0
 10
53.8121
 20
13.7678
 11
53.6474
 21
13.6131
  0
LINE
  8
0
 10
53.6474
 20
13.6131
 11
53.4645
 21
13.4802
  0
LINE
  8
0
 10
53.4645
 20
13.4802
 11
53.2664
 21
13.3713
  0
LINE
  8
0
 10
53.2664
 20
13.3713
 11
53.0562
 21
13.2881
  0
LINE
  8
0
 10
53.0562
 20
13.2881
 11
52.8373
 21
13.2319
  0
LINE
  8
0
 10
52.8373
 20
13.2319
 11
52.613
 21
13.2036
  0
LINE
  8
0
 10
52.613
 20
13.2036
 11
52.387
 21
13.2036
  0
LINE
  8
0
 10
67.387
 20
13.2036
 11
67.1627
 21
13.2319
  0
LINE
  8
0
 10
67.1627
 20
13.2319
 11
66.9438
 21
13.2881
  0
LINE
  8
0
 10
66.9438
 20
13.2881
 11
66.7336
 21
13.3713
  0
LINE
  8
0
 10
66.7336
 20
13.3713
 11
66.5355
 21
13.4802
  0
LINE
  8
0
 10
66.5355
 20
13.4802
 11
66.3526
 21
13.6131
  0
LINE
  8
0
 10
66.3526
 20
13.6131
 11
66.1879
 21
13.7678
  0
LINE
  8
0
 10
66.1879
 20
13.7678
 11
66.0438
 21
13.942
  0
LINE
  8
0
 10
66.0438
 20
13.942
 11
65.9226
 21
14.1328
  0
LINE
  8
0
 10
65.9226
 20
14.1328
 11
65.8264
 21
14.3374
  0
LINE
  8
0
 10
65.8264
 20
14.3374
 11
65.7565
 21
14.5524
  0
LINE
  8
0
 10
65.7565
 20
14.5524
 11
65.7142
 21
14.7744
  0
LINE
  8
0
 10
65.7142
 20
14.7744
 11
65.7
 21
15
  0
LINE
  8
0
 10
65.7
 20
15
 11
65.7142
 21
15.2256
  0
LINE
  8
0
 10
65.7142
 20
15.2256
 11
65.7565
 21
15.4476
  0
LINE
  8
0
 10
65.7565
 20
15.4476
 11
65.8264
 21
15.6626
  0
LINE
  8
0
 10
65.8264
 20
15.6626
 11
65.9226
 21
15.8671
  0
LINE
  8
0
 10
65.9226
 20
15.8671
 11
66.0438
 21
16.058
  0
LINE
  8
0
 10
66.0438
 20
16.058
 11
66.1879
 21
16.2322
  0
LINE
  8
0
 10
66.1879
 20
16.2322
 11
66.3526
 21
16.3869
  0
LINE
  8
0
 10
66.3526
 20
16.3869
 11
66.5355
 21
16.5198
  0
LINE
  8
0
 10
66.5355
 20
16.5198
 11
66.7336
 21
16.6287
  0
LINE
  8
0
 10
66.7336
 20
16.6287
 11
66.9438
 21
16.7119
  0
LINE
  8
0
 10
66.9438
 20
16.7119
 11
67.1627
 21
16.7681
  0
LINE
  8
0
 10
67.1627
 20
16.7681
 11
67.387
 21
16.7964
  0
LINE
  8
0
 10
67.387
 20
16.7964
 11
67.613
 21
16.7964
  0
LINE
  8
0
 10
67.613
 20
16.7964
 11
67.8373
 21
16.7681
  0
LINE
  8
0
 10
67.8373
 20
16.7681
 11
68.0562
 21
16.7119
  0
LINE
  8
0
 10
68.0562
 20
16.7119
 11
68.2664
 21
16.6287
  0
LINE
  8
0
 10
68.2664
 20
16.6287
 11
68.4645
 21
16.5198
  0
LINE
  8
0
 10
68.4645
 20
16.5198
 11
68.6474
 21
16.3869
  0
LINE
  8
0
 10
68.6474
 20
16.3869
 11
68.8121
 21
16.2322
  0
LINE
  8
0
 10
68.8121
 20
16.2322
 11
68.9562
 21
16.058
  0
LINE
  8
0
 10
68.9562
 20
16.058
 11
69.0773
 21
15.8671
  0
LINE
  8
0
 10
69.0773
 20
15.8671
 11
69.1736
 21
15.6626
  0
LINE
  8
0
 10
69.1736
 20
15.6626
 11
69.2434
 21
15.4476
  0
LINE
  8
0
 10
69.2434
 20
15.4476
 11
69.2858
 21
15.2256
  0
LINE
  8
0
 10
69.2858
 20
15.2256
 11
69.3
 21
15
  0
LINE
  8
0
 10
69.3
 20
15
 11
69.2858
 21
14.7744
  0
LINE
  8
0
 10
69.2858
 20
14.7744
 11
69.2434
 21
14.5524
  0
LINE
  8
0
 10
69.2434
 20
14.5524
 11
69.1736
 21
14.3374
  0
LINE
  8
0
 10
69.1736
 20
14.3374
 11
69.0773
 21
14.1328
  0
LINE
  8
0
 10
69.0773
 20
14.1328
 11
68.9562
 21
13.942
  0
LINE
  8
0
 10
68.9562
 20
13.942
 11
68.8121
 21
13.7678
  0
LINE
  8
0
 10
68.8121
 20
13.7678
 11
68.6474
 21
13.6131
  0
LINE
  8
0
 10
68.6474
 20
13.6131
 11
68.4645
 21
13.4802
  0
LINE
  8
0
 10
68.4645
 20
13.4802
 11
68.2664
 21
13.3713
  0
LINE
  8
0
 10
68.2664
 20
13.3713
 11
68.0562
 21
13.2881
  0
LINE
  8
0
 10
68.0562
 20
13.2881
 11
67.8373
 21
13.2319
  0
LINE
  8
0
 10
67.8373
 20
13.2319
 11
67.613
 21
13.2036
  0
LINE
  8
0
 10
67.613
 20
13.2036
 11
67.387
 21
13.2036
  0
ENDSEC
  0
SECTION
  2
OBJECTS
  0
DICTIONARY
  0
ENDSEC
  0
EOF
