  0
SECTION
  2
BLOCKS
  0
ENDSEC
  0
SECTION
  2
ENTITIES
  0
LINE
  8
0
 10
25.4369
 20
-29.4114
 11
26.0451
 21
-29.2553
  0
LINE
  8
0
 10
26.0451
 20
-29.2553
 11
26.6289
 21
-29.0241
  0
LINE
  8
0
 10
26.6289
 20
-29.0241
 11
27.1791
 21
-28.7216
  0
LINE
  8
0
 10
27.1791
 20
-28.7216
 11
27.6871
 21
-28.3526
  0
LINE
  8
0
 10
27.6871
 20
-28.3526
 11
28.1448
 21
-27.9227
  0
LINE
  8
0
 10
28.1448
 20
-27.9227
 11
28.5451
 21
-27.4389
  0
LINE
  8
0
 10
28.5451
 20
-27.4389
 11
28.8815
 21
-26.9088
  0
LINE
  8
0
 10
28.8815
 20
-26.9088
 11
29.1489
 21
-26.3406
  0
LINE
  8
0
 10
29.1489
 20
-26.3406
 11
29.3429
 21
-25.7434
  0
LINE
  8
0
 10
29.3429
 20
-25.7434
 11
29.4606
 21
-25.1267
  0
LINE
  8
0
 10
29.4606
 20
-25.1267
 11
29.5
 21
-24.5
  0
LINE
  8
0
 10
29.5
 20
-24.5
 11
29.5
 21
24.5
  0
LINE
  8
0
 10
29.5
 20
24.5
 11
29.4606
 21
25.1267
  0
LINE
  8
0
 10
29.4606
 20
25.1267
 11
29.3429
 21
25.7434
  0
LINE
  8
0
 10
29.3429
 20
25.7434
 11
29.1489
 21
26.3406
  0
LINE
  8
0
 10
29.1489
 20
26.3406
 11
28.8815
 21
26.9088
  0
LINE
  8
0
 10
28.8815
 20
26.9088
 11
28.5451
 21
27.4389
  0
LINE
  8
0
 10
28.5451
 20
27.4389
 11
28.1448
 21
27.9227
  0
LINE
  8
0
 10
28.1448
 20
27.9227
 11
27.6871
 21
28.3526
  0
LINE
  8
0
 10
27.6871
 20
28.3526
 11
27.1791
 21
28.7216
  0
LINE
  8
0
 10
27.1791
 20
28.7216
 11
26.6289
 21
29.0241
  0
LINE
  8
0
 10
26.6289
 20
29.0241
 11
26.0451
 21
29.2553
  0
LINE
  8
0
 10
26.0451
 20
29.2553
 11
25.4369
 21
29.4114
  0
LINE
  8
0
 10
25.4369
 20
29.4114
 11
24.8139
 21
29.4901
  0
LINE
  8
0
 10
24.8139
 20
29.4901
 11
-24.8139
 21
29.4901
  0
LINE
  8
0
 10
-24.8139
 20
29.4901
 11
-25.4369
 21
29.4114
  0
LINE
  8
0
 10
-25.4369
 20
29.4114
 11
-26.0451
 21
29.2553
  0
LINE
  8
0
 10
-26.0451
 20
29.2553
 11
-26.6289
 21
29.0241
  0
LINE
  8
0
 10
-26.6289
 20
29.0241
 11
-27.1791
 21
28.7216
  0
LINE
  8
0
 10
-27.1791
 20
28.7216
 11
-27.6871
 21
28.3526
  0
LINE
  8
0
 10
-27.6871
 20
28.3526
 11
-28.1448
 21
27.9227
  0
LINE
  8
0
 10
-28.1448
 20
27.9227
 11
-28.5451
 21
27.4389
  0
LINE
  8
0
 10
-28.5451
 20
27.4389
 11
-28.8815
 21
26.9088
  0
LINE
  8
0
 10
-28.8815
 20
26.9088
 11
-29.1489
 21
26.3406
  0
LINE
  8
0
 10
-29.1489
 20
26.3406
 11
-29.3429
 21
25.7434
  0
LINE
  8
0
 10
-29.3429
 20
25.7434
 11
-29.4606
 21
25.1267
  0
LINE
  8
0
 10
-29.4606
 20
25.1267
 11
-29.5
 21
24.5
  0
LINE
  8
0
 10
-29.5
 20
24.5
 11
-29.5
 21
-24.5
  0
LINE
  8
0
 10
-29.5
 20
-24.5
 11
-29.4606
 21
-25.1267
  0
LINE
  8
0
 10
-29.4606
 20
-25.1267
 11
-29.3429
 21
-25.7434
  0
LINE
  8
0
 10
-29.3429
 20
-25.7434
 11
-29.1489
 21
-26.3406
  0
LINE
  8
0
 10
-29.1489
 20
-26.3406
 11
-28.8815
 21
-26.9088
  0
LINE
  8
0
 10
-28.8815
 20
-26.9088
 11
-28.5451
 21
-27.4389
  0
LINE
  8
0
 10
-28.5451
 20
-27.4389
 11
-28.1448
 21
-27.9227
  0
LINE
  8
0
 10
-28.1448
 20
-27.9227
 11
-27.6871
 21
-28.3526
  0
LINE
  8
0
 10
-27.6871
 20
-28.3526
 11
-27.1791
 21
-28.7216
  0
LINE
  8
0
 10
-27.1791
 20
-28.7216
 11
-26.6289
 21
-29.0241
  0
LINE
  8
0
 10
-26.6289
 20
-29.0241
 11
-26.0451
 21
-29.2553
  0
LINE
  8
0
 10
-26.0451
 20
-29.2553
 11
-25.4369
 21
-29.4114
  0
LINE
  8
0
 10
-25.4369
 20
-29.4114
 11
-24.8139
 21
-29.4901
  0
LINE
  8
0
 10
-24.8139
 20
-29.4901
 11
24.8139
 21
-29.4901
  0
LINE
  8
0
 10
24.8139
 20
-29.4901
 11
25.4369
 21
-29.4114
  0
LINE
  8
0
 10
-7.68837
 20
19.5059
 11
-8.06213
 21
19.5531
  0
LINE
  8
0
 10
-8.06213
 20
19.5531
 11
-8.42705
 21
19.6468
  0
LINE
  8
0
 10
-8.42705
 20
19.6468
 11
-8.77733
 21
19.7855
  0
LINE
  8
0
 10
-8.77733
 20
19.7855
 11
-9.10747
 21
19.967
  0
LINE
  8
0
 10
-9.10747
 20
19.967
 11
-9.41226
 21
20.1884
  0
LINE
  8
0
 10
-9.41226
 20
20.1884
 11
-9.6869
 21
20.4464
  0
LINE
  8
0
 10
-9.6869
 20
20.4464
 11
-9.92705
 21
20.7366
  0
LINE
  8
0
 10
-9.92705
 20
20.7366
 11
-10.1289
 21
21.0547
  0
LINE
  8
0
 10
-10.1289
 20
21.0547
 11
-10.2893
 21
21.3956
  0
LINE
  8
0
 10
-10.2893
 20
21.3956
 11
-10.4057
 21
21.7539
  0
LINE
  8
0
 10
-10.4057
 20
21.7539
 11
-10.4763
 21
22.124
  0
LINE
  8
0
 10
-10.4763
 20
22.124
 11
-10.5
 21
22.5
  0
LINE
  8
0
 10
-10.5
 20
22.5
 11
-10.4763
 21
22.876
  0
LINE
  8
0
 10
-10.4763
 20
22.876
 11
-10.4057
 21
23.2461
  0
LINE
  8
0
 10
-10.4057
 20
23.2461
 11
-10.2893
 21
23.6044
  0
LINE
  8
0
 10
-10.2893
 20
23.6044
 11
-10.1289
 21
23.9453
  0
LINE
  8
0
 10
-10.1289
 20
23.9453
 11
-9.92705
 21
24.2634
  0
LINE
  8
0
 10
-9.92705
 20
24.2634
 11
-9.6869
 21
24.5536
  0
LINE
  8
0
 10
-9.6869
 20
24.5536
 11
-9.41226
 21
24.8115
  0
LINE
  8
0
 10
-9.41226
 20
24.8115
 11
-9.10747
 21
25.033
  0
LINE
  8
0
 10
-9.10747
 20
25.033
 11
-8.77733
 21
25.2145
  0
LINE
  8
0
 10
-8.77733
 20
25.2145
 11
-8.42705
 21
25.3532
  0
LINE
  8
0
 10
-8.42705
 20
25.3532
 11
-8.06213
 21
25.4469
  0
LINE
  8
0
 10
-8.06213
 20
25.4469
 11
-7.68837
 21
25.4941
  0
LINE
  8
0
 10
-7.68837
 20
25.4941
 11
-7.31161
 21
25.4941
  0
LINE
  8
0
 10
-7.31161
 20
25.4941
 11
-6.93785
 21
25.4469
  0
LINE
  8
0
 10
-6.93785
 20
25.4469
 11
-6.57294
 21
25.3532
  0
LINE
  8
0
 10
-6.57294
 20
25.3532
 11
-6.22266
 21
25.2145
  0
LINE
  8
0
 10
-6.22266
 20
25.2145
 11
-5.89252
 21
25.033
  0
LINE
  8
0
 10
-5.89252
 20
25.033
 11
-5.58772
 21
24.8115
  0
LINE
  8
0
 10
-5.58772
 20
24.8115
 11
-5.31308
 21
24.5536
  0
LINE
  8
0
 10
-5.31308
 20
24.5536
 11
-5.07294
 21
24.2634
  0
LINE
  8
0
 10
-5.07294
 20
24.2634
 11
-4.87108
 21
23.9453
  0
LINE
  8
0
 10
-4.87108
 20
23.9453
 11
-4.71066
 21
23.6044
  0
LINE
  8
0
 10
-4.71066
 20
23.6044
 11
-4.59424
 21
23.2461
  0
LINE
  8
0
 10
-4.59424
 20
23.2461
 11
-4.52365
 21
22.876
  0
LINE
  8
0
 10
-4.52365
 20
22.876
 11
-4.5
 21
22.5
  0
LINE
  8
0
 10
-4.5
 20
22.5
 11
-4.52365
 21
22.124
  0
LINE
  8
0
 10
-4.52365
 20
22.124
 11
-4.59424
 21
21.7539
  0
LINE
  8
0
 10
-4.59424
 20
21.7539
 11
-4.71066
 21
21.3956
  0
LINE
  8
0
 10
-4.71066
 20
21.3956
 11
-4.87108
 21
21.0547
  0
LINE
  8
0
 10
-4.87108
 20
21.0547
 11
-5.07294
 21
20.7366
  0
LINE
  8
0
 10
-5.07294
 20
20.7366
 11
-5.31308
 21
20.4464
  0
LINE
  8
0
 10
-5.31308
 20
20.4464
 11
-5.58772
 21
20.1884
  0
LINE
  8
0
 10
-5.58772
 20
20.1884
 11
-5.89252
 21
19.967
  0
LINE
  8
0
 10
-5.89252
 20
19.967
 11
-6.22266
 21
19.7855
  0
LINE
  8
0
 10
-6.22266
 20
19.7855
 11
-6.57294
 21
19.6468
  0
LINE
  8
0
 10
-6.57294
 20
19.6468
 11
-6.93785
 21
19.5531
  0
LINE
  8
0
 10
-6.93785
 20
19.5531
 11
-7.31161
 21
19.5059
  0
LINE
  8
0
 10
-7.31161
 20
19.5059
 11
-7.68837
 21
19.5059
  0
LINE
  8
0
 10
22.3116
 20
19.5059
 11
21.9379
 21
19.5531
  0
LINE
  8
0
 10
21.9379
 20
19.5531
 11
21.5729
 21
19.6468
  0
LINE
  8
0
 10
21.5729
 20
19.6468
 11
21.2227
 21
19.7855
  0
LINE
  8
0
 10
21.2227
 20
19.7855
 11
20.8925
 21
19.967
  0
LINE
  8
0
 10
20.8925
 20
19.967
 11
20.5877
 21
20.1884
  0
LINE
  8
0
 10
20.5877
 20
20.1884
 11
20.3131
 21
20.4464
  0
LINE
  8
0
 10
20.3131
 20
20.4464
 11
20.0729
 21
20.7366
  0
LINE
  8
0
 10
20.0729
 20
20.7366
 11
19.8711
 21
21.0547
  0
LINE
  8
0
 10
19.8711
 20
21.0547
 11
19.7107
 21
21.3956
  0
LINE
  8
0
 10
19.7107
 20
21.3956
 11
19.5942
 21
21.7539
  0
LINE
  8
0
 10
19.5942
 20
21.7539
 11
19.5237
 21
22.124
  0
LINE
  8
0
 10
19.5237
 20
22.124
 11
19.5
 21
22.5
  0
LINE
  8
0
 10
19.5
 20
22.5
 11
19.5237
 21
22.876
  0
LINE
  8
0
 10
19.5237
 20
22.876
 11
19.5942
 21
23.2461
  0
LINE
  8
0
 10
19.5942
 20
23.2461
 11
19.7107
 21
23.6044
  0
LINE
  8
0
 10
19.7107
 20
23.6044
 11
19.8711
 21
23.9453
  0
LINE
  8
0
 10
19.8711
 20
23.9453
 11
20.0729
 21
24.2634
  0
LINE
  8
0
 10
20.0729
 20
24.2634
 11
20.3131
 21
24.5536
  0
LINE
  8
0
 10
20.3131
 20
24.5536
 11
20.5877
 21
24.8115
  0
LINE
  8
0
 10
20.5877
 20
24.8115
 11
20.8925
 21
25.033
  0
LINE
  8
0
 10
20.8925
 20
25.033
 11
21.2227
 21
25.2145
  0
LINE
  8
0
 10
21.2227
 20
25.2145
 11
21.5729
 21
25.3532
  0
LINE
  8
0
 10
21.5729
 20
25.3532
 11
21.9379
 21
25.4469
  0
LINE
  8
0
 10
21.9379
 20
25.4469
 11
22.3116
 21
25.4941
  0
LINE
  8
0
 10
22.3116
 20
25.4941
 11
22.6884
 21
25.4941
  0
LINE
  8
0
 10
22.6884
 20
25.4941
 11
23.0621
 21
25.4469
  0
LINE
  8
0
 10
23.0621
 20
25.4469
 11
23.427
 21
25.3532
  0
LINE
  8
0
 10
23.427
 20
25.3532
 11
23.7773
 21
25.2145
  0
LINE
  8
0
 10
23.7773
 20
25.2145
 11
24.1075
 21
25.033
  0
LINE
  8
0
 10
24.1075
 20
25.033
 11
24.4123
 21
24.8115
  0
LINE
  8
0
 10
24.4123
 20
24.8115
 11
24.6869
 21
24.5536
  0
LINE
  8
0
 10
24.6869
 20
24.5536
 11
24.927
 21
24.2634
  0
LINE
  8
0
 10
24.927
 20
24.2634
 11
25.1289
 21
23.9453
  0
LINE
  8
0
 10
25.1289
 20
23.9453
 11
25.2893
 21
23.6044
  0
LINE
  8
0
 10
25.2893
 20
23.6044
 11
25.4057
 21
23.2461
  0
LINE
  8
0
 10
25.4057
 20
23.2461
 11
25.4763
 21
22.876
  0
LINE
  8
0
 10
25.4763
 20
22.876
 11
25.5
 21
22.5
  0
LINE
  8
0
 10
25.5
 20
22.5
 11
25.4763
 21
22.124
  0
LINE
  8
0
 10
25.4763
 20
22.124
 11
25.4057
 21
21.7539
  0
LINE
  8
0
 10
25.4057
 20
21.7539
 11
25.2893
 21
21.3956
  0
LINE
  8
0
 10
25.2893
 20
21.3956
 11
25.1289
 21
21.0547
  0
LINE
  8
0
 10
25.1289
 20
21.0547
 11
24.927
 21
20.7366
  0
LINE
  8
0
 10
24.927
 20
20.7366
 11
24.6869
 21
20.4464
  0
LINE
  8
0
 10
24.6869
 20
20.4464
 11
24.4123
 21
20.1884
  0
LINE
  8
0
 10
24.4123
 20
20.1884
 11
24.1075
 21
19.967
  0
LINE
  8
0
 10
24.1075
 20
19.967
 11
23.7773
 21
19.7855
  0
LINE
  8
0
 10
23.7773
 20
19.7855
 11
23.427
 21
19.6468
  0
LINE
  8
0
 10
23.427
 20
19.6468
 11
23.0621
 21
19.5531
  0
LINE
  8
0
 10
23.0621
 20
19.5531
 11
22.6884
 21
19.5059
  0
LINE
  8
0
 10
22.6884
 20
19.5059
 11
22.3116
 21
19.5059
  0
LINE
  8
0
 10
-22.6884
 20
19.5059
 11
-23.0621
 21
19.5531
  0
LINE
  8
0
 10
-23.0621
 20
19.5531
 11
-23.427
 21
19.6468
  0
LINE
  8
0
 10
-23.427
 20
19.6468
 11
-23.7773
 21
19.7855
  0
LINE
  8
0
 10
-23.7773
 20
19.7855
 11
-24.1075
 21
19.967
  0
LINE
  8
0
 10
-24.1075
 20
19.967
 11
-24.4123
 21
20.1884
  0
LINE
  8
0
 10
-24.4123
 20
20.1884
 11
-24.6869
 21
20.4464
  0
LINE
  8
0
 10
-24.6869
 20
20.4464
 11
-24.927
 21
20.7366
  0
LINE
  8
0
 10
-24.927
 20
20.7366
 11
-25.1289
 21
21.0547
  0
LINE
  8
0
 10
-25.1289
 20
21.0547
 11
-25.2893
 21
21.3956
  0
LINE
  8
0
 10
-25.2893
 20
21.3956
 11
-25.4057
 21
21.7539
  0
LINE
  8
0
 10
-25.4057
 20
21.7539
 11
-25.4763
 21
22.124
  0
LINE
  8
0
 10
-25.4763
 20
22.124
 11
-25.5
 21
22.5
  0
LINE
  8
0
 10
-25.5
 20
22.5
 11
-25.4763
 21
22.876
  0
LINE
  8
0
 10
-25.4763
 20
22.876
 11
-25.4057
 21
23.2461
  0
LINE
  8
0
 10
-25.4057
 20
23.2461
 11
-25.2893
 21
23.6044
  0
LINE
  8
0
 10
-25.2893
 20
23.6044
 11
-25.1289
 21
23.9453
  0
LINE
  8
0
 10
-25.1289
 20
23.9453
 11
-24.927
 21
24.2634
  0
LINE
  8
0
 10
-24.927
 20
24.2634
 11
-24.6869
 21
24.5536
  0
LINE
  8
0
 10
-24.6869
 20
24.5536
 11
-24.4123
 21
24.8115
  0
LINE
  8
0
 10
-24.4123
 20
24.8115
 11
-24.1075
 21
25.033
  0
LINE
  8
0
 10
-24.1075
 20
25.033
 11
-23.7773
 21
25.2145
  0
LINE
  8
0
 10
-23.7773
 20
25.2145
 11
-23.427
 21
25.3532
  0
LINE
  8
0
 10
-23.427
 20
25.3532
 11
-23.0621
 21
25.4469
  0
LINE
  8
0
 10
-23.0621
 20
25.4469
 11
-22.6884
 21
25.4941
  0
LINE
  8
0
 10
-22.6884
 20
25.4941
 11
-22.3116
 21
25.4941
  0
LINE
  8
0
 10
-22.3116
 20
25.4941
 11
-21.9379
 21
25.4469
  0
LINE
  8
0
 10
-21.9379
 20
25.4469
 11
-21.5729
 21
25.3532
  0
LINE
  8
0
 10
-21.5729
 20
25.3532
 11
-21.2227
 21
25.2145
  0
LINE
  8
0
 10
-21.2227
 20
25.2145
 11
-20.8925
 21
25.033
  0
LINE
  8
0
 10
-20.8925
 20
25.033
 11
-20.5877
 21
24.8115
  0
LINE
  8
0
 10
-20.5877
 20
24.8115
 11
-20.3131
 21
24.5536
  0
LINE
  8
0
 10
-20.3131
 20
24.5536
 11
-20.0729
 21
24.2634
  0
LINE
  8
0
 10
-20.0729
 20
24.2634
 11
-19.8711
 21
23.9453
  0
LINE
  8
0
 10
-19.8711
 20
23.9453
 11
-19.7107
 21
23.6044
  0
LINE
  8
0
 10
-19.7107
 20
23.6044
 11
-19.5942
 21
23.2461
  0
LINE
  8
0
 10
-19.5942
 20
23.2461
 11
-19.5237
 21
22.876
  0
LINE
  8
0
 10
-19.5237
 20
22.876
 11
-19.5
 21
22.5
  0
LINE
  8
0
 10
-19.5
 20
22.5
 11
-19.5237
 21
22.124
  0
LINE
  8
0
 10
-19.5237
 20
22.124
 11
-19.5942
 21
21.7539
  0
LINE
  8
0
 10
-19.5942
 20
21.7539
 11
-19.7107
 21
21.3956
  0
LINE
  8
0
 10
-19.7107
 20
21.3956
 11
-19.8711
 21
21.0547
  0
LINE
  8
0
 10
-19.8711
 20
21.0547
 11
-20.0729
 21
20.7366
  0
LINE
  8
0
 10
-20.0729
 20
20.7366
 11
-20.3131
 21
20.4464
  0
LINE
  8
0
 10
-20.3131
 20
20.4464
 11
-20.5877
 21
20.1884
  0
LINE
  8
0
 10
-20.5877
 20
20.1884
 11
-20.8925
 21
19.967
  0
LINE
  8
0
 10
-20.8925
 20
19.967
 11
-21.2227
 21
19.7855
  0
LINE
  8
0
 10
-21.2227
 20
19.7855
 11
-21.5729
 21
19.6468
  0
LINE
  8
0
 10
-21.5729
 20
19.6468
 11
-21.9379
 21
19.5531
  0
LINE
  8
0
 10
-21.9379
 20
19.5531
 11
-22.3116
 21
19.5059
  0
LINE
  8
0
 10
-22.3116
 20
19.5059
 11
-22.6884
 21
19.5059
  0
LINE
  8
0
 10
7.31161
 20
19.5059
 11
6.93785
 21
19.5531
  0
LINE
  8
0
 10
6.93785
 20
19.5531
 11
6.57294
 21
19.6468
  0
LINE
  8
0
 10
6.57294
 20
19.6468
 11
6.22266
 21
19.7855
  0
LINE
  8
0
 10
6.22266
 20
19.7855
 11
5.89252
 21
19.967
  0
LINE
  8
0
 10
5.89252
 20
19.967
 11
5.58772
 21
20.1884
  0
LINE
  8
0
 10
5.58772
 20
20.1884
 11
5.31308
 21
20.4464
  0
LINE
  8
0
 10
5.31308
 20
20.4464
 11
5.07294
 21
20.7366
  0
LINE
  8
0
 10
5.07294
 20
20.7366
 11
4.87108
 21
21.0547
  0
LINE
  8
0
 10
4.87108
 20
21.0547
 11
4.71066
 21
21.3956
  0
LINE
  8
0
 10
4.71066
 20
21.3956
 11
4.59424
 21
21.7539
  0
LINE
  8
0
 10
4.59424
 20
21.7539
 11
4.52365
 21
22.124
  0
LINE
  8
0
 10
4.52365
 20
22.124
 11
4.5
 21
22.5
  0
LINE
  8
0
 10
4.5
 20
22.5
 11
4.52365
 21
22.876
  0
LINE
  8
0
 10
4.52365
 20
22.876
 11
4.59424
 21
23.2461
  0
LINE
  8
0
 10
4.59424
 20
23.2461
 11
4.71066
 21
23.6044
  0
LINE
  8
0
 10
4.71066
 20
23.6044
 11
4.87108
 21
23.9453
  0
LINE
  8
0
 10
4.87108
 20
23.9453
 11
5.07294
 21
24.2634
  0
LINE
  8
0
 10
5.07294
 20
24.2634
 11
5.31308
 21
24.5536
  0
LINE
  8
0
 10
5.31308
 20
24.5536
 11
5.58772
 21
24.8115
  0
LINE
  8
0
 10
5.58772
 20
24.8115
 11
5.89252
 21
25.033
  0
LINE
  8
0
 10
5.89252
 20
25.033
 11
6.22266
 21
25.2145
  0
LINE
  8
0
 10
6.22266
 20
25.2145
 11
6.57294
 21
25.3532
  0
LINE
  8
0
 10
6.57294
 20
25.3532
 11
6.93785
 21
25.4469
  0
LINE
  8
0
 10
6.93785
 20
25.4469
 11
7.31161
 21
25.4941
  0
LINE
  8
0
 10
7.31161
 20
25.4941
 11
7.68837
 21
25.4941
  0
LINE
  8
0
 10
7.68837
 20
25.4941
 11
8.06213
 21
25.4469
  0
LINE
  8
0
 10
8.06213
 20
25.4469
 11
8.42705
 21
25.3532
  0
LINE
  8
0
 10
8.42705
 20
25.3532
 11
8.77733
 21
25.2145
  0
LINE
  8
0
 10
8.77733
 20
25.2145
 11
9.10747
 21
25.033
  0
LINE
  8
0
 10
9.10747
 20
25.033
 11
9.41226
 21
24.8115
  0
LINE
  8
0
 10
9.41226
 20
24.8115
 11
9.6869
 21
24.5536
  0
LINE
  8
0
 10
9.6869
 20
24.5536
 11
9.92705
 21
24.2634
  0
LINE
  8
0
 10
9.92705
 20
24.2634
 11
10.1289
 21
23.9453
  0
LINE
  8
0
 10
10.1289
 20
23.9453
 11
10.2893
 21
23.6044
  0
LINE
  8
0
 10
10.2893
 20
23.6044
 11
10.4057
 21
23.2461
  0
LINE
  8
0
 10
10.4057
 20
23.2461
 11
10.4763
 21
22.876
  0
LINE
  8
0
 10
10.4763
 20
22.876
 11
10.5
 21
22.5
  0
LINE
  8
0
 10
10.5
 20
22.5
 11
10.4763
 21
22.124
  0
LINE
  8
0
 10
10.4763
 20
22.124
 11
10.4057
 21
21.7539
  0
LINE
  8
0
 10
10.4057
 20
21.7539
 11
10.2893
 21
21.3956
  0
LINE
  8
0
 10
10.2893
 20
21.3956
 11
10.1289
 21
21.0547
  0
LINE
  8
0
 10
10.1289
 20
21.0547
 11
9.92705
 21
20.7366
  0
LINE
  8
0
 10
9.92705
 20
20.7366
 11
9.6869
 21
20.4464
  0
LINE
  8
0
 10
9.6869
 20
20.4464
 11
9.41226
 21
20.1884
  0
LINE
  8
0
 10
9.41226
 20
20.1884
 11
9.10747
 21
19.967
  0
LINE
  8
0
 10
9.10747
 20
19.967
 11
8.77733
 21
19.7855
  0
LINE
  8
0
 10
8.77733
 20
19.7855
 11
8.42705
 21
19.6468
  0
LINE
  8
0
 10
8.42705
 20
19.6468
 11
8.06213
 21
19.5531
  0
LINE
  8
0
 10
8.06213
 20
19.5531
 11
7.68837
 21
19.5059
  0
LINE
  8
0
 10
7.68837
 20
19.5059
 11
7.31161
 21
19.5059
  0
LINE
  8
0
 10
-15.0942
 20
21.003
 11
-15.2811
 21
21.0266
  0
LINE
  8
0
 10
-15.2811
 20
21.0266
 11
-15.4635
 21
21.0734
  0
LINE
  8
0
 10
-15.4635
 20
21.0734
 11
-15.6387
 21
21.1427
  0
LINE
  8
0
 10
-15.6387
 20
21.1427
 11
-15.8037
 21
21.2335
  0
LINE
  8
0
 10
-15.8037
 20
21.2335
 11
-15.9561
 21
21.3442
  0
LINE
  8
0
 10
-15.9561
 20
21.3442
 11
-16.0934
 21
21.4732
  0
LINE
  8
0
 10
-16.0934
 20
21.4732
 11
-16.2135
 21
21.6183
  0
LINE
  8
0
 10
-16.2135
 20
21.6183
 11
-16.3145
 21
21.7774
  0
LINE
  8
0
 10
-16.3145
 20
21.7774
 11
-16.3947
 21
21.9478
  0
LINE
  8
0
 10
-16.3947
 20
21.9478
 11
-16.4529
 21
22.127
  0
LINE
  8
0
 10
-16.4529
 20
22.127
 11
-16.4882
 21
22.312
  0
LINE
  8
0
 10
-16.4882
 20
22.312
 11
-16.5
 21
22.5
  0
LINE
  8
0
 10
-16.5
 20
22.5
 11
-16.4882
 21
22.688
  0
LINE
  8
0
 10
-16.4882
 20
22.688
 11
-16.4529
 21
22.873
  0
LINE
  8
0
 10
-16.4529
 20
22.873
 11
-16.3947
 21
23.0522
  0
LINE
  8
0
 10
-16.3947
 20
23.0522
 11
-16.3145
 21
23.2226
  0
LINE
  8
0
 10
-16.3145
 20
23.2226
 11
-16.2135
 21
23.3817
  0
LINE
  8
0
 10
-16.2135
 20
23.3817
 11
-16.0934
 21
23.5268
  0
LINE
  8
0
 10
-16.0934
 20
23.5268
 11
-15.9561
 21
23.6558
  0
LINE
  8
0
 10
-15.9561
 20
23.6558
 11
-15.8037
 21
23.7665
  0
LINE
  8
0
 10
-15.8037
 20
23.7665
 11
-15.6387
 21
23.8572
  0
LINE
  8
0
 10
-15.6387
 20
23.8572
 11
-15.4635
 21
23.9266
  0
LINE
  8
0
 10
-15.4635
 20
23.9266
 11
-15.2811
 21
23.9734
  0
LINE
  8
0
 10
-15.2811
 20
23.9734
 11
-15.0942
 21
23.997
  0
LINE
  8
0
 10
-15.0942
 20
23.997
 11
-14.9058
 21
23.997
  0
LINE
  8
0
 10
-14.9058
 20
23.997
 11
-14.7189
 21
23.9734
  0
LINE
  8
0
 10
-14.7189
 20
23.9734
 11
-14.5365
 21
23.9266
  0
LINE
  8
0
 10
-14.5365
 20
23.9266
 11
-14.3613
 21
23.8572
  0
LINE
  8
0
 10
-14.3613
 20
23.8572
 11
-14.1963
 21
23.7665
  0
LINE
  8
0
 10
-14.1963
 20
23.7665
 11
-14.0439
 21
23.6558
  0
LINE
  8
0
 10
-14.0439
 20
23.6558
 11
-13.9065
 21
23.5268
  0
LINE
  8
0
 10
-13.9065
 20
23.5268
 11
-13.7865
 21
23.3817
  0
LINE
  8
0
 10
-13.7865
 20
23.3817
 11
-13.6855
 21
23.2226
  0
LINE
  8
0
 10
-13.6855
 20
23.2226
 11
-13.6053
 21
23.0522
  0
LINE
  8
0
 10
-13.6053
 20
23.0522
 11
-13.5471
 21
22.873
  0
LINE
  8
0
 10
-13.5471
 20
22.873
 11
-13.5118
 21
22.688
  0
LINE
  8
0
 10
-13.5118
 20
22.688
 11
-13.5
 21
22.5
  0
LINE
  8
0
 10
-13.5
 20
22.5
 11
-13.5118
 21
22.312
  0
LINE
  8
0
 10
-13.5118
 20
22.312
 11
-13.5471
 21
22.127
  0
LINE
  8
0
 10
-13.5471
 20
22.127
 11
-13.6053
 21
21.9478
  0
LINE
  8
0
 10
-13.6053
 20
21.9478
 11
-13.6855
 21
21.7774
  0
LINE
  8
0
 10
-13.6855
 20
21.7774
 11
-13.7865
 21
21.6183
  0
LINE
  8
0
 10
-13.7865
 20
21.6183
 11
-13.9065
 21
21.4732
  0
LINE
  8
0
 10
-13.9065
 20
21.4732
 11
-14.0439
 21
21.3442
  0
LINE
  8
0
 10
-14.0439
 20
21.3442
 11
-14.1963
 21
21.2335
  0
LINE
  8
0
 10
-14.1963
 20
21.2335
 11
-14.3613
 21
21.1427
  0
LINE
  8
0
 10
-14.3613
 20
21.1427
 11
-14.5365
 21
21.0734
  0
LINE
  8
0
 10
-14.5365
 20
21.0734
 11
-14.7189
 21
21.0266
  0
LINE
  8
0
 10
-14.7189
 20
21.0266
 11
-14.9058
 21
21.003
  0
LINE
  8
0
 10
-14.9058
 20
21.003
 11
-15.0942
 21
21.003
  0
LINE
  8
0
 10
14.9058
 20
21.003
 11
14.7189
 21
21.0266
  0
LINE
  8
0
 10
14.7189
 20
21.0266
 11
14.5365
 21
21.0734
  0
LINE
  8
0
 10
14.5365
 20
21.0734
 11
14.3613
 21
21.1427
  0
LINE
  8
0
 10
14.3613
 20
21.1427
 11
14.1963
 21
21.2335
  0
LINE
  8
0
 10
14.1963
 20
21.2335
 11
14.0439
 21
21.3442
  0
LINE
  8
0
 10
14.0439
 20
21.3442
 11
13.9065
 21
21.4732
  0
LINE
  8
0
 10
13.9065
 20
21.4732
 11
13.7865
 21
21.6183
  0
LINE
  8
0
 10
13.7865
 20
21.6183
 11
13.6855
 21
21.7774
  0
LINE
  8
0
 10
13.6855
 20
21.7774
 11
13.6053
 21
21.9478
  0
LINE
  8
0
 10
13.6053
 20
21.9478
 11
13.5471
 21
22.127
  0
LINE
  8
0
 10
13.5471
 20
22.127
 11
13.5118
 21
22.312
  0
LINE
  8
0
 10
13.5118
 20
22.312
 11
13.5
 21
22.5
  0
LINE
  8
0
 10
13.5
 20
22.5
 11
13.5118
 21
22.688
  0
LINE
  8
0
 10
13.5118
 20
22.688
 11
13.5471
 21
22.873
  0
LINE
  8
0
 10
13.5471
 20
22.873
 11
13.6053
 21
23.0522
  0
LINE
  8
0
 10
13.6053
 20
23.0522
 11
13.6855
 21
23.2226
  0
LINE
  8
0
 10
13.6855
 20
23.2226
 11
13.7865
 21
23.3817
  0
LINE
  8
0
 10
13.7865
 20
23.3817
 11
13.9065
 21
23.5268
  0
LINE
  8
0
 10
13.9065
 20
23.5268
 11
14.0439
 21
23.6558
  0
LINE
  8
0
 10
14.0439
 20
23.6558
 11
14.1963
 21
23.7665
  0
LINE
  8
0
 10
14.1963
 20
23.7665
 11
14.3613
 21
23.8572
  0
LINE
  8
0
 10
14.3613
 20
23.8572
 11
14.5365
 21
23.9266
  0
LINE
  8
0
 10
14.5365
 20
23.9266
 11
14.7189
 21
23.9734
  0
LINE
  8
0
 10
14.7189
 20
23.9734
 11
14.9058
 21
23.997
  0
LINE
  8
0
 10
14.9058
 20
23.997
 11
15.0942
 21
23.997
  0
LINE
  8
0
 10
15.0942
 20
23.997
 11
15.2811
 21
23.9734
  0
LINE
  8
0
 10
15.2811
 20
23.9734
 11
15.4635
 21
23.9266
  0
LINE
  8
0
 10
15.4635
 20
23.9266
 11
15.6387
 21
23.8572
  0
LINE
  8
0
 10
15.6387
 20
23.8572
 11
15.8037
 21
23.7665
  0
LINE
  8
0
 10
15.8037
 20
23.7665
 11
15.9561
 21
23.6558
  0
LINE
  8
0
 10
15.9561
 20
23.6558
 11
16.0934
 21
23.5268
  0
LINE
  8
0
 10
16.0934
 20
23.5268
 11
16.2135
 21
23.3817
  0
LINE
  8
0
 10
16.2135
 20
23.3817
 11
16.3145
 21
23.2226
  0
LINE
  8
0
 10
16.3145
 20
23.2226
 11
16.3947
 21
23.0522
  0
LINE
  8
0
 10
16.3947
 20
23.0522
 11
16.4529
 21
22.873
  0
LINE
  8
0
 10
16.4529
 20
22.873
 11
16.4882
 21
22.688
  0
LINE
  8
0
 10
16.4882
 20
22.688
 11
16.5
 21
22.5
  0
LINE
  8
0
 10
16.5
 20
22.5
 11
16.4882
 21
22.312
  0
LINE
  8
0
 10
16.4882
 20
22.312
 11
16.4529
 21
22.127
  0
LINE
  8
0
 10
16.4529
 20
22.127
 11
16.3947
 21
21.9478
  0
LINE
  8
0
 10
16.3947
 20
21.9478
 11
16.3145
 21
21.7774
  0
LINE
  8
0
 10
16.3145
 20
21.7774
 11
16.2135
 21
21.6183
  0
LINE
  8
0
 10
16.2135
 20
21.6183
 11
16.0934
 21
21.4732
  0
LINE
  8
0
 10
16.0934
 20
21.4732
 11
15.9561
 21
21.3442
  0
LINE
  8
0
 10
15.9561
 20
21.3442
 11
15.8037
 21
21.2335
  0
LINE
  8
0
 10
15.8037
 20
21.2335
 11
15.6387
 21
21.1427
  0
LINE
  8
0
 10
15.6387
 20
21.1427
 11
15.4635
 21
21.0734
  0
LINE
  8
0
 10
15.4635
 20
21.0734
 11
15.2811
 21
21.0266
  0
LINE
  8
0
 10
15.2811
 20
21.0266
 11
15.0942
 21
21.003
  0
LINE
  8
0
 10
15.0942
 20
21.003
 11
14.9058
 21
21.003
  0
LINE
  8
0
 10
-0.0941772
 20
21.003
 11
-0.281067
 21
21.0266
  0
LINE
  8
0
 10
-0.281067
 20
21.0266
 11
-0.463516
 21
21.0734
  0
LINE
  8
0
 10
-0.463516
 20
21.0734
 11
-0.638657
 21
21.1427
  0
LINE
  8
0
 10
-0.638657
 20
21.1427
 11
-0.803726
 21
21.2335
  0
LINE
  8
0
 10
-0.803726
 20
21.2335
 11
-0.956131
 21
21.3442
  0
LINE
  8
0
 10
-0.956131
 20
21.3442
 11
-1.09344
 21
21.4732
  0
LINE
  8
0
 10
-1.09344
 20
21.4732
 11
-1.21352
 21
21.6183
  0
LINE
  8
0
 10
-1.21352
 20
21.6183
 11
-1.31445
 21
21.7774
  0
LINE
  8
0
 10
-1.31445
 20
21.7774
 11
-1.39465
 21
21.9478
  0
LINE
  8
0
 10
-1.39465
 20
21.9478
 11
-1.45287
 21
22.127
  0
LINE
  8
0
 10
-1.45287
 20
22.127
 11
-1.48816
 21
22.312
  0
LINE
  8
0
 10
-1.48816
 20
22.312
 11
-1.5
 21
22.5
  0
LINE
  8
0
 10
-1.5
 20
22.5
 11
-1.48816
 21
22.688
  0
LINE
  8
0
 10
-1.48816
 20
22.688
 11
-1.45287
 21
22.873
  0
LINE
  8
0
 10
-1.45287
 20
22.873
 11
-1.39465
 21
23.0522
  0
LINE
  8
0
 10
-1.39465
 20
23.0522
 11
-1.31445
 21
23.2226
  0
LINE
  8
0
 10
-1.31445
 20
23.2226
 11
-1.21352
 21
23.3817
  0
LINE
  8
0
 10
-1.21352
 20
23.3817
 11
-1.09344
 21
23.5268
  0
LINE
  8
0
 10
-1.09344
 20
23.5268
 11
-0.956131
 21
23.6558
  0
LINE
  8
0
 10
-0.956131
 20
23.6558
 11
-0.803726
 21
23.7665
  0
LINE
  8
0
 10
-0.803726
 20
23.7665
 11
-0.638657
 21
23.8572
  0
LINE
  8
0
 10
-0.638657
 20
23.8572
 11
-0.463516
 21
23.9266
  0
LINE
  8
0
 10
-0.463516
 20
23.9266
 11
-0.281067
 21
23.9734
  0
LINE
  8
0
 10
-0.281067
 20
23.9734
 11
-0.0941772
 21
23.997
  0
LINE
  8
0
 10
-0.0941772
 20
23.997
 11
0.0941772
 21
23.997
  0
LINE
  8
0
 10
0.0941772
 20
23.997
 11
0.281067
 21
23.9734
  0
LINE
  8
0
 10
0.281067
 20
23.9734
 11
0.463516
 21
23.9266
  0
LINE
  8
0
 10
0.463516
 20
23.9266
 11
0.638657
 21
23.8572
  0
LINE
  8
0
 10
0.638657
 20
23.8572
 11
0.803726
 21
23.7665
  0
LINE
  8
0
 10
0.803726
 20
23.7665
 11
0.956131
 21
23.6558
  0
LINE
  8
0
 10
0.956131
 20
23.6558
 11
1.09344
 21
23.5268
  0
LINE
  8
0
 10
1.09344
 20
23.5268
 11
1.21352
 21
23.3817
  0
LINE
  8
0
 10
1.21352
 20
23.3817
 11
1.31445
 21
23.2226
  0
LINE
  8
0
 10
1.31445
 20
23.2226
 11
1.39465
 21
23.0522
  0
LINE
  8
0
 10
1.39465
 20
23.0522
 11
1.45287
 21
22.873
  0
LINE
  8
0
 10
1.45287
 20
22.873
 11
1.48816
 21
22.688
  0
LINE
  8
0
 10
1.48816
 20
22.688
 11
1.5
 21
22.5
  0
LINE
  8
0
 10
1.5
 20
22.5
 11
1.48816
 21
22.312
  0
LINE
  8
0
 10
1.48816
 20
22.312
 11
1.45287
 21
22.127
  0
LINE
  8
0
 10
1.45287
 20
22.127
 11
1.39465
 21
21.9478
  0
LINE
  8
0
 10
1.39465
 20
21.9478
 11
1.31445
 21
21.7774
  0
LINE
  8
0
 10
1.31445
 20
21.7774
 11
1.21352
 21
21.6183
  0
LINE
  8
0
 10
1.21352
 20
21.6183
 11
1.09344
 21
21.4732
  0
LINE
  8
0
 10
1.09344
 20
21.4732
 11
0.956131
 21
21.3442
  0
LINE
  8
0
 10
0.956131
 20
21.3442
 11
0.803726
 21
21.2335
  0
LINE
  8
0
 10
0.803726
 20
21.2335
 11
0.638657
 21
21.1427
  0
LINE
  8
0
 10
0.638657
 20
21.1427
 11
0.463516
 21
21.0734
  0
LINE
  8
0
 10
0.463516
 20
21.0734
 11
0.281067
 21
21.0266
  0
LINE
  8
0
 10
0.281067
 20
21.0266
 11
0.0941772
 21
21.003
  0
LINE
  8
0
 10
0.0941772
 20
21.003
 11
-0.0941772
 21
21.003
  0
LINE
  8
0
 10
-22.5942
 20
13.5029
 11
-22.7811
 21
13.5266
  0
LINE
  8
0
 10
-22.7811
 20
13.5266
 11
-22.9635
 21
13.5734
  0
LINE
  8
0
 10
-22.9635
 20
13.5734
 11
-23.1387
 21
13.6427
  0
LINE
  8
0
 10
-23.1387
 20
13.6427
 11
-23.3037
 21
13.7335
  0
LINE
  8
0
 10
-23.3037
 20
13.7335
 11
-23.4561
 21
13.8442
  0
LINE
  8
0
 10
-23.4561
 20
13.8442
 11
-23.5934
 21
13.9732
  0
LINE
  8
0
 10
-23.5934
 20
13.9732
 11
-23.7135
 21
14.1183
  0
LINE
  8
0
 10
-23.7135
 20
14.1183
 11
-23.8145
 21
14.2774
  0
LINE
  8
0
 10
-23.8145
 20
14.2774
 11
-23.8947
 21
14.4478
  0
LINE
  8
0
 10
-23.8947
 20
14.4478
 11
-23.9529
 21
14.627
  0
LINE
  8
0
 10
-23.9529
 20
14.627
 11
-23.9882
 21
14.812
  0
LINE
  8
0
 10
-23.9882
 20
14.812
 11
-24
 21
15
  0
LINE
  8
0
 10
-24
 20
15
 11
-23.9882
 21
15.188
  0
LINE
  8
0
 10
-23.9882
 20
15.188
 11
-23.9529
 21
15.373
  0
LINE
  8
0
 10
-23.9529
 20
15.373
 11
-23.8947
 21
15.5522
  0
LINE
  8
0
 10
-23.8947
 20
15.5522
 11
-23.8145
 21
15.7226
  0
LINE
  8
0
 10
-23.8145
 20
15.7226
 11
-23.7135
 21
15.8817
  0
LINE
  8
0
 10
-23.7135
 20
15.8817
 11
-23.5934
 21
16.0268
  0
LINE
  8
0
 10
-23.5934
 20
16.0268
 11
-23.4561
 21
16.1558
  0
LINE
  8
0
 10
-23.4561
 20
16.1558
 11
-23.3037
 21
16.2665
  0
LINE
  8
0
 10
-23.3037
 20
16.2665
 11
-23.1387
 21
16.3572
  0
LINE
  8
0
 10
-23.1387
 20
16.3572
 11
-22.9635
 21
16.4266
  0
LINE
  8
0
 10
-22.9635
 20
16.4266
 11
-22.7811
 21
16.4734
  0
LINE
  8
0
 10
-22.7811
 20
16.4734
 11
-22.5942
 21
16.497
  0
LINE
  8
0
 10
-22.5942
 20
16.497
 11
-22.4058
 21
16.497
  0
LINE
  8
0
 10
-22.4058
 20
16.497
 11
-22.2189
 21
16.4734
  0
LINE
  8
0
 10
-22.2189
 20
16.4734
 11
-22.0365
 21
16.4266
  0
LINE
  8
0
 10
-22.0365
 20
16.4266
 11
-21.8613
 21
16.3572
  0
LINE
  8
0
 10
-21.8613
 20
16.3572
 11
-21.6963
 21
16.2665
  0
LINE
  8
0
 10
-21.6963
 20
16.2665
 11
-21.5439
 21
16.1558
  0
LINE
  8
0
 10
-21.5439
 20
16.1558
 11
-21.4065
 21
16.0268
  0
LINE
  8
0
 10
-21.4065
 20
16.0268
 11
-21.2865
 21
15.8817
  0
LINE
  8
0
 10
-21.2865
 20
15.8817
 11
-21.1855
 21
15.7226
  0
LINE
  8
0
 10
-21.1855
 20
15.7226
 11
-21.1053
 21
15.5522
  0
LINE
  8
0
 10
-21.1053
 20
15.5522
 11
-21.0471
 21
15.373
  0
LINE
  8
0
 10
-21.0471
 20
15.373
 11
-21.0118
 21
15.188
  0
LINE
  8
0
 10
-21.0118
 20
15.188
 11
-21
 21
15
  0
LINE
  8
0
 10
-21
 20
15
 11
-21.0118
 21
14.812
  0
LINE
  8
0
 10
-21.0118
 20
14.812
 11
-21.0471
 21
14.627
  0
LINE
  8
0
 10
-21.0471
 20
14.627
 11
-21.1053
 21
14.4478
  0
LINE
  8
0
 10
-21.1053
 20
14.4478
 11
-21.1855
 21
14.2774
  0
LINE
  8
0
 10
-21.1855
 20
14.2774
 11
-21.2865
 21
14.1183
  0
LINE
  8
0
 10
-21.2865
 20
14.1183
 11
-21.4065
 21
13.9732
  0
LINE
  8
0
 10
-21.4065
 20
13.9732
 11
-21.5439
 21
13.8442
  0
LINE
  8
0
 10
-21.5439
 20
13.8442
 11
-21.6963
 21
13.7335
  0
LINE
  8
0
 10
-21.6963
 20
13.7335
 11
-21.8613
 21
13.6427
  0
LINE
  8
0
 10
-21.8613
 20
13.6427
 11
-22.0365
 21
13.5734
  0
LINE
  8
0
 10
-22.0365
 20
13.5734
 11
-22.2189
 21
13.5266
  0
LINE
  8
0
 10
-22.2189
 20
13.5266
 11
-22.4058
 21
13.5029
  0
LINE
  8
0
 10
-22.4058
 20
13.5029
 11
-22.5942
 21
13.5029
  0
LINE
  8
0
 10
22.4058
 20
13.5029
 11
22.2189
 21
13.5266
  0
LINE
  8
0
 10
22.2189
 20
13.5266
 11
22.0365
 21
13.5734
  0
LINE
  8
0
 10
22.0365
 20
13.5734
 11
21.8613
 21
13.6427
  0
LINE
  8
0
 10
21.8613
 20
13.6427
 11
21.6963
 21
13.7335
  0
LINE
  8
0
 10
21.6963
 20
13.7335
 11
21.5439
 21
13.8442
  0
LINE
  8
0
 10
21.5439
 20
13.8442
 11
21.4065
 21
13.9732
  0
LINE
  8
0
 10
21.4065
 20
13.9732
 11
21.2865
 21
14.1183
  0
LINE
  8
0
 10
21.2865
 20
14.1183
 11
21.1855
 21
14.2774
  0
LINE
  8
0
 10
21.1855
 20
14.2774
 11
21.1053
 21
14.4478
  0
LINE
  8
0
 10
21.1053
 20
14.4478
 11
21.0471
 21
14.627
  0
LINE
  8
0
 10
21.0471
 20
14.627
 11
21.0118
 21
14.812
  0
LINE
  8
0
 10
21.0118
 20
14.812
 11
21
 21
15
  0
LINE
  8
0
 10
21
 20
15
 11
21.0118
 21
15.188
  0
LINE
  8
0
 10
21.0118
 20
15.188
 11
21.0471
 21
15.373
  0
LINE
  8
0
 10
21.0471
 20
15.373
 11
21.1053
 21
15.5522
  0
LINE
  8
0
 10
21.1053
 20
15.5522
 11
21.1855
 21
15.7226
  0
LINE
  8
0
 10
21.1855
 20
15.7226
 11
21.2865
 21
15.8817
  0
LINE
  8
0
 10
21.2865
 20
15.8817
 11
21.4065
 21
16.0268
  0
LINE
  8
0
 10
21.4065
 20
16.0268
 11
21.5439
 21
16.1558
  0
LINE
  8
0
 10
21.5439
 20
16.1558
 11
21.6963
 21
16.2665
  0
LINE
  8
0
 10
21.6963
 20
16.2665
 11
21.8613
 21
16.3572
  0
LINE
  8
0
 10
21.8613
 20
16.3572
 11
22.0365
 21
16.4266
  0
LINE
  8
0
 10
22.0365
 20
16.4266
 11
22.2189
 21
16.4734
  0
LINE
  8
0
 10
22.2189
 20
16.4734
 11
22.4058
 21
16.497
  0
LINE
  8
0
 10
22.4058
 20
16.497
 11
22.5942
 21
16.497
  0
LINE
  8
0
 10
22.5942
 20
16.497
 11
22.7811
 21
16.4734
  0
LINE
  8
0
 10
22.7811
 20
16.4734
 11
22.9635
 21
16.4266
  0
LINE
  8
0
 10
22.9635
 20
16.4266
 11
23.1387
 21
16.3572
  0
LINE
  8
0
 10
23.1387
 20
16.3572
 11
23.3037
 21
16.2665
  0
LINE
  8
0
 10
23.3037
 20
16.2665
 11
23.4561
 21
16.1558
  0
LINE
  8
0
 10
23.4561
 20
16.1558
 11
23.5934
 21
16.0268
  0
LINE
  8
0
 10
23.5934
 20
16.0268
 11
23.7135
 21
15.8817
  0
LINE
  8
0
 10
23.7135
 20
15.8817
 11
23.8145
 21
15.7226
  0
LINE
  8
0
 10
23.8145
 20
15.7226
 11
23.8947
 21
15.5522
  0
LINE
  8
0
 10
23.8947
 20
15.5522
 11
23.9529
 21
15.373
  0
LINE
  8
0
 10
23.9529
 20
15.373
 11
23.9882
 21
15.188
  0
LINE
  8
0
 10
23.9882
 20
15.188
 11
24
 21
15
  0
LINE
  8
0
 10
24
 20
15
 11
23.9882
 21
14.812
  0
LINE
  8
0
 10
23.9882
 20
14.812
 11
23.9529
 21
14.627
  0
LINE
  8
0
 10
23.9529
 20
14.627
 11
23.8947
 21
14.4478
  0
LINE
  8
0
 10
23.8947
 20
14.4478
 11
23.8145
 21
14.2774
  0
LINE
  8
0
 10
23.8145
 20
14.2774
 11
23.7135
 21
14.1183
  0
LINE
  8
0
 10
23.7135
 20
14.1183
 11
23.5934
 21
13.9732
  0
LINE
  8
0
 10
23.5934
 20
13.9732
 11
23.4561
 21
13.8442
  0
LINE
  8
0
 10
23.4561
 20
13.8442
 11
23.3037
 21
13.7335
  0
LINE
  8
0
 10
23.3037
 20
13.7335
 11
23.1387
 21
13.6427
  0
LINE
  8
0
 10
23.1387
 20
13.6427
 11
22.9635
 21
13.5734
  0
LINE
  8
0
 10
22.9635
 20
13.5734
 11
22.7811
 21
13.5266
  0
LINE
  8
0
 10
22.7811
 20
13.5266
 11
22.5942
 21
13.5029
  0
LINE
  8
0
 10
22.5942
 20
13.5029
 11
22.4058
 21
13.5029
  0
LINE
  8
0
 10
-8.61302
 20
7.20355
 11
-8.83728
 21
7.23187
  0
LINE
  8
0
 10
-8.83728
 20
7.23187
 11
-9.05623
 21
7.28809
  0
LINE
  8
0
 10
-9.05623
 20
7.28809
 11
-9.26639
 21
7.37131
  0
LINE
  8
0
 10
-9.26639
 20
7.37131
 11
-9.46448
 21
7.48021
  0
LINE
  8
0
 10
-9.46448
 20
7.48021
 11
-9.64735
 21
7.61307
  0
LINE
  8
0
 10
-9.64735
 20
7.61307
 11
-9.81213
 21
7.76781
  0
LINE
  8
0
 10
-9.81213
 20
7.76781
 11
-9.95622
 21
7.94199
  0
LINE
  8
0
 10
-9.95622
 20
7.94199
 11
-10.0773
 21
8.13284
  0
LINE
  8
0
 10
-10.0773
 20
8.13284
 11
-10.1736
 21
8.33737
  0
LINE
  8
0
 10
-10.1736
 20
8.33737
 11
-10.2434
 21
8.55235
  0
LINE
  8
0
 10
-10.2434
 20
8.55235
 11
-10.2858
 21
8.7744
  0
LINE
  8
0
 10
-10.2858
 20
8.7744
 11
-10.3
 21
9
  0
LINE
  8
0
 10
-10.3
 20
9
 11
-10.2858
 21
9.22559
  0
LINE
  8
0
 10
-10.2858
 20
9.22559
 11
-10.2434
 21
9.44763
  0
LINE
  8
0
 10
-10.2434
 20
9.44763
 11
-10.1736
 21
9.66261
  0
LINE
  8
0
 10
-10.1736
 20
9.66261
 11
-10.0773
 21
9.86714
  0
LINE
  8
0
 10
-10.0773
 20
9.86714
 11
-9.95622
 21
10.058
  0
LINE
  8
0
 10
-9.95622
 20
10.058
 11
-9.81213
 21
10.2322
  0
LINE
  8
0
 10
-9.81213
 20
10.2322
 11
-9.64735
 21
10.3869
  0
LINE
  8
0
 10
-9.64735
 20
10.3869
 11
-9.46448
 21
10.5198
  0
LINE
  8
0
 10
-9.46448
 20
10.5198
 11
-9.26639
 21
10.6287
  0
LINE
  8
0
 10
-9.26639
 20
10.6287
 11
-9.05623
 21
10.7119
  0
LINE
  8
0
 10
-9.05623
 20
10.7119
 11
-8.83728
 21
10.7681
  0
LINE
  8
0
 10
-8.83728
 20
10.7681
 11
-8.61302
 21
10.7964
  0
LINE
  8
0
 10
-8.61302
 20
10.7964
 11
-8.38696
 21
10.7964
  0
LINE
  8
0
 10
-8.38696
 20
10.7964
 11
-8.1627
 21
10.7681
  0
LINE
  8
0
 10
-8.1627
 20
10.7681
 11
-7.94376
 21
10.7119
  0
LINE
  8
0
 10
-7.94376
 20
10.7119
 11
-7.7336
 21
10.6287
  0
LINE
  8
0
 10
-7.7336
 20
10.6287
 11
-7.53551
 21
10.5198
  0
LINE
  8
0
 10
-7.53551
 20
10.5198
 11
-7.35263
 21
10.3869
  0
LINE
  8
0
 10
-7.35263
 20
10.3869
 11
-7.18785
 21
10.2322
  0
LINE
  8
0
 10
-7.18785
 20
10.2322
 11
-7.04376
 21
10.058
  0
LINE
  8
0
 10
-7.04376
 20
10.058
 11
-6.92264
 21
9.86714
  0
LINE
  8
0
 10
-6.92264
 20
9.86714
 11
-6.8264
 21
9.66261
  0
LINE
  8
0
 10
-6.8264
 20
9.66261
 11
-6.75655
 21
9.44763
  0
LINE
  8
0
 10
-6.75655
 20
9.44763
 11
-6.71419
 21
9.22559
  0
LINE
  8
0
 10
-6.71419
 20
9.22559
 11
-6.7
 21
9
  0
LINE
  8
0
 10
-6.7
 20
9
 11
-6.71419
 21
8.7744
  0
LINE
  8
0
 10
-6.71419
 20
8.7744
 11
-6.75655
 21
8.55235
  0
LINE
  8
0
 10
-6.75655
 20
8.55235
 11
-6.8264
 21
8.33737
  0
LINE
  8
0
 10
-6.8264
 20
8.33737
 11
-6.92264
 21
8.13284
  0
LINE
  8
0
 10
-6.92264
 20
8.13284
 11
-7.04376
 21
7.94199
  0
LINE
  8
0
 10
-7.04376
 20
7.94199
 11
-7.18785
 21
7.76781
  0
LINE
  8
0
 10
-7.18785
 20
7.76781
 11
-7.35263
 21
7.61307
  0
LINE
  8
0
 10
-7.35263
 20
7.61307
 11
-7.53551
 21
7.48021
  0
LINE
  8
0
 10
-7.53551
 20
7.48021
 11
-7.7336
 21
7.37131
  0
LINE
  8
0
 10
-7.7336
 20
7.37131
 11
-7.94376
 21
7.28809
  0
LINE
  8
0
 10
-7.94376
 20
7.28809
 11
-8.1627
 21
7.23187
  0
LINE
  8
0
 10
-8.1627
 20
7.23187
 11
-8.38696
 21
7.20355
  0
LINE
  8
0
 10
-8.38696
 20
7.20355
 11
-8.61302
 21
7.20355
  0
LINE
  8
0
 10
4.38696
 20
7.20355
 11
4.1627
 21
7.23187
  0
LINE
  8
0
 10
4.1627
 20
7.23187
 11
3.94376
 21
7.28809
  0
LINE
  8
0
 10
3.94376
 20
7.28809
 11
3.7336
 21
7.37131
  0
LINE
  8
0
 10
3.7336
 20
7.37131
 11
3.53551
 21
7.48021
  0
LINE
  8
0
 10
3.53551
 20
7.48021
 11
3.35263
 21
7.61307
  0
LINE
  8
0
 10
3.35263
 20
7.61307
 11
3.18785
 21
7.76781
  0
LINE
  8
0
 10
3.18785
 20
7.76781
 11
3.04376
 21
7.94199
  0
LINE
  8
0
 10
3.04376
 20
7.94199
 11
2.92264
 21
8.13284
  0
LINE
  8
0
 10
2.92264
 20
8.13284
 11
2.8264
 21
8.33737
  0
LINE
  8
0
 10
2.8264
 20
8.33737
 11
2.75655
 21
8.55235
  0
LINE
  8
0
 10
2.75655
 20
8.55235
 11
2.71419
 21
8.7744
  0
LINE
  8
0
 10
2.71419
 20
8.7744
 11
2.7
 21
9
  0
LINE
  8
0
 10
2.7
 20
9
 11
2.71419
 21
9.22559
  0
LINE
  8
0
 10
2.71419
 20
9.22559
 11
2.75655
 21
9.44763
  0
LINE
  8
0
 10
2.75655
 20
9.44763
 11
2.8264
 21
9.66261
  0
LINE
  8
0
 10
2.8264
 20
9.66261
 11
2.92264
 21
9.86714
  0
LINE
  8
0
 10
2.92264
 20
9.86714
 11
3.04376
 21
10.058
  0
LINE
  8
0
 10
3.04376
 20
10.058
 11
3.18785
 21
10.2322
  0
LINE
  8
0
 10
3.18785
 20
10.2322
 11
3.35263
 21
10.3869
  0
LINE
  8
0
 10
3.35263
 20
10.3869
 11
3.53551
 21
10.5198
  0
LINE
  8
0
 10
3.53551
 20
10.5198
 11
3.7336
 21
10.6287
  0
LINE
  8
0
 10
3.7336
 20
10.6287
 11
3.94376
 21
10.7119
  0
LINE
  8
0
 10
3.94376
 20
10.7119
 11
4.1627
 21
10.7681
  0
LINE
  8
0
 10
4.1627
 20
10.7681
 11
4.38696
 21
10.7964
  0
LINE
  8
0
 10
4.38696
 20
10.7964
 11
4.61302
 21
10.7964
  0
LINE
  8
0
 10
4.61302
 20
10.7964
 11
4.83728
 21
10.7681
  0
LINE
  8
0
 10
4.83728
 20
10.7681
 11
5.05623
 21
10.7119
  0
LINE
  8
0
 10
5.05623
 20
10.7119
 11
5.26639
 21
10.6287
  0
LINE
  8
0
 10
5.26639
 20
10.6287
 11
5.46448
 21
10.5198
  0
LINE
  8
0
 10
5.46448
 20
10.5198
 11
5.64735
 21
10.3869
  0
LINE
  8
0
 10
5.64735
 20
10.3869
 11
5.81213
 21
10.2322
  0
LINE
  8
0
 10
5.81213
 20
10.2322
 11
5.95622
 21
10.058
  0
LINE
  8
0
 10
5.95622
 20
10.058
 11
6.07735
 21
9.86714
  0
LINE
  8
0
 10
6.07735
 20
9.86714
 11
6.17358
 21
9.66261
  0
LINE
  8
0
 10
6.17358
 20
9.66261
 11
6.24344
 21
9.44763
  0
LINE
  8
0
 10
6.24344
 20
9.44763
 11
6.2858
 21
9.22559
  0
LINE
  8
0
 10
6.2858
 20
9.22559
 11
6.29999
 21
9
  0
LINE
  8
0
 10
6.29999
 20
9
 11
6.2858
 21
8.7744
  0
LINE
  8
0
 10
6.2858
 20
8.7744
 11
6.24344
 21
8.55235
  0
LINE
  8
0
 10
6.24344
 20
8.55235
 11
6.17358
 21
8.33737
  0
LINE
  8
0
 10
6.17358
 20
8.33737
 11
6.07735
 21
8.13284
  0
LINE
  8
0
 10
6.07735
 20
8.13284
 11
5.95622
 21
7.94199
  0
LINE
  8
0
 10
5.95622
 20
7.94199
 11
5.81213
 21
7.76781
  0
LINE
  8
0
 10
5.81213
 20
7.76781
 11
5.64735
 21
7.61307
  0
LINE
  8
0
 10
5.64735
 20
7.61307
 11
5.46448
 21
7.48021
  0
LINE
  8
0
 10
5.46448
 20
7.48021
 11
5.26639
 21
7.37131
  0
LINE
  8
0
 10
5.26639
 20
7.37131
 11
5.05623
 21
7.28809
  0
LINE
  8
0
 10
5.05623
 20
7.28809
 11
4.83728
 21
7.23187
  0
LINE
  8
0
 10
4.83728
 20
7.23187
 11
4.61302
 21
7.20355
  0
LINE
  8
0
 10
4.61302
 20
7.20355
 11
4.38696
 21
7.20355
  0
LINE
  8
0
 10
22.3116
 20
4.50591
 11
21.9379
 21
4.55313
  0
LINE
  8
0
 10
21.9379
 20
4.55313
 11
21.5729
 21
4.64682
  0
LINE
  8
0
 10
21.5729
 20
4.64682
 11
21.2227
 21
4.78551
  0
LINE
  8
0
 10
21.2227
 20
4.78551
 11
20.8925
 21
4.96701
  0
LINE
  8
0
 10
20.8925
 20
4.96701
 11
20.5877
 21
5.18845
  0
LINE
  8
0
 10
20.5877
 20
5.18845
 11
20.3131
 21
5.44635
  0
LINE
  8
0
 10
20.3131
 20
5.44635
 11
20.0729
 21
5.73663
  0
LINE
  8
0
 10
20.0729
 20
5.73663
 11
19.8711
 21
6.05473
  0
LINE
  8
0
 10
19.8711
 20
6.05473
 11
19.7107
 21
6.39561
  0
LINE
  8
0
 10
19.7107
 20
6.39561
 11
19.5942
 21
6.75392
  0
LINE
  8
0
 10
19.5942
 20
6.75392
 11
19.5237
 21
7.12399
  0
LINE
  8
0
 10
19.5237
 20
7.12399
 11
19.5
 21
7.5
  0
LINE
  8
0
 10
19.5
 20
7.5
 11
19.5237
 21
7.87599
  0
LINE
  8
0
 10
19.5237
 20
7.87599
 11
19.5942
 21
8.24606
  0
LINE
  8
0
 10
19.5942
 20
8.24606
 11
19.7107
 21
8.60437
  0
LINE
  8
0
 10
19.7107
 20
8.60437
 11
19.8711
 21
8.94525
  0
LINE
  8
0
 10
19.8711
 20
8.94525
 11
20.0729
 21
9.26335
  0
LINE
  8
0
 10
20.0729
 20
9.26335
 11
20.3131
 21
9.55363
  0
LINE
  8
0
 10
20.3131
 20
9.55363
 11
20.5877
 21
9.81154
  0
LINE
  8
0
 10
20.5877
 20
9.81154
 11
20.8925
 21
10.033
  0
LINE
  8
0
 10
20.8925
 20
10.033
 11
21.2227
 21
10.2145
  0
LINE
  8
0
 10
21.2227
 20
10.2145
 11
21.5729
 21
10.3532
  0
LINE
  8
0
 10
21.5729
 20
10.3532
 11
21.9379
 21
10.4469
  0
LINE
  8
0
 10
21.9379
 20
10.4469
 11
22.3116
 21
10.4941
  0
LINE
  8
0
 10
22.3116
 20
10.4941
 11
22.6884
 21
10.4941
  0
LINE
  8
0
 10
22.6884
 20
10.4941
 11
23.0621
 21
10.4469
  0
LINE
  8
0
 10
23.0621
 20
10.4469
 11
23.427
 21
10.3532
  0
LINE
  8
0
 10
23.427
 20
10.3532
 11
23.7773
 21
10.2145
  0
LINE
  8
0
 10
23.7773
 20
10.2145
 11
24.1075
 21
10.033
  0
LINE
  8
0
 10
24.1075
 20
10.033
 11
24.4123
 21
9.81154
  0
LINE
  8
0
 10
24.4123
 20
9.81154
 11
24.6869
 21
9.55363
  0
LINE
  8
0
 10
24.6869
 20
9.55363
 11
24.927
 21
9.26335
  0
LINE
  8
0
 10
24.927
 20
9.26335
 11
25.1289
 21
8.94525
  0
LINE
  8
0
 10
25.1289
 20
8.94525
 11
25.2893
 21
8.60437
  0
LINE
  8
0
 10
25.2893
 20
8.60437
 11
25.4057
 21
8.24606
  0
LINE
  8
0
 10
25.4057
 20
8.24606
 11
25.4763
 21
7.87599
  0
LINE
  8
0
 10
25.4763
 20
7.87599
 11
25.5
 21
7.5
  0
LINE
  8
0
 10
25.5
 20
7.5
 11
25.4763
 21
7.12399
  0
LINE
  8
0
 10
25.4763
 20
7.12399
 11
25.4057
 21
6.75392
  0
LINE
  8
0
 10
25.4057
 20
6.75392
 11
25.2893
 21
6.39561
  0
LINE
  8
0
 10
25.2893
 20
6.39561
 11
25.1289
 21
6.05473
  0
LINE
  8
0
 10
25.1289
 20
6.05473
 11
24.927
 21
5.73663
  0
LINE
  8
0
 10
24.927
 20
5.73663
 11
24.6869
 21
5.44635
  0
LINE
  8
0
 10
24.6869
 20
5.44635
 11
24.4123
 21
5.18845
  0
LINE
  8
0
 10
24.4123
 20
5.18845
 11
24.1075
 21
4.96701
  0
LINE
  8
0
 10
24.1075
 20
4.96701
 11
23.7773
 21
4.78551
  0
LINE
  8
0
 10
23.7773
 20
4.78551
 11
23.427
 21
4.64682
  0
LINE
  8
0
 10
23.427
 20
4.64682
 11
23.0621
 21
4.55313
  0
LINE
  8
0
 10
23.0621
 20
4.55313
 11
22.6884
 21
4.50591
  0
LINE
  8
0
 10
22.6884
 20
4.50591
 11
22.3116
 21
4.50591
  0
LINE
  8
0
 10
-22.6884
 20
4.50591
 11
-23.0621
 21
4.55313
  0
LINE
  8
0
 10
-23.0621
 20
4.55313
 11
-23.427
 21
4.64682
  0
LINE
  8
0
 10
-23.427
 20
4.64682
 11
-23.7773
 21
4.78551
  0
LINE
  8
0
 10
-23.7773
 20
4.78551
 11
-24.1075
 21
4.96701
  0
LINE
  8
0
 10
-24.1075
 20
4.96701
 11
-24.4123
 21
5.18845
  0
LINE
  8
0
 10
-24.4123
 20
5.18845
 11
-24.6869
 21
5.44635
  0
LINE
  8
0
 10
-24.6869
 20
5.44635
 11
-24.927
 21
5.73663
  0
LINE
  8
0
 10
-24.927
 20
5.73663
 11
-25.1289
 21
6.05473
  0
LINE
  8
0
 10
-25.1289
 20
6.05473
 11
-25.2893
 21
6.39561
  0
LINE
  8
0
 10
-25.2893
 20
6.39561
 11
-25.4057
 21
6.75392
  0
LINE
  8
0
 10
-25.4057
 20
6.75392
 11
-25.4763
 21
7.12399
  0
LINE
  8
0
 10
-25.4763
 20
7.12399
 11
-25.5
 21
7.5
  0
LINE
  8
0
 10
-25.5
 20
7.5
 11
-25.4763
 21
7.87599
  0
LINE
  8
0
 10
-25.4763
 20
7.87599
 11
-25.4057
 21
8.24606
  0
LINE
  8
0
 10
-25.4057
 20
8.24606
 11
-25.2893
 21
8.60437
  0
LINE
  8
0
 10
-25.2893
 20
8.60437
 11
-25.1289
 21
8.94525
  0
LINE
  8
0
 10
-25.1289
 20
8.94525
 11
-24.927
 21
9.26335
  0
LINE
  8
0
 10
-24.927
 20
9.26335
 11
-24.6869
 21
9.55363
  0
LINE
  8
0
 10
-24.6869
 20
9.55363
 11
-24.4123
 21
9.81154
  0
LINE
  8
0
 10
-24.4123
 20
9.81154
 11
-24.1075
 21
10.033
  0
LINE
  8
0
 10
-24.1075
 20
10.033
 11
-23.7773
 21
10.2145
  0
LINE
  8
0
 10
-23.7773
 20
10.2145
 11
-23.427
 21
10.3532
  0
LINE
  8
0
 10
-23.427
 20
10.3532
 11
-23.0621
 21
10.4469
  0
LINE
  8
0
 10
-23.0621
 20
10.4469
 11
-22.6884
 21
10.4941
  0
LINE
  8
0
 10
-22.6884
 20
10.4941
 11
-22.3116
 21
10.4941
  0
LINE
  8
0
 10
-22.3116
 20
10.4941
 11
-21.9379
 21
10.4469
  0
LINE
  8
0
 10
-21.9379
 20
10.4469
 11
-21.5729
 21
10.3532
  0
LINE
  8
0
 10
-21.5729
 20
10.3532
 11
-21.2227
 21
10.2145
  0
LINE
  8
0
 10
-21.2227
 20
10.2145
 11
-20.8925
 21
10.033
  0
LINE
  8
0
 10
-20.8925
 20
10.033
 11
-20.5877
 21
9.81154
  0
LINE
  8
0
 10
-20.5877
 20
9.81154
 11
-20.3131
 21
9.55363
  0
LINE
  8
0
 10
-20.3131
 20
9.55363
 11
-20.0729
 21
9.26335
  0
LINE
  8
0
 10
-20.0729
 20
9.26335
 11
-19.8711
 21
8.94525
  0
LINE
  8
0
 10
-19.8711
 20
8.94525
 11
-19.7107
 21
8.60437
  0
LINE
  8
0
 10
-19.7107
 20
8.60437
 11
-19.5942
 21
8.24606
  0
LINE
  8
0
 10
-19.5942
 20
8.24606
 11
-19.5237
 21
7.87599
  0
LINE
  8
0
 10
-19.5237
 20
7.87599
 11
-19.5
 21
7.5
  0
LINE
  8
0
 10
-19.5
 20
7.5
 11
-19.5237
 21
7.12399
  0
LINE
  8
0
 10
-19.5237
 20
7.12399
 11
-19.5942
 21
6.75392
  0
LINE
  8
0
 10
-19.5942
 20
6.75392
 11
-19.7107
 21
6.39561
  0
LINE
  8
0
 10
-19.7107
 20
6.39561
 11
-19.8711
 21
6.05473
  0
LINE
  8
0
 10
-19.8711
 20
6.05473
 11
-20.0729
 21
5.73663
  0
LINE
  8
0
 10
-20.0729
 20
5.73663
 11
-20.3131
 21
5.44635
  0
LINE
  8
0
 10
-20.3131
 20
5.44635
 11
-20.5877
 21
5.18845
  0
LINE
  8
0
 10
-20.5877
 20
5.18845
 11
-20.8925
 21
4.96701
  0
LINE
  8
0
 10
-20.8925
 20
4.96701
 11
-21.2227
 21
4.78551
  0
LINE
  8
0
 10
-21.2227
 20
4.78551
 11
-21.5729
 21
4.64682
  0
LINE
  8
0
 10
-21.5729
 20
4.64682
 11
-21.9379
 21
4.55313
  0
LINE
  8
0
 10
-21.9379
 20
4.55313
 11
-22.3116
 21
4.50591
  0
LINE
  8
0
 10
-22.3116
 20
4.50591
 11
-22.6884
 21
4.50591
  0
LINE
  8
0
 10
8.68999
 20
-10
 11
8.68999
 21
10
  0
LINE
  8
0
 10
8.68999
 20
10
 11
12.69
 21
10
  0
LINE
  8
0
 10
12.69
 20
10
 11
12.69
 21
-10
  0
LINE
  8
0
 10
12.69
 20
-10
 11
8.68999
 21
-10
  0
LINE
  8
0
 10
-14.73
 20
-8
 11
-14.73
 21
8
  0
LINE
  8
0
 10
-14.73
 20
8
 11
-11.73
 21
8
  0
LINE
  8
0
 10
-11.73
 20
8
 11
-11.73
 21
-8
  0
LINE
  8
0
 10
-11.73
 20
-8
 11
-14.73
 21
-8
  0
LINE
  8
0
 10
-22.5942
 20
-1.49704
 11
-22.7811
 21
-1.47342
  0
LINE
  8
0
 10
-22.7811
 20
-1.47342
 11
-22.9635
 21
-1.42657
  0
LINE
  8
0
 10
-22.9635
 20
-1.42657
 11
-23.1387
 21
-1.35724
  0
LINE
  8
0
 10
-23.1387
 20
-1.35724
 11
-23.3037
 21
-1.26648
  0
LINE
  8
0
 10
-23.3037
 20
-1.26648
 11
-23.4561
 21
-1.15576
  0
LINE
  8
0
 10
-23.4561
 20
-1.15576
 11
-23.5934
 21
-1.02681
  0
LINE
  8
0
 10
-23.5934
 20
-1.02681
 11
-23.7135
 21
-0.881668
  0
LINE
  8
0
 10
-23.7135
 20
-0.881668
 11
-23.8145
 21
-0.722626
  0
LINE
  8
0
 10
-23.8145
 20
-0.722626
 11
-23.8947
 21
-0.552185
  0
LINE
  8
0
 10
-23.8947
 20
-0.552185
 11
-23.9529
 21
-0.373032
  0
LINE
  8
0
 10
-23.9529
 20
-0.373032
 11
-23.9882
 21
-0.187988
  0
LINE
  8
0
 10
-23.9882
 20
-0.187988
 11
-24
 21
0
  0
LINE
  8
0
 10
-24
 20
0
 11
-23.9882
 21
0.187988
  0
LINE
  8
0
 10
-23.9882
 20
0.187988
 11
-23.9529
 21
0.373032
  0
LINE
  8
0
 10
-23.9529
 20
0.373032
 11
-23.8947
 21
0.552185
  0
LINE
  8
0
 10
-23.8947
 20
0.552185
 11
-23.8145
 21
0.722626
  0
LINE
  8
0
 10
-23.8145
 20
0.722626
 11
-23.7135
 21
0.881668
  0
LINE
  8
0
 10
-23.7135
 20
0.881668
 11
-23.5934
 21
1.02681
  0
LINE
  8
0
 10
-23.5934
 20
1.02681
 11
-23.4561
 21
1.15576
  0
LINE
  8
0
 10
-23.4561
 20
1.15576
 11
-23.3037
 21
1.26648
  0
LINE
  8
0
 10
-23.3037
 20
1.26648
 11
-23.1387
 21
1.35724
  0
LINE
  8
0
 10
-23.1387
 20
1.35724
 11
-22.9635
 21
1.42657
  0
LINE
  8
0
 10
-22.9635
 20
1.42657
 11
-22.7811
 21
1.47342
  0
LINE
  8
0
 10
-22.7811
 20
1.47342
 11
-22.5942
 21
1.49704
  0
LINE
  8
0
 10
-22.5942
 20
1.49704
 11
-22.4058
 21
1.49704
  0
LINE
  8
0
 10
-22.4058
 20
1.49704
 11
-22.2189
 21
1.47342
  0
LINE
  8
0
 10
-22.2189
 20
1.47342
 11
-22.0365
 21
1.42657
  0
LINE
  8
0
 10
-22.0365
 20
1.42657
 11
-21.8613
 21
1.35724
  0
LINE
  8
0
 10
-21.8613
 20
1.35724
 11
-21.6963
 21
1.26648
  0
LINE
  8
0
 10
-21.6963
 20
1.26648
 11
-21.5439
 21
1.15576
  0
LINE
  8
0
 10
-21.5439
 20
1.15576
 11
-21.4065
 21
1.02681
  0
LINE
  8
0
 10
-21.4065
 20
1.02681
 11
-21.2865
 21
0.881668
  0
LINE
  8
0
 10
-21.2865
 20
0.881668
 11
-21.1855
 21
0.722626
  0
LINE
  8
0
 10
-21.1855
 20
0.722626
 11
-21.1053
 21
0.552185
  0
LINE
  8
0
 10
-21.1053
 20
0.552185
 11
-21.0471
 21
0.373032
  0
LINE
  8
0
 10
-21.0471
 20
0.373032
 11
-21.0118
 21
0.187988
  0
LINE
  8
0
 10
-21.0118
 20
0.187988
 11
-21
 21
0
  0
LINE
  8
0
 10
-21
 20
0
 11
-21.0118
 21
-0.187988
  0
LINE
  8
0
 10
-21.0118
 20
-0.187988
 11
-21.0471
 21
-0.373032
  0
LINE
  8
0
 10
-21.0471
 20
-0.373032
 11
-21.1053
 21
-0.552185
  0
LINE
  8
0
 10
-21.1053
 20
-0.552185
 11
-21.1855
 21
-0.722626
  0
LINE
  8
0
 10
-21.1855
 20
-0.722626
 11
-21.2865
 21
-0.881668
  0
LINE
  8
0
 10
-21.2865
 20
-0.881668
 11
-21.4065
 21
-1.02681
  0
LINE
  8
0
 10
-21.4065
 20
-1.02681
 11
-21.5439
 21
-1.15576
  0
LINE
  8
0
 10
-21.5439
 20
-1.15576
 11
-21.6963
 21
-1.26648
  0
LINE
  8
0
 10
-21.6963
 20
-1.26648
 11
-21.8613
 21
-1.35724
  0
LINE
  8
0
 10
-21.8613
 20
-1.35724
 11
-22.0365
 21
-1.42657
  0
LINE
  8
0
 10
-22.0365
 20
-1.42657
 11
-22.2189
 21
-1.47342
  0
LINE
  8
0
 10
-22.2189
 20
-1.47342
 11
-22.4058
 21
-1.49704
  0
LINE
  8
0
 10
-22.4058
 20
-1.49704
 11
-22.5942
 21
-1.49704
  0
LINE
  8
0
 10
22.4058
 20
-1.49704
 11
22.2189
 21
-1.47342
  0
LINE
  8
0
 10
22.2189
 20
-1.47342
 11
22.0365
 21
-1.42657
  0
LINE
  8
0
 10
22.0365
 20
-1.42657
 11
21.8613
 21
-1.35724
  0
LINE
  8
0
 10
21.8613
 20
-1.35724
 11
21.6963
 21
-1.26648
  0
LINE
  8
0
 10
21.6963
 20
-1.26648
 11
21.5439
 21
-1.15576
  0
LINE
  8
0
 10
21.5439
 20
-1.15576
 11
21.4065
 21
-1.02681
  0
LINE
  8
0
 10
21.4065
 20
-1.02681
 11
21.2865
 21
-0.881668
  0
LINE
  8
0
 10
21.2865
 20
-0.881668
 11
21.1855
 21
-0.722626
  0
LINE
  8
0
 10
21.1855
 20
-0.722626
 11
21.1053
 21
-0.552185
  0
LINE
  8
0
 10
21.1053
 20
-0.552185
 11
21.0471
 21
-0.373032
  0
LINE
  8
0
 10
21.0471
 20
-0.373032
 11
21.0118
 21
-0.187988
  0
LINE
  8
0
 10
21.0118
 20
-0.187988
 11
21
 21
0
  0
LINE
  8
0
 10
21
 20
0
 11
21.0118
 21
0.187988
  0
LINE
  8
0
 10
21.0118
 20
0.187988
 11
21.0471
 21
0.373032
  0
LINE
  8
0
 10
21.0471
 20
0.373032
 11
21.1053
 21
0.552185
  0
LINE
  8
0
 10
21.1053
 20
0.552185
 11
21.1855
 21
0.722626
  0
LINE
  8
0
 10
21.1855
 20
0.722626
 11
21.2865
 21
0.881668
  0
LINE
  8
0
 10
21.2865
 20
0.881668
 11
21.4065
 21
1.02681
  0
LINE
  8
0
 10
21.4065
 20
1.02681
 11
21.5439
 21
1.15576
  0
LINE
  8
0
 10
21.5439
 20
1.15576
 11
21.6963
 21
1.26648
  0
LINE
  8
0
 10
21.6963
 20
1.26648
 11
21.8613
 21
1.35724
  0
LINE
  8
0
 10
21.8613
 20
1.35724
 11
22.0365
 21
1.42657
  0
LINE
  8
0
 10
22.0365
 20
1.42657
 11
22.2189
 21
1.47342
  0
LINE
  8
0
 10
22.2189
 20
1.47342
 11
22.4058
 21
1.49704
  0
LINE
  8
0
 10
22.4058
 20
1.49704
 11
22.5942
 21
1.49704
  0
LINE
  8
0
 10
22.5942
 20
1.49704
 11
22.7811
 21
1.47342
  0
LINE
  8
0
 10
22.7811
 20
1.47342
 11
22.9635
 21
1.42657
  0
LINE
  8
0
 10
22.9635
 20
1.42657
 11
23.1387
 21
1.35724
  0
LINE
  8
0
 10
23.1387
 20
1.35724
 11
23.3037
 21
1.26648
  0
LINE
  8
0
 10
23.3037
 20
1.26648
 11
23.4561
 21
1.15576
  0
LINE
  8
0
 10
23.4561
 20
1.15576
 11
23.5934
 21
1.02681
  0
LINE
  8
0
 10
23.5934
 20
1.02681
 11
23.7135
 21
0.881668
  0
LINE
  8
0
 10
23.7135
 20
0.881668
 11
23.8145
 21
0.722626
  0
LINE
  8
0
 10
23.8145
 20
0.722626
 11
23.8947
 21
0.552185
  0
LINE
  8
0
 10
23.8947
 20
0.552185
 11
23.9529
 21
0.373032
  0
LINE
  8
0
 10
23.9529
 20
0.373032
 11
23.9882
 21
0.187988
  0
LINE
  8
0
 10
23.9882
 20
0.187988
 11
24
 21
0
  0
LINE
  8
0
 10
24
 20
0
 11
23.9882
 21
-0.187988
  0
LINE
  8
0
 10
23.9882
 20
-0.187988
 11
23.9529
 21
-0.373032
  0
LINE
  8
0
 10
23.9529
 20
-0.373032
 11
23.8947
 21
-0.552185
  0
LINE
  8
0
 10
23.8947
 20
-0.552185
 11
23.8145
 21
-0.722626
  0
LINE
  8
0
 10
23.8145
 20
-0.722626
 11
23.7135
 21
-0.881668
  0
LINE
  8
0
 10
23.7135
 20
-0.881668
 11
23.5934
 21
-1.02681
  0
LINE
  8
0
 10
23.5934
 20
-1.02681
 11
23.4561
 21
-1.15576
  0
LINE
  8
0
 10
23.4561
 20
-1.15576
 11
23.3037
 21
-1.26648
  0
LINE
  8
0
 10
23.3037
 20
-1.26648
 11
23.1387
 21
-1.35724
  0
LINE
  8
0
 10
23.1387
 20
-1.35724
 11
22.9635
 21
-1.42657
  0
LINE
  8
0
 10
22.9635
 20
-1.42657
 11
22.7811
 21
-1.47342
  0
LINE
  8
0
 10
22.7811
 20
-1.47342
 11
22.5942
 21
-1.49704
  0
LINE
  8
0
 10
22.5942
 20
-1.49704
 11
22.4058
 21
-1.49704
  0
LINE
  8
0
 10
22.3116
 20
-10.4941
 11
21.9379
 21
-10.4469
  0
LINE
  8
0
 10
21.9379
 20
-10.4469
 11
21.5729
 21
-10.3532
  0
LINE
  8
0
 10
21.5729
 20
-10.3532
 11
21.2227
 21
-10.2145
  0
LINE
  8
0
 10
21.2227
 20
-10.2145
 11
20.8925
 21
-10.033
  0
LINE
  8
0
 10
20.8925
 20
-10.033
 11
20.5877
 21
-9.81154
  0
LINE
  8
0
 10
20.5877
 20
-9.81154
 11
20.3131
 21
-9.55363
  0
LINE
  8
0
 10
20.3131
 20
-9.55363
 11
20.0729
 21
-9.26335
  0
LINE
  8
0
 10
20.0729
 20
-9.26335
 11
19.8711
 21
-8.94525
  0
LINE
  8
0
 10
19.8711
 20
-8.94525
 11
19.7107
 21
-8.60437
  0
LINE
  8
0
 10
19.7107
 20
-8.60437
 11
19.5942
 21
-8.24606
  0
LINE
  8
0
 10
19.5942
 20
-8.24606
 11
19.5237
 21
-7.87599
  0
LINE
  8
0
 10
19.5237
 20
-7.87599
 11
19.5
 21
-7.5
  0
LINE
  8
0
 10
19.5
 20
-7.5
 11
19.5237
 21
-7.12399
  0
LINE
  8
0
 10
19.5237
 20
-7.12399
 11
19.5942
 21
-6.75392
  0
LINE
  8
0
 10
19.5942
 20
-6.75392
 11
19.7107
 21
-6.39561
  0
LINE
  8
0
 10
19.7107
 20
-6.39561
 11
19.8711
 21
-6.05473
  0
LINE
  8
0
 10
19.8711
 20
-6.05473
 11
20.0729
 21
-5.73663
  0
LINE
  8
0
 10
20.0729
 20
-5.73663
 11
20.3131
 21
-5.44635
  0
LINE
  8
0
 10
20.3131
 20
-5.44635
 11
20.5877
 21
-5.18845
  0
LINE
  8
0
 10
20.5877
 20
-5.18845
 11
20.8925
 21
-4.96701
  0
LINE
  8
0
 10
20.8925
 20
-4.96701
 11
21.2227
 21
-4.78551
  0
LINE
  8
0
 10
21.2227
 20
-4.78551
 11
21.5729
 21
-4.64682
  0
LINE
  8
0
 10
21.5729
 20
-4.64682
 11
21.9379
 21
-4.55313
  0
LINE
  8
0
 10
21.9379
 20
-4.55313
 11
22.3116
 21
-4.50591
  0
LINE
  8
0
 10
22.3116
 20
-4.50591
 11
22.6884
 21
-4.50591
  0
LINE
  8
0
 10
22.6884
 20
-4.50591
 11
23.0621
 21
-4.55313
  0
LINE
  8
0
 10
23.0621
 20
-4.55313
 11
23.427
 21
-4.64682
  0
LINE
  8
0
 10
23.427
 20
-4.64682
 11
23.7773
 21
-4.78551
  0
LINE
  8
0
 10
23.7773
 20
-4.78551
 11
24.1075
 21
-4.96701
  0
LINE
  8
0
 10
24.1075
 20
-4.96701
 11
24.4123
 21
-5.18845
  0
LINE
  8
0
 10
24.4123
 20
-5.18845
 11
24.6869
 21
-5.44635
  0
LINE
  8
0
 10
24.6869
 20
-5.44635
 11
24.927
 21
-5.73663
  0
LINE
  8
0
 10
24.927
 20
-5.73663
 11
25.1289
 21
-6.05473
  0
LINE
  8
0
 10
25.1289
 20
-6.05473
 11
25.2893
 21
-6.39561
  0
LINE
  8
0
 10
25.2893
 20
-6.39561
 11
25.4057
 21
-6.75392
  0
LINE
  8
0
 10
25.4057
 20
-6.75392
 11
25.4763
 21
-7.12399
  0
LINE
  8
0
 10
25.4763
 20
-7.12399
 11
25.5
 21
-7.5
  0
LINE
  8
0
 10
25.5
 20
-7.5
 11
25.4763
 21
-7.87599
  0
LINE
  8
0
 10
25.4763
 20
-7.87599
 11
25.4057
 21
-8.24606
  0
LINE
  8
0
 10
25.4057
 20
-8.24606
 11
25.2893
 21
-8.60437
  0
LINE
  8
0
 10
25.2893
 20
-8.60437
 11
25.1289
 21
-8.94525
  0
LINE
  8
0
 10
25.1289
 20
-8.94525
 11
24.927
 21
-9.26335
  0
LINE
  8
0
 10
24.927
 20
-9.26335
 11
24.6869
 21
-9.55363
  0
LINE
  8
0
 10
24.6869
 20
-9.55363
 11
24.4123
 21
-9.81154
  0
LINE
  8
0
 10
24.4123
 20
-9.81154
 11
24.1075
 21
-10.033
  0
LINE
  8
0
 10
24.1075
 20
-10.033
 11
23.7773
 21
-10.2145
  0
LINE
  8
0
 10
23.7773
 20
-10.2145
 11
23.427
 21
-10.3532
  0
LINE
  8
0
 10
23.427
 20
-10.3532
 11
23.0621
 21
-10.4469
  0
LINE
  8
0
 10
23.0621
 20
-10.4469
 11
22.6884
 21
-10.4941
  0
LINE
  8
0
 10
22.6884
 20
-10.4941
 11
22.3116
 21
-10.4941
  0
LINE
  8
0
 10
-22.6884
 20
-10.4941
 11
-23.0621
 21
-10.4469
  0
LINE
  8
0
 10
-23.0621
 20
-10.4469
 11
-23.427
 21
-10.3532
  0
LINE
  8
0
 10
-23.427
 20
-10.3532
 11
-23.7773
 21
-10.2145
  0
LINE
  8
0
 10
-23.7773
 20
-10.2145
 11
-24.1075
 21
-10.033
  0
LINE
  8
0
 10
-24.1075
 20
-10.033
 11
-24.4123
 21
-9.81154
  0
LINE
  8
0
 10
-24.4123
 20
-9.81154
 11
-24.6869
 21
-9.55363
  0
LINE
  8
0
 10
-24.6869
 20
-9.55363
 11
-24.927
 21
-9.26335
  0
LINE
  8
0
 10
-24.927
 20
-9.26335
 11
-25.1289
 21
-8.94525
  0
LINE
  8
0
 10
-25.1289
 20
-8.94525
 11
-25.2893
 21
-8.60437
  0
LINE
  8
0
 10
-25.2893
 20
-8.60437
 11
-25.4057
 21
-8.24606
  0
LINE
  8
0
 10
-25.4057
 20
-8.24606
 11
-25.4763
 21
-7.87599
  0
LINE
  8
0
 10
-25.4763
 20
-7.87599
 11
-25.5
 21
-7.5
  0
LINE
  8
0
 10
-25.5
 20
-7.5
 11
-25.4763
 21
-7.12399
  0
LINE
  8
0
 10
-25.4763
 20
-7.12399
 11
-25.4057
 21
-6.75392
  0
LINE
  8
0
 10
-25.4057
 20
-6.75392
 11
-25.2893
 21
-6.39561
  0
LINE
  8
0
 10
-25.2893
 20
-6.39561
 11
-25.1289
 21
-6.05473
  0
LINE
  8
0
 10
-25.1289
 20
-6.05473
 11
-24.927
 21
-5.73663
  0
LINE
  8
0
 10
-24.927
 20
-5.73663
 11
-24.6869
 21
-5.44635
  0
LINE
  8
0
 10
-24.6869
 20
-5.44635
 11
-24.4123
 21
-5.18845
  0
LINE
  8
0
 10
-24.4123
 20
-5.18845
 11
-24.1075
 21
-4.96701
  0
LINE
  8
0
 10
-24.1075
 20
-4.96701
 11
-23.7773
 21
-4.78551
  0
LINE
  8
0
 10
-23.7773
 20
-4.78551
 11
-23.427
 21
-4.64682
  0
LINE
  8
0
 10
-23.427
 20
-4.64682
 11
-23.0621
 21
-4.55313
  0
LINE
  8
0
 10
-23.0621
 20
-4.55313
 11
-22.6884
 21
-4.50591
  0
LINE
  8
0
 10
-22.6884
 20
-4.50591
 11
-22.3116
 21
-4.50591
  0
LINE
  8
0
 10
-22.3116
 20
-4.50591
 11
-21.9379
 21
-4.55313
  0
LINE
  8
0
 10
-21.9379
 20
-4.55313
 11
-21.5729
 21
-4.64682
  0
LINE
  8
0
 10
-21.5729
 20
-4.64682
 11
-21.2227
 21
-4.78551
  0
LINE
  8
0
 10
-21.2227
 20
-4.78551
 11
-20.8925
 21
-4.96701
  0
LINE
  8
0
 10
-20.8925
 20
-4.96701
 11
-20.5877
 21
-5.18845
  0
LINE
  8
0
 10
-20.5877
 20
-5.18845
 11
-20.3131
 21
-5.44635
  0
LINE
  8
0
 10
-20.3131
 20
-5.44635
 11
-20.0729
 21
-5.73663
  0
LINE
  8
0
 10
-20.0729
 20
-5.73663
 11
-19.8711
 21
-6.05473
  0
LINE
  8
0
 10
-19.8711
 20
-6.05473
 11
-19.7107
 21
-6.39561
  0
LINE
  8
0
 10
-19.7107
 20
-6.39561
 11
-19.5942
 21
-6.75392
  0
LINE
  8
0
 10
-19.5942
 20
-6.75392
 11
-19.5237
 21
-7.12399
  0
LINE
  8
0
 10
-19.5237
 20
-7.12399
 11
-19.5
 21
-7.5
  0
LINE
  8
0
 10
-19.5
 20
-7.5
 11
-19.5237
 21
-7.87599
  0
LINE
  8
0
 10
-19.5237
 20
-7.87599
 11
-19.5942
 21
-8.24606
  0
LINE
  8
0
 10
-19.5942
 20
-8.24606
 11
-19.7107
 21
-8.60437
  0
LINE
  8
0
 10
-19.7107
 20
-8.60437
 11
-19.8711
 21
-8.94525
  0
LINE
  8
0
 10
-19.8711
 20
-8.94525
 11
-20.0729
 21
-9.26335
  0
LINE
  8
0
 10
-20.0729
 20
-9.26335
 11
-20.3131
 21
-9.55363
  0
LINE
  8
0
 10
-20.3131
 20
-9.55363
 11
-20.5877
 21
-9.81154
  0
LINE
  8
0
 10
-20.5877
 20
-9.81154
 11
-20.8925
 21
-10.033
  0
LINE
  8
0
 10
-20.8925
 20
-10.033
 11
-21.2227
 21
-10.2145
  0
LINE
  8
0
 10
-21.2227
 20
-10.2145
 11
-21.5729
 21
-10.3532
  0
LINE
  8
0
 10
-21.5729
 20
-10.3532
 11
-21.9379
 21
-10.4469
  0
LINE
  8
0
 10
-21.9379
 20
-10.4469
 11
-22.3116
 21
-10.4941
  0
LINE
  8
0
 10
-22.3116
 20
-10.4941
 11
-22.6884
 21
-10.4941
  0
LINE
  8
0
 10
-8.61302
 20
-10.7964
 11
-8.83728
 21
-10.7681
  0
LINE
  8
0
 10
-8.83728
 20
-10.7681
 11
-9.05623
 21
-10.7119
  0
LINE
  8
0
 10
-9.05623
 20
-10.7119
 11
-9.26639
 21
-10.6287
  0
LINE
  8
0
 10
-9.26639
 20
-10.6287
 11
-9.46448
 21
-10.5198
  0
LINE
  8
0
 10
-9.46448
 20
-10.5198
 11
-9.64735
 21
-10.3869
  0
LINE
  8
0
 10
-9.64735
 20
-10.3869
 11
-9.81213
 21
-10.2322
  0
LINE
  8
0
 10
-9.81213
 20
-10.2322
 11
-9.95622
 21
-10.058
  0
LINE
  8
0
 10
-9.95622
 20
-10.058
 11
-10.0773
 21
-9.86714
  0
LINE
  8
0
 10
-10.0773
 20
-9.86714
 11
-10.1736
 21
-9.66261
  0
LINE
  8
0
 10
-10.1736
 20
-9.66261
 11
-10.2434
 21
-9.44763
  0
LINE
  8
0
 10
-10.2434
 20
-9.44763
 11
-10.2858
 21
-9.22559
  0
LINE
  8
0
 10
-10.2858
 20
-9.22559
 11
-10.3
 21
-9
  0
LINE
  8
0
 10
-10.3
 20
-9
 11
-10.2858
 21
-8.7744
  0
LINE
  8
0
 10
-10.2858
 20
-8.7744
 11
-10.2434
 21
-8.55235
  0
LINE
  8
0
 10
-10.2434
 20
-8.55235
 11
-10.1736
 21
-8.33737
  0
LINE
  8
0
 10
-10.1736
 20
-8.33737
 11
-10.0773
 21
-8.13284
  0
LINE
  8
0
 10
-10.0773
 20
-8.13284
 11
-9.95622
 21
-7.94199
  0
LINE
  8
0
 10
-9.95622
 20
-7.94199
 11
-9.81213
 21
-7.76781
  0
LINE
  8
0
 10
-9.81213
 20
-7.76781
 11
-9.64735
 21
-7.61307
  0
LINE
  8
0
 10
-9.64735
 20
-7.61307
 11
-9.46448
 21
-7.48021
  0
LINE
  8
0
 10
-9.46448
 20
-7.48021
 11
-9.26639
 21
-7.37131
  0
LINE
  8
0
 10
-9.26639
 20
-7.37131
 11
-9.05623
 21
-7.28809
  0
LINE
  8
0
 10
-9.05623
 20
-7.28809
 11
-8.83728
 21
-7.23187
  0
LINE
  8
0
 10
-8.83728
 20
-7.23187
 11
-8.61302
 21
-7.20355
  0
LINE
  8
0
 10
-8.61302
 20
-7.20355
 11
-8.38696
 21
-7.20355
  0
LINE
  8
0
 10
-8.38696
 20
-7.20355
 11
-8.1627
 21
-7.23187
  0
LINE
  8
0
 10
-8.1627
 20
-7.23187
 11
-7.94376
 21
-7.28809
  0
LINE
  8
0
 10
-7.94376
 20
-7.28809
 11
-7.7336
 21
-7.37131
  0
LINE
  8
0
 10
-7.7336
 20
-7.37131
 11
-7.53551
 21
-7.48021
  0
LINE
  8
0
 10
-7.53551
 20
-7.48021
 11
-7.35263
 21
-7.61307
  0
LINE
  8
0
 10
-7.35263
 20
-7.61307
 11
-7.18785
 21
-7.76781
  0
LINE
  8
0
 10
-7.18785
 20
-7.76781
 11
-7.04376
 21
-7.94199
  0
LINE
  8
0
 10
-7.04376
 20
-7.94199
 11
-6.92264
 21
-8.13284
  0
LINE
  8
0
 10
-6.92264
 20
-8.13284
 11
-6.8264
 21
-8.33737
  0
LINE
  8
0
 10
-6.8264
 20
-8.33737
 11
-6.75655
 21
-8.55235
  0
LINE
  8
0
 10
-6.75655
 20
-8.55235
 11
-6.71419
 21
-8.7744
  0
LINE
  8
0
 10
-6.71419
 20
-8.7744
 11
-6.7
 21
-9
  0
LINE
  8
0
 10
-6.7
 20
-9
 11
-6.71419
 21
-9.22559
  0
LINE
  8
0
 10
-6.71419
 20
-9.22559
 11
-6.75655
 21
-9.44763
  0
LINE
  8
0
 10
-6.75655
 20
-9.44763
 11
-6.8264
 21
-9.66261
  0
LINE
  8
0
 10
-6.8264
 20
-9.66261
 11
-6.92264
 21
-9.86714
  0
LINE
  8
0
 10
-6.92264
 20
-9.86714
 11
-7.04376
 21
-10.058
  0
LINE
  8
0
 10
-7.04376
 20
-10.058
 11
-7.18785
 21
-10.2322
  0
LINE
  8
0
 10
-7.18785
 20
-10.2322
 11
-7.35263
 21
-10.3869
  0
LINE
  8
0
 10
-7.35263
 20
-10.3869
 11
-7.53551
 21
-10.5198
  0
LINE
  8
0
 10
-7.53551
 20
-10.5198
 11
-7.7336
 21
-10.6287
  0
LINE
  8
0
 10
-7.7336
 20
-10.6287
 11
-7.94376
 21
-10.7119
  0
LINE
  8
0
 10
-7.94376
 20
-10.7119
 11
-8.1627
 21
-10.7681
  0
LINE
  8
0
 10
-8.1627
 20
-10.7681
 11
-8.38696
 21
-10.7964
  0
LINE
  8
0
 10
-8.38696
 20
-10.7964
 11
-8.61302
 21
-10.7964
  0
LINE
  8
0
 10
4.38696
 20
-10.7964
 11
4.1627
 21
-10.7681
  0
LINE
  8
0
 10
4.1627
 20
-10.7681
 11
3.94376
 21
-10.7119
  0
LINE
  8
0
 10
3.94376
 20
-10.7119
 11
3.7336
 21
-10.6287
  0
LINE
  8
0
 10
3.7336
 20
-10.6287
 11
3.53551
 21
-10.5198
  0
LINE
  8
0
 10
3.53551
 20
-10.5198
 11
3.35263
 21
-10.3869
  0
LINE
  8
0
 10
3.35263
 20
-10.3869
 11
3.18785
 21
-10.2322
  0
LINE
  8
0
 10
3.18785
 20
-10.2322
 11
3.04376
 21
-10.058
  0
LINE
  8
0
 10
3.04376
 20
-10.058
 11
2.92264
 21
-9.86714
  0
LINE
  8
0
 10
2.92264
 20
-9.86714
 11
2.8264
 21
-9.66261
  0
LINE
  8
0
 10
2.8264
 20
-9.66261
 11
2.75655
 21
-9.44763
  0
LINE
  8
0
 10
2.75655
 20
-9.44763
 11
2.71419
 21
-9.22559
  0
LINE
  8
0
 10
2.71419
 20
-9.22559
 11
2.7
 21
-9
  0
LINE
  8
0
 10
2.7
 20
-9
 11
2.71419
 21
-8.7744
  0
LINE
  8
0
 10
2.71419
 20
-8.7744
 11
2.75655
 21
-8.55235
  0
LINE
  8
0
 10
2.75655
 20
-8.55235
 11
2.8264
 21
-8.33737
  0
LINE
  8
0
 10
2.8264
 20
-8.33737
 11
2.92264
 21
-8.13284
  0
LINE
  8
0
 10
2.92264
 20
-8.13284
 11
3.04376
 21
-7.94199
  0
LINE
  8
0
 10
3.04376
 20
-7.94199
 11
3.18785
 21
-7.76781
  0
LINE
  8
0
 10
3.18785
 20
-7.76781
 11
3.35263
 21
-7.61307
  0
LINE
  8
0
 10
3.35263
 20
-7.61307
 11
3.53551
 21
-7.48021
  0
LINE
  8
0
 10
3.53551
 20
-7.48021
 11
3.7336
 21
-7.37131
  0
LINE
  8
0
 10
3.7336
 20
-7.37131
 11
3.94376
 21
-7.28809
  0
LINE
  8
0
 10
3.94376
 20
-7.28809
 11
4.1627
 21
-7.23187
  0
LINE
  8
0
 10
4.1627
 20
-7.23187
 11
4.38696
 21
-7.20355
  0
LINE
  8
0
 10
4.38696
 20
-7.20355
 11
4.61302
 21
-7.20355
  0
LINE
  8
0
 10
4.61302
 20
-7.20355
 11
4.83728
 21
-7.23187
  0
LINE
  8
0
 10
4.83728
 20
-7.23187
 11
5.05623
 21
-7.28809
  0
LINE
  8
0
 10
5.05623
 20
-7.28809
 11
5.26639
 21
-7.37131
  0
LINE
  8
0
 10
5.26639
 20
-7.37131
 11
5.46448
 21
-7.48021
  0
LINE
  8
0
 10
5.46448
 20
-7.48021
 11
5.64735
 21
-7.61307
  0
LINE
  8
0
 10
5.64735
 20
-7.61307
 11
5.81213
 21
-7.76781
  0
LINE
  8
0
 10
5.81213
 20
-7.76781
 11
5.95622
 21
-7.94199
  0
LINE
  8
0
 10
5.95622
 20
-7.94199
 11
6.07735
 21
-8.13284
  0
LINE
  8
0
 10
6.07735
 20
-8.13284
 11
6.17358
 21
-8.33737
  0
LINE
  8
0
 10
6.17358
 20
-8.33737
 11
6.24344
 21
-8.55235
  0
LINE
  8
0
 10
6.24344
 20
-8.55235
 11
6.2858
 21
-8.7744
  0
LINE
  8
0
 10
6.2858
 20
-8.7744
 11
6.29999
 21
-9
  0
LINE
  8
0
 10
6.29999
 20
-9
 11
6.2858
 21
-9.22559
  0
LINE
  8
0
 10
6.2858
 20
-9.22559
 11
6.24344
 21
-9.44763
  0
LINE
  8
0
 10
6.24344
 20
-9.44763
 11
6.17358
 21
-9.66261
  0
LINE
  8
0
 10
6.17358
 20
-9.66261
 11
6.07735
 21
-9.86714
  0
LINE
  8
0
 10
6.07735
 20
-9.86714
 11
5.95622
 21
-10.058
  0
LINE
  8
0
 10
5.95622
 20
-10.058
 11
5.81213
 21
-10.2322
  0
LINE
  8
0
 10
5.81213
 20
-10.2322
 11
5.64735
 21
-10.3869
  0
LINE
  8
0
 10
5.64735
 20
-10.3869
 11
5.46448
 21
-10.5198
  0
LINE
  8
0
 10
5.46448
 20
-10.5198
 11
5.26639
 21
-10.6287
  0
LINE
  8
0
 10
5.26639
 20
-10.6287
 11
5.05623
 21
-10.7119
  0
LINE
  8
0
 10
5.05623
 20
-10.7119
 11
4.83728
 21
-10.7681
  0
LINE
  8
0
 10
4.83728
 20
-10.7681
 11
4.61302
 21
-10.7964
  0
LINE
  8
0
 10
4.61302
 20
-10.7964
 11
4.38696
 21
-10.7964
  0
LINE
  8
0
 10
-22.5942
 20
-16.497
 11
-22.7811
 21
-16.4734
  0
LINE
  8
0
 10
-22.7811
 20
-16.4734
 11
-22.9635
 21
-16.4266
  0
LINE
  8
0
 10
-22.9635
 20
-16.4266
 11
-23.1387
 21
-16.3572
  0
LINE
  8
0
 10
-23.1387
 20
-16.3572
 11
-23.3037
 21
-16.2665
  0
LINE
  8
0
 10
-23.3037
 20
-16.2665
 11
-23.4561
 21
-16.1558
  0
LINE
  8
0
 10
-23.4561
 20
-16.1558
 11
-23.5934
 21
-16.0268
  0
LINE
  8
0
 10
-23.5934
 20
-16.0268
 11
-23.7135
 21
-15.8817
  0
LINE
  8
0
 10
-23.7135
 20
-15.8817
 11
-23.8145
 21
-15.7226
  0
LINE
  8
0
 10
-23.8145
 20
-15.7226
 11
-23.8947
 21
-15.5522
  0
LINE
  8
0
 10
-23.8947
 20
-15.5522
 11
-23.9529
 21
-15.373
  0
LINE
  8
0
 10
-23.9529
 20
-15.373
 11
-23.9882
 21
-15.188
  0
LINE
  8
0
 10
-23.9882
 20
-15.188
 11
-24
 21
-15
  0
LINE
  8
0
 10
-24
 20
-15
 11
-23.9882
 21
-14.812
  0
LINE
  8
0
 10
-23.9882
 20
-14.812
 11
-23.9529
 21
-14.627
  0
LINE
  8
0
 10
-23.9529
 20
-14.627
 11
-23.8947
 21
-14.4478
  0
LINE
  8
0
 10
-23.8947
 20
-14.4478
 11
-23.8145
 21
-14.2774
  0
LINE
  8
0
 10
-23.8145
 20
-14.2774
 11
-23.7135
 21
-14.1183
  0
LINE
  8
0
 10
-23.7135
 20
-14.1183
 11
-23.5934
 21
-13.9732
  0
LINE
  8
0
 10
-23.5934
 20
-13.9732
 11
-23.4561
 21
-13.8442
  0
LINE
  8
0
 10
-23.4561
 20
-13.8442
 11
-23.3037
 21
-13.7335
  0
LINE
  8
0
 10
-23.3037
 20
-13.7335
 11
-23.1387
 21
-13.6427
  0
LINE
  8
0
 10
-23.1387
 20
-13.6427
 11
-22.9635
 21
-13.5734
  0
LINE
  8
0
 10
-22.9635
 20
-13.5734
 11
-22.7811
 21
-13.5266
  0
LINE
  8
0
 10
-22.7811
 20
-13.5266
 11
-22.5942
 21
-13.5029
  0
LINE
  8
0
 10
-22.5942
 20
-13.5029
 11
-22.4058
 21
-13.5029
  0
LINE
  8
0
 10
-22.4058
 20
-13.5029
 11
-22.2189
 21
-13.5266
  0
LINE
  8
0
 10
-22.2189
 20
-13.5266
 11
-22.0365
 21
-13.5734
  0
LINE
  8
0
 10
-22.0365
 20
-13.5734
 11
-21.8613
 21
-13.6427
  0
LINE
  8
0
 10
-21.8613
 20
-13.6427
 11
-21.6963
 21
-13.7335
  0
LINE
  8
0
 10
-21.6963
 20
-13.7335
 11
-21.5439
 21
-13.8442
  0
LINE
  8
0
 10
-21.5439
 20
-13.8442
 11
-21.4065
 21
-13.9732
  0
LINE
  8
0
 10
-21.4065
 20
-13.9732
 11
-21.2865
 21
-14.1183
  0
LINE
  8
0
 10
-21.2865
 20
-14.1183
 11
-21.1855
 21
-14.2774
  0
LINE
  8
0
 10
-21.1855
 20
-14.2774
 11
-21.1053
 21
-14.4478
  0
LINE
  8
0
 10
-21.1053
 20
-14.4478
 11
-21.0471
 21
-14.627
  0
LINE
  8
0
 10
-21.0471
 20
-14.627
 11
-21.0118
 21
-14.812
  0
LINE
  8
0
 10
-21.0118
 20
-14.812
 11
-21
 21
-15
  0
LINE
  8
0
 10
-21
 20
-15
 11
-21.0118
 21
-15.188
  0
LINE
  8
0
 10
-21.0118
 20
-15.188
 11
-21.0471
 21
-15.373
  0
LINE
  8
0
 10
-21.0471
 20
-15.373
 11
-21.1053
 21
-15.5522
  0
LINE
  8
0
 10
-21.1053
 20
-15.5522
 11
-21.1855
 21
-15.7226
  0
LINE
  8
0
 10
-21.1855
 20
-15.7226
 11
-21.2865
 21
-15.8817
  0
LINE
  8
0
 10
-21.2865
 20
-15.8817
 11
-21.4065
 21
-16.0268
  0
LINE
  8
0
 10
-21.4065
 20
-16.0268
 11
-21.5439
 21
-16.1558
  0
LINE
  8
0
 10
-21.5439
 20
-16.1558
 11
-21.6963
 21
-16.2665
  0
LINE
  8
0
 10
-21.6963
 20
-16.2665
 11
-21.8613
 21
-16.3572
  0
LINE
  8
0
 10
-21.8613
 20
-16.3572
 11
-22.0365
 21
-16.4266
  0
LINE
  8
0
 10
-22.0365
 20
-16.4266
 11
-22.2189
 21
-16.4734
  0
LINE
  8
0
 10
-22.2189
 20
-16.4734
 11
-22.4058
 21
-16.497
  0
LINE
  8
0
 10
-22.4058
 20
-16.497
 11
-22.5942
 21
-16.497
  0
LINE
  8
0
 10
22.4058
 20
-16.497
 11
22.2189
 21
-16.4734
  0
LINE
  8
0
 10
22.2189
 20
-16.4734
 11
22.0365
 21
-16.4266
  0
LINE
  8
0
 10
22.0365
 20
-16.4266
 11
21.8613
 21
-16.3572
  0
LINE
  8
0
 10
21.8613
 20
-16.3572
 11
21.6963
 21
-16.2665
  0
LINE
  8
0
 10
21.6963
 20
-16.2665
 11
21.5439
 21
-16.1558
  0
LINE
  8
0
 10
21.5439
 20
-16.1558
 11
21.4065
 21
-16.0268
  0
LINE
  8
0
 10
21.4065
 20
-16.0268
 11
21.2865
 21
-15.8817
  0
LINE
  8
0
 10
21.2865
 20
-15.8817
 11
21.1855
 21
-15.7226
  0
LINE
  8
0
 10
21.1855
 20
-15.7226
 11
21.1053
 21
-15.5522
  0
LINE
  8
0
 10
21.1053
 20
-15.5522
 11
21.0471
 21
-15.373
  0
LINE
  8
0
 10
21.0471
 20
-15.373
 11
21.0118
 21
-15.188
  0
LINE
  8
0
 10
21.0118
 20
-15.188
 11
21
 21
-15
  0
LINE
  8
0
 10
21
 20
-15
 11
21.0118
 21
-14.812
  0
LINE
  8
0
 10
21.0118
 20
-14.812
 11
21.0471
 21
-14.627
  0
LINE
  8
0
 10
21.0471
 20
-14.627
 11
21.1053
 21
-14.4478
  0
LINE
  8
0
 10
21.1053
 20
-14.4478
 11
21.1855
 21
-14.2774
  0
LINE
  8
0
 10
21.1855
 20
-14.2774
 11
21.2865
 21
-14.1183
  0
LINE
  8
0
 10
21.2865
 20
-14.1183
 11
21.4065
 21
-13.9732
  0
LINE
  8
0
 10
21.4065
 20
-13.9732
 11
21.5439
 21
-13.8442
  0
LINE
  8
0
 10
21.5439
 20
-13.8442
 11
21.6963
 21
-13.7335
  0
LINE
  8
0
 10
21.6963
 20
-13.7335
 11
21.8613
 21
-13.6427
  0
LINE
  8
0
 10
21.8613
 20
-13.6427
 11
22.0365
 21
-13.5734
  0
LINE
  8
0
 10
22.0365
 20
-13.5734
 11
22.2189
 21
-13.5266
  0
LINE
  8
0
 10
22.2189
 20
-13.5266
 11
22.4058
 21
-13.5029
  0
LINE
  8
0
 10
22.4058
 20
-13.5029
 11
22.5942
 21
-13.5029
  0
LINE
  8
0
 10
22.5942
 20
-13.5029
 11
22.7811
 21
-13.5266
  0
LINE
  8
0
 10
22.7811
 20
-13.5266
 11
22.9635
 21
-13.5734
  0
LINE
  8
0
 10
22.9635
 20
-13.5734
 11
23.1387
 21
-13.6427
  0
LINE
  8
0
 10
23.1387
 20
-13.6427
 11
23.3037
 21
-13.7335
  0
LINE
  8
0
 10
23.3037
 20
-13.7335
 11
23.4561
 21
-13.8442
  0
LINE
  8
0
 10
23.4561
 20
-13.8442
 11
23.5934
 21
-13.9732
  0
LINE
  8
0
 10
23.5934
 20
-13.9732
 11
23.7135
 21
-14.1183
  0
LINE
  8
0
 10
23.7135
 20
-14.1183
 11
23.8145
 21
-14.2774
  0
LINE
  8
0
 10
23.8145
 20
-14.2774
 11
23.8947
 21
-14.4478
  0
LINE
  8
0
 10
23.8947
 20
-14.4478
 11
23.9529
 21
-14.627
  0
LINE
  8
0
 10
23.9529
 20
-14.627
 11
23.9882
 21
-14.812
  0
LINE
  8
0
 10
23.9882
 20
-14.812
 11
24
 21
-15
  0
LINE
  8
0
 10
24
 20
-15
 11
23.9882
 21
-15.188
  0
LINE
  8
0
 10
23.9882
 20
-15.188
 11
23.9529
 21
-15.373
  0
LINE
  8
0
 10
23.9529
 20
-15.373
 11
23.8947
 21
-15.5522
  0
LINE
  8
0
 10
23.8947
 20
-15.5522
 11
23.8145
 21
-15.7226
  0
LINE
  8
0
 10
23.8145
 20
-15.7226
 11
23.7135
 21
-15.8817
  0
LINE
  8
0
 10
23.7135
 20
-15.8817
 11
23.5934
 21
-16.0268
  0
LINE
  8
0
 10
23.5934
 20
-16.0268
 11
23.4561
 21
-16.1558
  0
LINE
  8
0
 10
23.4561
 20
-16.1558
 11
23.3037
 21
-16.2665
  0
LINE
  8
0
 10
23.3037
 20
-16.2665
 11
23.1387
 21
-16.3572
  0
LINE
  8
0
 10
23.1387
 20
-16.3572
 11
22.9635
 21
-16.4266
  0
LINE
  8
0
 10
22.9635
 20
-16.4266
 11
22.7811
 21
-16.4734
  0
LINE
  8
0
 10
22.7811
 20
-16.4734
 11
22.5942
 21
-16.497
  0
LINE
  8
0
 10
22.5942
 20
-16.497
 11
22.4058
 21
-16.497
  0
LINE
  8
0
 10
-22.6884
 20
-25.4941
 11
-23.0621
 21
-25.4469
  0
LINE
  8
0
 10
-23.0621
 20
-25.4469
 11
-23.427
 21
-25.3532
  0
LINE
  8
0
 10
-23.427
 20
-25.3532
 11
-23.7773
 21
-25.2145
  0
LINE
  8
0
 10
-23.7773
 20
-25.2145
 11
-24.1075
 21
-25.033
  0
LINE
  8
0
 10
-24.1075
 20
-25.033
 11
-24.4123
 21
-24.8115
  0
LINE
  8
0
 10
-24.4123
 20
-24.8115
 11
-24.6869
 21
-24.5536
  0
LINE
  8
0
 10
-24.6869
 20
-24.5536
 11
-24.927
 21
-24.2634
  0
LINE
  8
0
 10
-24.927
 20
-24.2634
 11
-25.1289
 21
-23.9453
  0
LINE
  8
0
 10
-25.1289
 20
-23.9453
 11
-25.2893
 21
-23.6044
  0
LINE
  8
0
 10
-25.2893
 20
-23.6044
 11
-25.4057
 21
-23.2461
  0
LINE
  8
0
 10
-25.4057
 20
-23.2461
 11
-25.4763
 21
-22.876
  0
LINE
  8
0
 10
-25.4763
 20
-22.876
 11
-25.5
 21
-22.5
  0
LINE
  8
0
 10
-25.5
 20
-22.5
 11
-25.4763
 21
-22.124
  0
LINE
  8
0
 10
-25.4763
 20
-22.124
 11
-25.4057
 21
-21.7539
  0
LINE
  8
0
 10
-25.4057
 20
-21.7539
 11
-25.2893
 21
-21.3956
  0
LINE
  8
0
 10
-25.2893
 20
-21.3956
 11
-25.1289
 21
-21.0547
  0
LINE
  8
0
 10
-25.1289
 20
-21.0547
 11
-24.927
 21
-20.7366
  0
LINE
  8
0
 10
-24.927
 20
-20.7366
 11
-24.6869
 21
-20.4464
  0
LINE
  8
0
 10
-24.6869
 20
-20.4464
 11
-24.4123
 21
-20.1884
  0
LINE
  8
0
 10
-24.4123
 20
-20.1884
 11
-24.1075
 21
-19.967
  0
LINE
  8
0
 10
-24.1075
 20
-19.967
 11
-23.7773
 21
-19.7855
  0
LINE
  8
0
 10
-23.7773
 20
-19.7855
 11
-23.427
 21
-19.6468
  0
LINE
  8
0
 10
-23.427
 20
-19.6468
 11
-23.0621
 21
-19.5531
  0
LINE
  8
0
 10
-23.0621
 20
-19.5531
 11
-22.6884
 21
-19.5059
  0
LINE
  8
0
 10
-22.6884
 20
-19.5059
 11
-22.3116
 21
-19.5059
  0
LINE
  8
0
 10
-22.3116
 20
-19.5059
 11
-21.9379
 21
-19.5531
  0
LINE
  8
0
 10
-21.9379
 20
-19.5531
 11
-21.5729
 21
-19.6468
  0
LINE
  8
0
 10
-21.5729
 20
-19.6468
 11
-21.2227
 21
-19.7855
  0
LINE
  8
0
 10
-21.2227
 20
-19.7855
 11
-20.8925
 21
-19.967
  0
LINE
  8
0
 10
-20.8925
 20
-19.967
 11
-20.5877
 21
-20.1884
  0
LINE
  8
0
 10
-20.5877
 20
-20.1884
 11
-20.3131
 21
-20.4464
  0
LINE
  8
0
 10
-20.3131
 20
-20.4464
 11
-20.0729
 21
-20.7366
  0
LINE
  8
0
 10
-20.0729
 20
-20.7366
 11
-19.8711
 21
-21.0547
  0
LINE
  8
0
 10
-19.8711
 20
-21.0547
 11
-19.7107
 21
-21.3956
  0
LINE
  8
0
 10
-19.7107
 20
-21.3956
 11
-19.5942
 21
-21.7539
  0
LINE
  8
0
 10
-19.5942
 20
-21.7539
 11
-19.5237
 21
-22.124
  0
LINE
  8
0
 10
-19.5237
 20
-22.124
 11
-19.5
 21
-22.5
  0
LINE
  8
0
 10
-19.5
 20
-22.5
 11
-19.5237
 21
-22.876
  0
LINE
  8
0
 10
-19.5237
 20
-22.876
 11
-19.5942
 21
-23.2461
  0
LINE
  8
0
 10
-19.5942
 20
-23.2461
 11
-19.7107
 21
-23.6044
  0
LINE
  8
0
 10
-19.7107
 20
-23.6044
 11
-19.8711
 21
-23.9453
  0
LINE
  8
0
 10
-19.8711
 20
-23.9453
 11
-20.0729
 21
-24.2634
  0
LINE
  8
0
 10
-20.0729
 20
-24.2634
 11
-20.3131
 21
-24.5536
  0
LINE
  8
0
 10
-20.3131
 20
-24.5536
 11
-20.5877
 21
-24.8115
  0
LINE
  8
0
 10
-20.5877
 20
-24.8115
 11
-20.8925
 21
-25.033
  0
LINE
  8
0
 10
-20.8925
 20
-25.033
 11
-21.2227
 21
-25.2145
  0
LINE
  8
0
 10
-21.2227
 20
-25.2145
 11
-21.5729
 21
-25.3532
  0
LINE
  8
0
 10
-21.5729
 20
-25.3532
 11
-21.9379
 21
-25.4469
  0
LINE
  8
0
 10
-21.9379
 20
-25.4469
 11
-22.3116
 21
-25.4941
  0
LINE
  8
0
 10
-22.3116
 20
-25.4941
 11
-22.6884
 21
-25.4941
  0
LINE
  8
0
 10
7.31161
 20
-25.4941
 11
6.93785
 21
-25.4469
  0
LINE
  8
0
 10
6.93785
 20
-25.4469
 11
6.57294
 21
-25.3532
  0
LINE
  8
0
 10
6.57294
 20
-25.3532
 11
6.22266
 21
-25.2145
  0
LINE
  8
0
 10
6.22266
 20
-25.2145
 11
5.89252
 21
-25.033
  0
LINE
  8
0
 10
5.89252
 20
-25.033
 11
5.58772
 21
-24.8115
  0
LINE
  8
0
 10
5.58772
 20
-24.8115
 11
5.31308
 21
-24.5536
  0
LINE
  8
0
 10
5.31308
 20
-24.5536
 11
5.07294
 21
-24.2634
  0
LINE
  8
0
 10
5.07294
 20
-24.2634
 11
4.87108
 21
-23.9453
  0
LINE
  8
0
 10
4.87108
 20
-23.9453
 11
4.71066
 21
-23.6044
  0
LINE
  8
0
 10
4.71066
 20
-23.6044
 11
4.59424
 21
-23.2461
  0
LINE
  8
0
 10
4.59424
 20
-23.2461
 11
4.52365
 21
-22.876
  0
LINE
  8
0
 10
4.52365
 20
-22.876
 11
4.5
 21
-22.5
  0
LINE
  8
0
 10
4.5
 20
-22.5
 11
4.52365
 21
-22.124
  0
LINE
  8
0
 10
4.52365
 20
-22.124
 11
4.59424
 21
-21.7539
  0
LINE
  8
0
 10
4.59424
 20
-21.7539
 11
4.71066
 21
-21.3956
  0
LINE
  8
0
 10
4.71066
 20
-21.3956
 11
4.87108
 21
-21.0547
  0
LINE
  8
0
 10
4.87108
 20
-21.0547
 11
5.07294
 21
-20.7366
  0
LINE
  8
0
 10
5.07294
 20
-20.7366
 11
5.31308
 21
-20.4464
  0
LINE
  8
0
 10
5.31308
 20
-20.4464
 11
5.58772
 21
-20.1884
  0
LINE
  8
0
 10
5.58772
 20
-20.1884
 11
5.89252
 21
-19.967
  0
LINE
  8
0
 10
5.89252
 20
-19.967
 11
6.22266
 21
-19.7855
  0
LINE
  8
0
 10
6.22266
 20
-19.7855
 11
6.57294
 21
-19.6468
  0
LINE
  8
0
 10
6.57294
 20
-19.6468
 11
6.93785
 21
-19.5531
  0
LINE
  8
0
 10
6.93785
 20
-19.5531
 11
7.31161
 21
-19.5059
  0
LINE
  8
0
 10
7.31161
 20
-19.5059
 11
7.68837
 21
-19.5059
  0
LINE
  8
0
 10
7.68837
 20
-19.5059
 11
8.06213
 21
-19.5531
  0
LINE
  8
0
 10
8.06213
 20
-19.5531
 11
8.42705
 21
-19.6468
  0
LINE
  8
0
 10
8.42705
 20
-19.6468
 11
8.77733
 21
-19.7855
  0
LINE
  8
0
 10
8.77733
 20
-19.7855
 11
9.10747
 21
-19.967
  0
LINE
  8
0
 10
9.10747
 20
-19.967
 11
9.41226
 21
-20.1884
  0
LINE
  8
0
 10
9.41226
 20
-20.1884
 11
9.6869
 21
-20.4464
  0
LINE
  8
0
 10
9.6869
 20
-20.4464
 11
9.92705
 21
-20.7366
  0
LINE
  8
0
 10
9.92705
 20
-20.7366
 11
10.1289
 21
-21.0547
  0
LINE
  8
0
 10
10.1289
 20
-21.0547
 11
10.2893
 21
-21.3956
  0
LINE
  8
0
 10
10.2893
 20
-21.3956
 11
10.4057
 21
-21.7539
  0
LINE
  8
0
 10
10.4057
 20
-21.7539
 11
10.4763
 21
-22.124
  0
LINE
  8
0
 10
10.4763
 20
-22.124
 11
10.5
 21
-22.5
  0
LINE
  8
0
 10
10.5
 20
-22.5
 11
10.4763
 21
-22.876
  0
LINE
  8
0
 10
10.4763
 20
-22.876
 11
10.4057
 21
-23.2461
  0
LINE
  8
0
 10
10.4057
 20
-23.2461
 11
10.2893
 21
-23.6044
  0
LINE
  8
0
 10
10.2893
 20
-23.6044
 11
10.1289
 21
-23.9453
  0
LINE
  8
0
 10
10.1289
 20
-23.9453
 11
9.92705
 21
-24.2634
  0
LINE
  8
0
 10
9.92705
 20
-24.2634
 11
9.6869
 21
-24.5536
  0
LINE
  8
0
 10
9.6869
 20
-24.5536
 11
9.41226
 21
-24.8115
  0
LINE
  8
0
 10
9.41226
 20
-24.8115
 11
9.10747
 21
-25.033
  0
LINE
  8
0
 10
9.10747
 20
-25.033
 11
8.77733
 21
-25.2145
  0
LINE
  8
0
 10
8.77733
 20
-25.2145
 11
8.42705
 21
-25.3532
  0
LINE
  8
0
 10
8.42705
 20
-25.3532
 11
8.06213
 21
-25.4469
  0
LINE
  8
0
 10
8.06213
 20
-25.4469
 11
7.68837
 21
-25.4941
  0
LINE
  8
0
 10
7.68837
 20
-25.4941
 11
7.31161
 21
-25.4941
  0
LINE
  8
0
 10
22.3116
 20
-25.4941
 11
21.9379
 21
-25.4469
  0
LINE
  8
0
 10
21.9379
 20
-25.4469
 11
21.5729
 21
-25.3532
  0
LINE
  8
0
 10
21.5729
 20
-25.3532
 11
21.2227
 21
-25.2145
  0
LINE
  8
0
 10
21.2227
 20
-25.2145
 11
20.8925
 21
-25.033
  0
LINE
  8
0
 10
20.8925
 20
-25.033
 11
20.5877
 21
-24.8115
  0
LINE
  8
0
 10
20.5877
 20
-24.8115
 11
20.3131
 21
-24.5536
  0
LINE
  8
0
 10
20.3131
 20
-24.5536
 11
20.0729
 21
-24.2634
  0
LINE
  8
0
 10
20.0729
 20
-24.2634
 11
19.8711
 21
-23.9453
  0
LINE
  8
0
 10
19.8711
 20
-23.9453
 11
19.7107
 21
-23.6044
  0
LINE
  8
0
 10
19.7107
 20
-23.6044
 11
19.5942
 21
-23.2461
  0
LINE
  8
0
 10
19.5942
 20
-23.2461
 11
19.5237
 21
-22.876
  0
LINE
  8
0
 10
19.5237
 20
-22.876
 11
19.5
 21
-22.5
  0
LINE
  8
0
 10
19.5
 20
-22.5
 11
19.5237
 21
-22.124
  0
LINE
  8
0
 10
19.5237
 20
-22.124
 11
19.5942
 21
-21.7539
  0
LINE
  8
0
 10
19.5942
 20
-21.7539
 11
19.7107
 21
-21.3956
  0
LINE
  8
0
 10
19.7107
 20
-21.3956
 11
19.8711
 21
-21.0547
  0
LINE
  8
0
 10
19.8711
 20
-21.0547
 11
20.0729
 21
-20.7366
  0
LINE
  8
0
 10
20.0729
 20
-20.7366
 11
20.3131
 21
-20.4464
  0
LINE
  8
0
 10
20.3131
 20
-20.4464
 11
20.5877
 21
-20.1884
  0
LINE
  8
0
 10
20.5877
 20
-20.1884
 11
20.8925
 21
-19.967
  0
LINE
  8
0
 10
20.8925
 20
-19.967
 11
21.2227
 21
-19.7855
  0
LINE
  8
0
 10
21.2227
 20
-19.7855
 11
21.5729
 21
-19.6468
  0
LINE
  8
0
 10
21.5729
 20
-19.6468
 11
21.9379
 21
-19.5531
  0
LINE
  8
0
 10
21.9379
 20
-19.5531
 11
22.3116
 21
-19.5059
  0
LINE
  8
0
 10
22.3116
 20
-19.5059
 11
22.6884
 21
-19.5059
  0
LINE
  8
0
 10
22.6884
 20
-19.5059
 11
23.0621
 21
-19.5531
  0
LINE
  8
0
 10
23.0621
 20
-19.5531
 11
23.427
 21
-19.6468
  0
LINE
  8
0
 10
23.427
 20
-19.6468
 11
23.7773
 21
-19.7855
  0
LINE
  8
0
 10
23.7773
 20
-19.7855
 11
24.1075
 21
-19.967
  0
LINE
  8
0
 10
24.1075
 20
-19.967
 11
24.4123
 21
-20.1884
  0
LINE
  8
0
 10
24.4123
 20
-20.1884
 11
24.6869
 21
-20.4464
  0
LINE
  8
0
 10
24.6869
 20
-20.4464
 11
24.927
 21
-20.7366
  0
LINE
  8
0
 10
24.927
 20
-20.7366
 11
25.1289
 21
-21.0547
  0
LINE
  8
0
 10
25.1289
 20
-21.0547
 11
25.2893
 21
-21.3956
  0
LINE
  8
0
 10
25.2893
 20
-21.3956
 11
25.4057
 21
-21.7539
  0
LINE
  8
0
 10
25.4057
 20
-21.7539
 11
25.4763
 21
-22.124
  0
LINE
  8
0
 10
25.4763
 20
-22.124
 11
25.5
 21
-22.5
  0
LINE
  8
0
 10
25.5
 20
-22.5
 11
25.4763
 21
-22.876
  0
LINE
  8
0
 10
25.4763
 20
-22.876
 11
25.4057
 21
-23.2461
  0
LINE
  8
0
 10
25.4057
 20
-23.2461
 11
25.2893
 21
-23.6044
  0
LINE
  8
0
 10
25.2893
 20
-23.6044
 11
25.1289
 21
-23.9453
  0
LINE
  8
0
 10
25.1289
 20
-23.9453
 11
24.927
 21
-24.2634
  0
LINE
  8
0
 10
24.927
 20
-24.2634
 11
24.6869
 21
-24.5536
  0
LINE
  8
0
 10
24.6869
 20
-24.5536
 11
24.4123
 21
-24.8115
  0
LINE
  8
0
 10
24.4123
 20
-24.8115
 11
24.1075
 21
-25.033
  0
LINE
  8
0
 10
24.1075
 20
-25.033
 11
23.7773
 21
-25.2145
  0
LINE
  8
0
 10
23.7773
 20
-25.2145
 11
23.427
 21
-25.3532
  0
LINE
  8
0
 10
23.427
 20
-25.3532
 11
23.0621
 21
-25.4469
  0
LINE
  8
0
 10
23.0621
 20
-25.4469
 11
22.6884
 21
-25.4941
  0
LINE
  8
0
 10
22.6884
 20
-25.4941
 11
22.3116
 21
-25.4941
  0
LINE
  8
0
 10
-7.68837
 20
-25.4941
 11
-8.06213
 21
-25.4469
  0
LINE
  8
0
 10
-8.06213
 20
-25.4469
 11
-8.42705
 21
-25.3532
  0
LINE
  8
0
 10
-8.42705
 20
-25.3532
 11
-8.77733
 21
-25.2145
  0
LINE
  8
0
 10
-8.77733
 20
-25.2145
 11
-9.10747
 21
-25.033
  0
LINE
  8
0
 10
-9.10747
 20
-25.033
 11
-9.41226
 21
-24.8115
  0
LINE
  8
0
 10
-9.41226
 20
-24.8115
 11
-9.6869
 21
-24.5536
  0
LINE
  8
0
 10
-9.6869
 20
-24.5536
 11
-9.92705
 21
-24.2634
  0
LINE
  8
0
 10
-9.92705
 20
-24.2634
 11
-10.1289
 21
-23.9453
  0
LINE
  8
0
 10
-10.1289
 20
-23.9453
 11
-10.2893
 21
-23.6044
  0
LINE
  8
0
 10
-10.2893
 20
-23.6044
 11
-10.4057
 21
-23.2461
  0
LINE
  8
0
 10
-10.4057
 20
-23.2461
 11
-10.4763
 21
-22.876
  0
LINE
  8
0
 10
-10.4763
 20
-22.876
 11
-10.5
 21
-22.5
  0
LINE
  8
0
 10
-10.5
 20
-22.5
 11
-10.4763
 21
-22.124
  0
LINE
  8
0
 10
-10.4763
 20
-22.124
 11
-10.4057
 21
-21.7539
  0
LINE
  8
0
 10
-10.4057
 20
-21.7539
 11
-10.2893
 21
-21.3956
  0
LINE
  8
0
 10
-10.2893
 20
-21.3956
 11
-10.1289
 21
-21.0547
  0
LINE
  8
0
 10
-10.1289
 20
-21.0547
 11
-9.92705
 21
-20.7366
  0
LINE
  8
0
 10
-9.92705
 20
-20.7366
 11
-9.6869
 21
-20.4464
  0
LINE
  8
0
 10
-9.6869
 20
-20.4464
 11
-9.41226
 21
-20.1884
  0
LINE
  8
0
 10
-9.41226
 20
-20.1884
 11
-9.10747
 21
-19.967
  0
LINE
  8
0
 10
-9.10747
 20
-19.967
 11
-8.77733
 21
-19.7855
  0
LINE
  8
0
 10
-8.77733
 20
-19.7855
 11
-8.42705
 21
-19.6468
  0
LINE
  8
0
 10
-8.42705
 20
-19.6468
 11
-8.06213
 21
-19.5531
  0
LINE
  8
0
 10
-8.06213
 20
-19.5531
 11
-7.68837
 21
-19.5059
  0
LINE
  8
0
 10
-7.68837
 20
-19.5059
 11
-7.31161
 21
-19.5059
  0
LINE
  8
0
 10
-7.31161
 20
-19.5059
 11
-6.93785
 21
-19.5531
  0
LINE
  8
0
 10
-6.93785
 20
-19.5531
 11
-6.57294
 21
-19.6468
  0
LINE
  8
0
 10
-6.57294
 20
-19.6468
 11
-6.22266
 21
-19.7855
  0
LINE
  8
0
 10
-6.22266
 20
-19.7855
 11
-5.89252
 21
-19.967
  0
LINE
  8
0
 10
-5.89252
 20
-19.967
 11
-5.58772
 21
-20.1884
  0
LINE
  8
0
 10
-5.58772
 20
-20.1884
 11
-5.31308
 21
-20.4464
  0
LINE
  8
0
 10
-5.31308
 20
-20.4464
 11
-5.07294
 21
-20.7366
  0
LINE
  8
0
 10
-5.07294
 20
-20.7366
 11
-4.87108
 21
-21.0547
  0
LINE
  8
0
 10
-4.87108
 20
-21.0547
 11
-4.71066
 21
-21.3956
  0
LINE
  8
0
 10
-4.71066
 20
-21.3956
 11
-4.59424
 21
-21.7539
  0
LINE
  8
0
 10
-4.59424
 20
-21.7539
 11
-4.52365
 21
-22.124
  0
LINE
  8
0
 10
-4.52365
 20
-22.124
 11
-4.5
 21
-22.5
  0
LINE
  8
0
 10
-4.5
 20
-22.5
 11
-4.52365
 21
-22.876
  0
LINE
  8
0
 10
-4.52365
 20
-22.876
 11
-4.59424
 21
-23.2461
  0
LINE
  8
0
 10
-4.59424
 20
-23.2461
 11
-4.71066
 21
-23.6044
  0
LINE
  8
0
 10
-4.71066
 20
-23.6044
 11
-4.87108
 21
-23.9453
  0
LINE
  8
0
 10
-4.87108
 20
-23.9453
 11
-5.07294
 21
-24.2634
  0
LINE
  8
0
 10
-5.07294
 20
-24.2634
 11
-5.31308
 21
-24.5536
  0
LINE
  8
0
 10
-5.31308
 20
-24.5536
 11
-5.58772
 21
-24.8115
  0
LINE
  8
0
 10
-5.58772
 20
-24.8115
 11
-5.89252
 21
-25.033
  0
LINE
  8
0
 10
-5.89252
 20
-25.033
 11
-6.22266
 21
-25.2145
  0
LINE
  8
0
 10
-6.22266
 20
-25.2145
 11
-6.57294
 21
-25.3532
  0
LINE
  8
0
 10
-6.57294
 20
-25.3532
 11
-6.93785
 21
-25.4469
  0
LINE
  8
0
 10
-6.93785
 20
-25.4469
 11
-7.31161
 21
-25.4941
  0
LINE
  8
0
 10
-7.31161
 20
-25.4941
 11
-7.68837
 21
-25.4941
  0
LINE
  8
0
 10
-15.0942
 20
-23.997
 11
-15.2811
 21
-23.9734
  0
LINE
  8
0
 10
-15.2811
 20
-23.9734
 11
-15.4635
 21
-23.9266
  0
LINE
  8
0
 10
-15.4635
 20
-23.9266
 11
-15.6387
 21
-23.8572
  0
LINE
  8
0
 10
-15.6387
 20
-23.8572
 11
-15.8037
 21
-23.7665
  0
LINE
  8
0
 10
-15.8037
 20
-23.7665
 11
-15.9561
 21
-23.6558
  0
LINE
  8
0
 10
-15.9561
 20
-23.6558
 11
-16.0934
 21
-23.5268
  0
LINE
  8
0
 10
-16.0934
 20
-23.5268
 11
-16.2135
 21
-23.3817
  0
LINE
  8
0
 10
-16.2135
 20
-23.3817
 11
-16.3145
 21
-23.2226
  0
LINE
  8
0
 10
-16.3145
 20
-23.2226
 11
-16.3947
 21
-23.0522
  0
LINE
  8
0
 10
-16.3947
 20
-23.0522
 11
-16.4529
 21
-22.873
  0
LINE
  8
0
 10
-16.4529
 20
-22.873
 11
-16.4882
 21
-22.688
  0
LINE
  8
0
 10
-16.4882
 20
-22.688
 11
-16.5
 21
-22.5
  0
LINE
  8
0
 10
-16.5
 20
-22.5
 11
-16.4882
 21
-22.312
  0
LINE
  8
0
 10
-16.4882
 20
-22.312
 11
-16.4529
 21
-22.127
  0
LINE
  8
0
 10
-16.4529
 20
-22.127
 11
-16.3947
 21
-21.9478
  0
LINE
  8
0
 10
-16.3947
 20
-21.9478
 11
-16.3145
 21
-21.7774
  0
LINE
  8
0
 10
-16.3145
 20
-21.7774
 11
-16.2135
 21
-21.6183
  0
LINE
  8
0
 10
-16.2135
 20
-21.6183
 11
-16.0934
 21
-21.4732
  0
LINE
  8
0
 10
-16.0934
 20
-21.4732
 11
-15.9561
 21
-21.3442
  0
LINE
  8
0
 10
-15.9561
 20
-21.3442
 11
-15.8037
 21
-21.2335
  0
LINE
  8
0
 10
-15.8037
 20
-21.2335
 11
-15.6387
 21
-21.1427
  0
LINE
  8
0
 10
-15.6387
 20
-21.1427
 11
-15.4635
 21
-21.0734
  0
LINE
  8
0
 10
-15.4635
 20
-21.0734
 11
-15.2811
 21
-21.0266
  0
LINE
  8
0
 10
-15.2811
 20
-21.0266
 11
-15.0942
 21
-21.003
  0
LINE
  8
0
 10
-15.0942
 20
-21.003
 11
-14.9058
 21
-21.003
  0
LINE
  8
0
 10
-14.9058
 20
-21.003
 11
-14.7189
 21
-21.0266
  0
LINE
  8
0
 10
-14.7189
 20
-21.0266
 11
-14.5365
 21
-21.0734
  0
LINE
  8
0
 10
-14.5365
 20
-21.0734
 11
-14.3613
 21
-21.1427
  0
LINE
  8
0
 10
-14.3613
 20
-21.1427
 11
-14.1963
 21
-21.2335
  0
LINE
  8
0
 10
-14.1963
 20
-21.2335
 11
-14.0439
 21
-21.3442
  0
LINE
  8
0
 10
-14.0439
 20
-21.3442
 11
-13.9065
 21
-21.4732
  0
LINE
  8
0
 10
-13.9065
 20
-21.4732
 11
-13.7865
 21
-21.6183
  0
LINE
  8
0
 10
-13.7865
 20
-21.6183
 11
-13.6855
 21
-21.7774
  0
LINE
  8
0
 10
-13.6855
 20
-21.7774
 11
-13.6053
 21
-21.9478
  0
LINE
  8
0
 10
-13.6053
 20
-21.9478
 11
-13.5471
 21
-22.127
  0
LINE
  8
0
 10
-13.5471
 20
-22.127
 11
-13.5118
 21
-22.312
  0
LINE
  8
0
 10
-13.5118
 20
-22.312
 11
-13.5
 21
-22.5
  0
LINE
  8
0
 10
-13.5
 20
-22.5
 11
-13.5118
 21
-22.688
  0
LINE
  8
0
 10
-13.5118
 20
-22.688
 11
-13.5471
 21
-22.873
  0
LINE
  8
0
 10
-13.5471
 20
-22.873
 11
-13.6053
 21
-23.0522
  0
LINE
  8
0
 10
-13.6053
 20
-23.0522
 11
-13.6855
 21
-23.2226
  0
LINE
  8
0
 10
-13.6855
 20
-23.2226
 11
-13.7865
 21
-23.3817
  0
LINE
  8
0
 10
-13.7865
 20
-23.3817
 11
-13.9065
 21
-23.5268
  0
LINE
  8
0
 10
-13.9065
 20
-23.5268
 11
-14.0439
 21
-23.6558
  0
LINE
  8
0
 10
-14.0439
 20
-23.6558
 11
-14.1963
 21
-23.7665
  0
LINE
  8
0
 10
-14.1963
 20
-23.7665
 11
-14.3613
 21
-23.8572
  0
LINE
  8
0
 10
-14.3613
 20
-23.8572
 11
-14.5365
 21
-23.9266
  0
LINE
  8
0
 10
-14.5365
 20
-23.9266
 11
-14.7189
 21
-23.9734
  0
LINE
  8
0
 10
-14.7189
 20
-23.9734
 11
-14.9058
 21
-23.997
  0
LINE
  8
0
 10
-14.9058
 20
-23.997
 11
-15.0942
 21
-23.997
  0
LINE
  8
0
 10
14.9058
 20
-23.997
 11
14.7189
 21
-23.9734
  0
LINE
  8
0
 10
14.7189
 20
-23.9734
 11
14.5365
 21
-23.9266
  0
LINE
  8
0
 10
14.5365
 20
-23.9266
 11
14.3613
 21
-23.8572
  0
LINE
  8
0
 10
14.3613
 20
-23.8572
 11
14.1963
 21
-23.7665
  0
LINE
  8
0
 10
14.1963
 20
-23.7665
 11
14.0439
 21
-23.6558
  0
LINE
  8
0
 10
14.0439
 20
-23.6558
 11
13.9065
 21
-23.5268
  0
LINE
  8
0
 10
13.9065
 20
-23.5268
 11
13.7865
 21
-23.3817
  0
LINE
  8
0
 10
13.7865
 20
-23.3817
 11
13.6855
 21
-23.2226
  0
LINE
  8
0
 10
13.6855
 20
-23.2226
 11
13.6053
 21
-23.0522
  0
LINE
  8
0
 10
13.6053
 20
-23.0522
 11
13.5471
 21
-22.873
  0
LINE
  8
0
 10
13.5471
 20
-22.873
 11
13.5118
 21
-22.688
  0
LINE
  8
0
 10
13.5118
 20
-22.688
 11
13.5
 21
-22.5
  0
LINE
  8
0
 10
13.5
 20
-22.5
 11
13.5118
 21
-22.312
  0
LINE
  8
0
 10
13.5118
 20
-22.312
 11
13.5471
 21
-22.127
  0
LINE
  8
0
 10
13.5471
 20
-22.127
 11
13.6053
 21
-21.9478
  0
LINE
  8
0
 10
13.6053
 20
-21.9478
 11
13.6855
 21
-21.7774
  0
LINE
  8
0
 10
13.6855
 20
-21.7774
 11
13.7865
 21
-21.6183
  0
LINE
  8
0
 10
13.7865
 20
-21.6183
 11
13.9065
 21
-21.4732
  0
LINE
  8
0
 10
13.9065
 20
-21.4732
 11
14.0439
 21
-21.3442
  0
LINE
  8
0
 10
14.0439
 20
-21.3442
 11
14.1963
 21
-21.2335
  0
LINE
  8
0
 10
14.1963
 20
-21.2335
 11
14.3613
 21
-21.1427
  0
LINE
  8
0
 10
14.3613
 20
-21.1427
 11
14.5365
 21
-21.0734
  0
LINE
  8
0
 10
14.5365
 20
-21.0734
 11
14.7189
 21
-21.0266
  0
LINE
  8
0
 10
14.7189
 20
-21.0266
 11
14.9058
 21
-21.003
  0
LINE
  8
0
 10
14.9058
 20
-21.003
 11
15.0942
 21
-21.003
  0
LINE
  8
0
 10
15.0942
 20
-21.003
 11
15.2811
 21
-21.0266
  0
LINE
  8
0
 10
15.2811
 20
-21.0266
 11
15.4635
 21
-21.0734
  0
LINE
  8
0
 10
15.4635
 20
-21.0734
 11
15.6387
 21
-21.1427
  0
LINE
  8
0
 10
15.6387
 20
-21.1427
 11
15.8037
 21
-21.2335
  0
LINE
  8
0
 10
15.8037
 20
-21.2335
 11
15.9561
 21
-21.3442
  0
LINE
  8
0
 10
15.9561
 20
-21.3442
 11
16.0934
 21
-21.4732
  0
LINE
  8
0
 10
16.0934
 20
-21.4732
 11
16.2135
 21
-21.6183
  0
LINE
  8
0
 10
16.2135
 20
-21.6183
 11
16.3145
 21
-21.7774
  0
LINE
  8
0
 10
16.3145
 20
-21.7774
 11
16.3947
 21
-21.9478
  0
LINE
  8
0
 10
16.3947
 20
-21.9478
 11
16.4529
 21
-22.127
  0
LINE
  8
0
 10
16.4529
 20
-22.127
 11
16.4882
 21
-22.312
  0
LINE
  8
0
 10
16.4882
 20
-22.312
 11
16.5
 21
-22.5
  0
LINE
  8
0
 10
16.5
 20
-22.5
 11
16.4882
 21
-22.688
  0
LINE
  8
0
 10
16.4882
 20
-22.688
 11
16.4529
 21
-22.873
  0
LINE
  8
0
 10
16.4529
 20
-22.873
 11
16.3947
 21
-23.0522
  0
LINE
  8
0
 10
16.3947
 20
-23.0522
 11
16.3145
 21
-23.2226
  0
LINE
  8
0
 10
16.3145
 20
-23.2226
 11
16.2135
 21
-23.3817
  0
LINE
  8
0
 10
16.2135
 20
-23.3817
 11
16.0934
 21
-23.5268
  0
LINE
  8
0
 10
16.0934
 20
-23.5268
 11
15.9561
 21
-23.6558
  0
LINE
  8
0
 10
15.9561
 20
-23.6558
 11
15.8037
 21
-23.7665
  0
LINE
  8
0
 10
15.8037
 20
-23.7665
 11
15.6387
 21
-23.8572
  0
LINE
  8
0
 10
15.6387
 20
-23.8572
 11
15.4635
 21
-23.9266
  0
LINE
  8
0
 10
15.4635
 20
-23.9266
 11
15.2811
 21
-23.9734
  0
LINE
  8
0
 10
15.2811
 20
-23.9734
 11
15.0942
 21
-23.997
  0
LINE
  8
0
 10
15.0942
 20
-23.997
 11
14.9058
 21
-23.997
  0
LINE
  8
0
 10
-0.0941772
 20
-23.997
 11
-0.281067
 21
-23.9734
  0
LINE
  8
0
 10
-0.281067
 20
-23.9734
 11
-0.463516
 21
-23.9266
  0
LINE
  8
0
 10
-0.463516
 20
-23.9266
 11
-0.638657
 21
-23.8572
  0
LINE
  8
0
 10
-0.638657
 20
-23.8572
 11
-0.803726
 21
-23.7665
  0
LINE
  8
0
 10
-0.803726
 20
-23.7665
 11
-0.956131
 21
-23.6558
  0
LINE
  8
0
 10
-0.956131
 20
-23.6558
 11
-1.09344
 21
-23.5268
  0
LINE
  8
0
 10
-1.09344
 20
-23.5268
 11
-1.21352
 21
-23.3817
  0
LINE
  8
0
 10
-1.21352
 20
-23.3817
 11
-1.31445
 21
-23.2226
  0
LINE
  8
0
 10
-1.31445
 20
-23.2226
 11
-1.39465
 21
-23.0522
  0
LINE
  8
0
 10
-1.39465
 20
-23.0522
 11
-1.45287
 21
-22.873
  0
LINE
  8
0
 10
-1.45287
 20
-22.873
 11
-1.48816
 21
-22.688
  0
LINE
  8
0
 10
-1.48816
 20
-22.688
 11
-1.5
 21
-22.5
  0
LINE
  8
0
 10
-1.5
 20
-22.5
 11
-1.48816
 21
-22.312
  0
LINE
  8
0
 10
-1.48816
 20
-22.312
 11
-1.45287
 21
-22.127
  0
LINE
  8
0
 10
-1.45287
 20
-22.127
 11
-1.39465
 21
-21.9478
  0
LINE
  8
0
 10
-1.39465
 20
-21.9478
 11
-1.31445
 21
-21.7774
  0
LINE
  8
0
 10
-1.31445
 20
-21.7774
 11
-1.21352
 21
-21.6183
  0
LINE
  8
0
 10
-1.21352
 20
-21.6183
 11
-1.09344
 21
-21.4732
  0
LINE
  8
0
 10
-1.09344
 20
-21.4732
 11
-0.956131
 21
-21.3442
  0
LINE
  8
0
 10
-0.956131
 20
-21.3442
 11
-0.803726
 21
-21.2335
  0
LINE
  8
0
 10
-0.803726
 20
-21.2335
 11
-0.638657
 21
-21.1427
  0
LINE
  8
0
 10
-0.638657
 20
-21.1427
 11
-0.463516
 21
-21.0734
  0
LINE
  8
0
 10
-0.463516
 20
-21.0734
 11
-0.281067
 21
-21.0266
  0
LINE
  8
0
 10
-0.281067
 20
-21.0266
 11
-0.0941772
 21
-21.003
  0
LINE
  8
0
 10
-0.0941772
 20
-21.003
 11
0.0941772
 21
-21.003
  0
LINE
  8
0
 10
0.0941772
 20
-21.003
 11
0.281067
 21
-21.0266
  0
LINE
  8
0
 10
0.281067
 20
-21.0266
 11
0.463516
 21
-21.0734
  0
LINE
  8
0
 10
0.463516
 20
-21.0734
 11
0.638657
 21
-21.1427
  0
LINE
  8
0
 10
0.638657
 20
-21.1427
 11
0.803726
 21
-21.2335
  0
LINE
  8
0
 10
0.803726
 20
-21.2335
 11
0.956131
 21
-21.3442
  0
LINE
  8
0
 10
0.956131
 20
-21.3442
 11
1.09344
 21
-21.4732
  0
LINE
  8
0
 10
1.09344
 20
-21.4732
 11
1.21352
 21
-21.6183
  0
LINE
  8
0
 10
1.21352
 20
-21.6183
 11
1.31445
 21
-21.7774
  0
LINE
  8
0
 10
1.31445
 20
-21.7774
 11
1.39465
 21
-21.9478
  0
LINE
  8
0
 10
1.39465
 20
-21.9478
 11
1.45287
 21
-22.127
  0
LINE
  8
0
 10
1.45287
 20
-22.127
 11
1.48816
 21
-22.312
  0
LINE
  8
0
 10
1.48816
 20
-22.312
 11
1.5
 21
-22.5
  0
LINE
  8
0
 10
1.5
 20
-22.5
 11
1.48816
 21
-22.688
  0
LINE
  8
0
 10
1.48816
 20
-22.688
 11
1.45287
 21
-22.873
  0
LINE
  8
0
 10
1.45287
 20
-22.873
 11
1.39465
 21
-23.0522
  0
LINE
  8
0
 10
1.39465
 20
-23.0522
 11
1.31445
 21
-23.2226
  0
LINE
  8
0
 10
1.31445
 20
-23.2226
 11
1.21352
 21
-23.3817
  0
LINE
  8
0
 10
1.21352
 20
-23.3817
 11
1.09344
 21
-23.5268
  0
LINE
  8
0
 10
1.09344
 20
-23.5268
 11
0.956131
 21
-23.6558
  0
LINE
  8
0
 10
0.956131
 20
-23.6558
 11
0.803726
 21
-23.7665
  0
LINE
  8
0
 10
0.803726
 20
-23.7665
 11
0.638657
 21
-23.8572
  0
LINE
  8
0
 10
0.638657
 20
-23.8572
 11
0.463516
 21
-23.9266
  0
LINE
  8
0
 10
0.463516
 20
-23.9266
 11
0.281067
 21
-23.9734
  0
LINE
  8
0
 10
0.281067
 20
-23.9734
 11
0.0941772
 21
-23.997
  0
LINE
  8
0
 10
0.0941772
 20
-23.997
 11
-0.0941772
 21
-23.997
  0
ENDSEC
  0
SECTION
  2
OBJECTS
  0
DICTIONARY
  0
ENDSEC
  0
EOF
